{
.formatVersion = 3;
axes = (
{
name = Weight;
tag = wght;
}
);
classes = (
{
code = "zero.lnum five.lnum seven.lnum eight.lnum a g i ordfeminine periodcentered agrave aacute acircumflex atilde adieresis aring ae amacron abreve aogonek gcircumflex gbreve gdotaccent gcommaaccent Scedilla scedilla Tcedilla tcedilla gcaron aringacute aeacute adblgrave ainvertedbreve gravecomb acutecomb circumflexcomb tildecomb macroncomb brevecomb dotaccentcomb dieresiscomb hookabovecomb ringcomb hungarumlautcomb dblgravecomb breveinvertedcomb commaturnedabovecomb strokeshortcomb tonos Decyr Kacyr Elcyr acyr becyr vecyr zhecyr zecyr icyr ishortcyr kacyr elcyr tsecyr shacyr shchacyr hardcyr softcyr yucyr gjecyr igravecyr abrevecyr adieresiscyr aiecyr adotbelow ahoi acircumflexacute acircumflexgrave acircumflexhoi acircumflextilde acircumflexdotbelow abreveacute abrevegrave abrevehoi abrevetilde abrevedotbelow zero two.lnum.ss05 five six seven eight nine periodcentered.loclCAT caroncomb.case horncomb.case pecyr.loclSRB tecyr.loclSRB gjecyr.loclMKD";
name = aalt;
},
{

glyphs = (
{
glyphname = .notdef;
layers = (
{
layerId = "88C73509-728C-4DC8-993B-4895D781EEEF";
shapes = (
{
closed = 1;
nodes = (
(129,0,l),
(1241,0,l),
(1241,1410,l),
(129,1410,l)
);
},
{
closed = 1;
nodes = (
(455,268,l),
(455,1142,l),
(914,1142,l),
(914,268,l)
);
}
);
width = 1360;
},
{
layerId = "7609694B-C902-4DC8-BC2F-8BF204A4C5AE";
shapes = (
{
closed = 1;
nodes = (
(158,0,l),
(1121,0,l),
(1121,1410,l),
(158,1410,l)
);
},
{
closed = 1;
nodes = (
(335,155,l),
(335,1256,l),
(943,1256,l),
(943,155,l)
);
}
);
width = 1270;
},
{
layerId = "90133A7B-8BB4-4C15-92F3-A0E8B30B2A31";
shapes = (
{
closed = 1;
nodes = (
(177,0,l),
(1045,0,l),
(1045,1410,l),
(177,1410,l)
);
},
{
closed = 1;
nodes = (
(260,84,l),
(260,1328,l),
(963,1328,l),
(963,84,l)
);
}
);
width = 1214;
}
);
},
{
glyphname = exclam;
layers = (
{
layerId = "88C73509-728C-4DC8-993B-4895D781EEEF";
shapes = (
{
closed = 1;
nodes = (
(183,536,l),
(539,536,l),
(601,1440,l),
(119,1440,l)
);
},
{
closed = 1;
nodes = (
(495,-30,o),
(594,57,o),
(594,192,cs),
(594,330,o),
(495,416,o),
(360,416,cs),
(227,416,o),
(126,325,o),
(126,192,cs),
(126,60,o),
(232,-30,o),
(360,-30,cs)
);
}
);
width = 720;
},
{
layerId = "7609694B-C902-4DC8-BC2F-8BF204A4C5AE";
shapes = (
{
closed = 1;
nodes = (
(229,469,l),
(410,469,l),
(441,1440,l),
(195,1440,l)
);
},
{
closed = 1;
nodes = (
(402,-30,o),
(465,26,o),
(465,109,cs),
(465,197,o),
(403,249,o),
(318,249,cs),
(236,249,o),
(171,191,o),
(171,109,cs),
(171,27,o),
(240,-30,o),
(319,-30,cs)
);
}
);
width = 636;
},
{
layerId = "90133A7B-8BB4-4C15-92F3-A0E8B30B2A31";
shapes = (
{
closed = 1;
nodes = (
(257,426,l),
(328,426,l),
(341,1440,l),
(242,1440,l)
);
},
{
closed = 1;
nodes = (
(343,-30,o),
(384,7,o),
(384,57,cs),
(384,112,o),
(344,144,o),
(291,144,cs),
(242,144,o),
(199,107,o),
(199,57,cs),
(199,6,o),
(243,-30,o),
(292,-30,cs)
);
}
);
width = 583;
}
);
leftKerningGroup = _b2;
rightKerningGroup = _d;
unicode = 33;
},
{
glyphname = quotedbl;
layers = (
{
layerId = "88C73509-728C-4DC8-993B-4895D781EEEF";
shapes = (
{
alignment = -1;
ref = quotesingle;
},
{
alignment = -1;
pos = (460,0);
ref = quotesingle;
}
);
width = 976;
},
{
layerId = "7609694B-C902-4DC8-BC2F-8BF204A4C5AE";
shapes = (
{
closed = 1;
nodes = (
(152,905,l),
(299,905,l),
(318,1400,l),
(133,1400,l)
);
},
{
closed = 1;
nodes = (
(500,905,l),
(647,905,l),
(666,1400,l),
(481,1400,l)
);
}
);
width = 797;
},
{
layerId = "90133A7B-8BB4-4C15-92F3-A0E8B30B2A31";
shapes = (
{
closed = 1;
nodes = (
(173,1033,l),
(236,1033,l),
(241,1400,l),
(167,1400,l)
);
},
{
closed = 1;
nodes = (
(450,1033,l),
(513,1033,l),
(518,1400,l),
(444,1400,l)
);
}
);
width = 684;
}
);
leftKerningGroup = _tonos2;
rightKerningGroup = _tonos;
unicode = 34;
},
{
glyphname = numbersign;
layers = (
{
layerId = "88C73509-728C-4DC8-993B-4895D781EEEF";
shapes = (
{
closed = 1;
nodes = (
(136,32,l),
(408,32,l),
(480,336,l),
(664,334,l),
(592,32,l),
(864,32,l),
(938,334,l),
(1100,334,l),
(1160,592,l),
(1000,592,l),
(1048,802,l),
(1208,802,l),
(1266,1058,l),
(1108,1058,l),
(1182,1368,l),
(910,1368,l),
(836,1058,l),
(650,1058,l),
(724,1368,l),
(452,1368,l),
(378,1058,l),
(216,1058,l),
(156,802,l),
(318,802,l),
(268,592,l),
(108,592,l),
(48,336,l),
(208,336,l)
);
},
{
closed = 1;
nodes = (
(540,592,l),
(588,802,l),
(776,802,l),
(728,592,l)
);
}
);
width = 1314;
},
{
layerId = "7609694B-C902-4DC8-BC2F-8BF204A4C5AE";
shapes = (
{
closed = 1;
nodes = (
(171,50,l),
(323,50,l),
(406,393,l),
(714,393,l),
(631,49,l),
(783,49,l),
(867,393,l),
(1038,393,l),
(1073,540,l),
(902,540,l),
(974,858,l),
(1146,858,l),
(1179,1005,l),
(1009,1005,l),
(1091,1351,l),
(939,1351,l),
(857,1005,l),
(548,1005,l),
(630,1350,l),
(480,1350,l),
(396,1005,l),
(224,1005,l),
(190,859,l),
(363,859,l),
(288,539,l),
(115,539,l),
(82,393,l),
(254,393,l)
);
},
{
closed = 1;
nodes = (
(439,539,l),
(511,859,l),
(822,858,l),
(750,540,l)
);
}
);
width = 1261;
},
{
layerId = "90133A7B-8BB4-4C15-92F3-A0E8B30B2A31";
shapes = (
{
closed = 1;
nodes = (
(193,62,l),
(269,62,l),
(359,430,l),
(746,430,l),
(656,59,l),
(731,59,l),
(821,430,l),
(999,430,l),
(1018,507,l),
(840,507,l),
(927,893,l),
(1107,893,l),
(1124,971,l),
(946,971,l),
(1033,1341,l),
(958,1341,l),
(870,971,l),
(483,971,l),
(571,1338,l),
(498,1338,l),
(408,971,l),
(230,971,l),
(211,896,l),
(391,896,l),
(300,505,l),
(119,505,l),
(103,430,l),
(283,430,l)
);
},
{
closed = 1;
nodes = (
(376,505,l),
(462,896,l),
(851,893,l),
(765,507,l)
);
}
);
width = 1227;
}
);
unicode = 35;
},
{
glyphname = dollar;
layers = (
{
layerId = "88C73509-728C-4DC8-993B-4895D781EEEF";
shapes = (
{
closed = 1;
nodes = (
(904,-30,o),
(1120,129,o),
(1120,418,cs),
(1120,664,o),
(960,798,o),
(757,824,cs),
(631,840,ls),
(530,853,o),
(426,892,o),
(426,1012,cs),
(426,1131,o),
(539,1156,o),
(626,1156,cs),
(741,1156,o),
(857,1111,o),
(934,1017,c),
(1082,1259,l),
(967,1384,o),
(779,1428,o),
(622,1428,cs),
(371,1428,o),
(145,1267,o),
(145,996,cs),
(145,756,o),
(312,611,o),
(511,578,cs),
(631,558,ls),
(730,542,o),
(837,497,o),
(837,382,cs),
(837,263,o),
(707,242,o),
(622,242,cs),
(485,242,o),
(355,301,o),
(262,400,c),
(120,152,l),
(250,26,o),
(451,-30,o),
(622,-30,cs)
);
},
{
closed = 1;
nodes = (
(507,-160,l),
(761,-160,l),
(761,1560,l),
(507,1560,l)
);
}
);
width = 1200;
},
{
layerId = "7609694B-C902-4DC8-BC2F-8BF204A4C5AE";
shapes = (
{
closed = 1;
nodes = (
(873,-30,o),
(1066,109,o),
(1066,377,cs),
(1066,601,o),
(925,706,o),
(743,755,c),
(593,799,ls),
(466,836,o),
(342,886,o),
(342,1039,cs),
(342,1213,o),
(475,1274,o),
(613,1274,cs),
(732,1274,o),
(844,1234,o),
(932,1147,c),
(1020,1287,l),
(914,1389,o),
(764,1429,o),
(625,1429,cs),
(386,1429,o),
(179,1289,o),
(179,1028,cs),
(179,812,o),
(338,704,o),
(511,655,c),
(649,613,ls),
(781,572,o),
(902,518,o),
(902,361,cs),
(902,189,o),
(762,127,o),
(611,127,cs),
(475,127,o),
(354,175,o),
(250,267,c),
(164,121,l),
(284,15,o),
(458,-30,o),
(611,-30,cs)
);
},
{
closed = 1;
nodes = (
(547,-160,l),
(697,-160,l),
(697,1560,l),
(547,1560,l)
);
}
);
width = 1200;
},
{
layerId = "90133A7B-8BB4-4C15-92F3-A0E8B30B2A31";
shapes = (
{
closed = 1;
nodes = (
(854,-30,o),
(1032,96,o),
(1032,352,cs),
(1032,561,o),
(902,647,o),
(733,712,c),
(569,772,ls),
(425,826,o),
(288,882,o),
(288,1055,cs),
(288,1265,o),
(434,1348,o),
(605,1348,cs),
(726,1348,o),
(835,1312,o),
(930,1229,c),
(981,1305,l),
(880,1392,o),
(754,1430,o),
(627,1430,cs),
(395,1430,o),
(200,1304,o),
(200,1049,cs),
(200,846,o),
(354,763,o),
(511,702,c),
(661,647,ls),
(813,591,o),
(943,530,o),
(943,348,cs),
(943,142,o),
(796,55,o),
(604,55,cs),
(468,55,o),
(353,95,o),
(242,182,c),
(192,102,l),
(305,8,o),
(462,-30,o),
(604,-30,cs)
);
},
{
closed = 1;
nodes = (
(572,-160,l),
(656,-160,l),
(656,1560,l),
(572,1560,l)
);
}
);
width = 1200;
}
);
unicode = 36;
},
{
glyphname = percent;
layers = (
{
guides = (
{
position = "{0, 1040}";
}
);
layerId = "88C73509-728C-4DC8-993B-4895D781EEEF";
shapes = (
{
closed = 1;
nodes = (
(483,745,o),
(570,911,o),
(570,1087,cs),
(570,1265,o),
(484,1429,o),
(300,1429,cs),
(116,1429,o),
(30,1265,o),
(30,1087,cs),
(30,911,o),
(117,745,o),
(300,745,cs)
);
},
{
closed = 1;
nodes = (
(247,946,o),
(237,1036,o),
(237,1087,cs),
(237,1182,o),
(268,1230,o),
(300,1230,cs),
(330,1230,o),
(363,1183,o),
(363,1087,cs),
(363,1035,o),
(353,946,o),
(300,946,cs)
);
},
{
closed = 1;
nodes = (
(1083,-26,o),
(1170,140,o),
(1170,317,cs),
(1170,494,o),
(1084,659,o),
(899,659,cs),
(716,659,o),
(629,494,o),
(629,317,cs),
(629,140,o),
(717,-26,o),
(899,-26,cs)
);
},
{
closed = 1;
nodes = (
(847,176,o),
(837,265,o),
(837,317,cs),
(837,411,o),
(869,459,o),
(900,459,cs),
(931,459,o),
(963,412,o),
(963,317,cs),
(963,264,o),
(952,176,o),
(899,176,cs)
);
},
{
closed = 1;
nodes = (
(292,-43,l),
(1066,1344,l),
(904,1440,l),
(128,57,l)
);
}
);
width = 1200;
},
{
guides = (
{
position = "{0, 1040}";
}
);
layerId = "7609694B-C902-4DC8-BC2F-8BF204A4C5AE";
shapes = (
{
closed = 1;
nodes = (
(498,745,o),
(571,934,o),
(571,1087,cs),
(571,1243,o),
(499,1429,o),
(320,1429,cs),
(140,1429,o),
(67,1241,o),
(67,1087,cs),
(67,935,o),
(141,745,o),
(320,745,cs)
);
},
{
closed = 1;
nodes = (
(218,859,o),
(187,994,o),
(187,1087,cs),
(187,1239,o),
(254,1317,o),
(320,1317,cs),
(385,1317,o),
(452,1240,o),
(452,1087,cs),
(452,1000,o),
(425,859,o),
(320,859,cs)
);
},
{
closed = 1;
nodes = (
(1059,-28,o),
(1133,161,o),
(1133,314,cs),
(1133,469,o),
(1060,656,o),
(880,656,cs),
(702,656,o),
(629,467,o),
(629,314,cs),
(629,161,o),
(703,-28,o),
(880,-28,cs)
);
},
{
closed = 1;
nodes = (
(779,86,o),
(748,220,o),
(748,314,cs),
(748,467,o),
(815,543,o),
(880,543,cs),
(946,543,o),
(1013,468,o),
(1013,314,cs),
(1013,226,o),
(987,86,o),
(880,86,cs)
);
},
{
closed = 1;
nodes = (
(258,-34,l),
(1045,1380,l),
(946,1433,l),
(158,25,l)
);
}
);
width = 1200;
},
{
guides = (
{
position = "{0, 1040}";
}
);
layerId = "90133A7B-8BB4-4C15-92F3-A0E8B30B2A31";
shapes = (
{
closed = 1;
nodes = (
(507,745,o),
(572,949,o),
(572,1087,cs),
(572,1228,o),
(508,1429,o),
(332,1429,cs),
(155,1429,o),
(90,1226,o),
(90,1087,cs),
(90,950,o),
(156,745,o),
(332,745,cs)
);
},
{
closed = 1;
nodes = (
(199,804,o),
(155,966,o),
(155,1087,cs),
(155,1276,o),
(244,1372,o),
(332,1372,cs),
(419,1372,o),
(508,1277,o),
(508,1087,cs),
(508,977,o),
(471,804,o),
(332,804,cs)
);
},
{
closed = 1;
nodes = (
(1044,-29,o),
(1109,173,o),
(1109,312,cs),
(1109,453,o),
(1045,654,o),
(868,654,cs),
(692,654,o),
(628,451,o),
(628,312,cs),
(628,174,o),
(693,-29,o),
(868,-29,cs)
);
},
{
closed = 1;
nodes = (
(736,30,o),
(692,192,o),
(692,312,cs),
(692,501,o),
(781,596,o),
(868,596,cs),
(956,596,o),
(1045,502,o),
(1045,312,cs),
(1045,201,o),
(1008,30,o),
(868,30,cs)
);
},
{
closed = 1;
nodes = (
(236,-28,l),
(1030,1402,l),
(971,1429,l),
(177,4,l)
);
}
);
width = 1200;
}
);
leftKerningGroup = _percent;
unicode = 37;
},
{
glyphname = ampersand;
layers = (
{
layerId = "88C73509-728C-4DC8-993B-4895D781EEEF";
shapes = (
{
closed = 1;
nodes = (
(473,-30,o),
(393,-13,o),
(320,26,cs),
(174,103,o),
(89,231,o),
(89,399,cs),
(89,455,o),
(100,502,o),
(121,551,cs),
(169,655,o),
(256,739,o),
(393,804,c),
(592,581,l),
(547,569,o),
(512,543,o),
(486,514,cs),
(461,484,o),
(447,450,o),
(447,415,cs),
(447,379,o),
(460,348,o),
(491,324,c),
(520,300,o),
(556,288,o),
(600,288,cs),
(658,288,o),
(717,313,o),
(765,348,c),
(360,787,l),
(333,819,o),
(309,849,o),
(292,881,c),
(257,941,o),
(240,997,o),
(240,1061,cs),
(240,1135,o),
(258,1194,o),
(297,1255,c),
(344,1323,o),
(404,1370,o),
(473,1400,cs),
(542,1429,o),
(619,1441,o),
(700,1440,c),
(761,1441,o),
(824,1433,o),
(884,1418,cs),
(944,1403,o),
(1005,1380,o),
(1057,1355,c),
(951,1108,l),
(911,1123,o),
(867,1136,o),
(824,1147,cs),
(780,1158,o),
(739,1163,o),
(700,1160,c),
(651,1161,o),
(613,1151,o),
(590,1128,cs),
(574,1112,o),
(566,1092,o),
(566,1063,cs),
(566,1044,o),
(575,1021,o),
(590,997,cs),
(605,973,o),
(627,952,o),
(654,928,c),
(1005,574,l),
(1040,617,o),
(1071,663,o),
(1100,714,cs),
(1127,762,o),
(1151,822,o),
(1176,894,c),
(1484,777,l),
(1468,733,o),
(1447,686,o),
(1416,632,cs),
(1355,524,o),
(1284,416,o),
(1210,342,c),
(1520,0,l),
(1081,0,l),
(973,115,l),
(916,70,o),
(854,37,o),
(780,10,cs),
(704,-18,o),
(635,-30,o),
(566,-30,cs)
);
}
);
width = 1558;
},
{
layerId = "7609694B-C902-4DC8-BC2F-8BF204A4C5AE";
shapes = (
{
closed = 1;
nodes = (
(474,-30,o),
(401,-13,o),
(331,22,c),
(193,94,o),
(111,213,o),
(111,372,cs),
(111,432,o),
(125,483,o),
(152,538,c),
(212,648,o),
(322,734,o),
(482,787,c),
(593,670,l),
(499,646,o),
(428,606,o),
(379,556,cs),
(328,504,o),
(303,444,o),
(303,377,cs),
(303,306,o),
(326,250,o),
(379,205,c),
(426,163,o),
(492,141,o),
(576,141,cs),
(704,141,o),
(814,190,o),
(910,289,c),
(448,774,ls),
(407,819,o),
(371,856,o),
(345,893,c),
(296,963,o),
(276,1025,o),
(276,1104,cs),
(276,1168,o),
(293,1221,o),
(328,1274,c),
(371,1334,o),
(426,1377,o),
(488,1404,cs),
(552,1430,o),
(623,1441,o),
(698,1440,c),
(769,1441,o),
(842,1428,o),
(908,1407,cs),
(975,1385,o),
(1039,1353,o),
(1088,1318,c),
(1009,1177,l),
(970,1204,o),
(917,1229,o),
(860,1250,cs),
(801,1269,o),
(741,1280,o),
(684,1279,c),
(616,1281,o),
(557,1267,o),
(515,1228,cs),
(476,1195,o),
(459,1156,o),
(459,1102,cs),
(459,1061,o),
(471,1021,o),
(493,983,cs),
(516,945,o),
(556,902,o),
(609,847,cs),
(1030,418,l),
(1069,466,o),
(1106,523,o),
(1140,589,cs),
(1173,654,o),
(1201,728,o),
(1231,816,c),
(1396,748,l),
(1377,695,o),
(1356,641,o),
(1328,588,c),
(1276,478,o),
(1212,378,o),
(1141,296,c),
(1421,0,l),
(1181,0,l),
(1023,165,l),
(959,102,o),
(886,56,o),
(807,22,c),
(725,-15,o),
(647,-30,o),
(565,-30,cs)
);
}
);
width = 1491;
},
{
layerId = "90133A7B-8BB4-4C15-92F3-A0E8B30B2A31";
shapes = (
{
closed = 1;
nodes = (
(475,-30,o),
(405,-13,o),
(337,19,c),
(205,88,o),
(126,203,o),
(126,355,cs),
(126,417,o),
(141,471,o),
(171,529,c),
(240,644,o),
(363,731,o),
(539,777,c),
(593,726,l),
(469,694,o),
(376,646,o),
(310,581,cs),
(245,517,o),
(212,440,o),
(212,352,cs),
(212,260,o),
(242,187,o),
(306,131,c),
(367,76,o),
(452,48,o),
(561,48,cs),
(732,48,o),
(874,113,o),
(1002,252,c),
(503,766,ls),
(453,819,o),
(409,860,o),
(380,900,c),
(320,976,o),
(299,1041,o),
(299,1131,cs),
(299,1189,o),
(315,1237,o),
(347,1286,c),
(387,1341,o),
(439,1381,o),
(498,1407,cs),
(558,1431,o),
(625,1441,o),
(696,1440,cs),
(775,1440,o),
(852,1425,o),
(923,1400,cs),
(994,1373,o),
(1060,1337,o),
(1108,1294,c),
(1046,1220,l),
(1007,1257,o),
(950,1289,o),
(882,1314,cs),
(815,1338,o),
(742,1354,o),
(674,1353,c),
(593,1356,o),
(520,1339,o),
(467,1292,c),
(415,1248,o),
(391,1195,o),
(391,1126,cs),
(391,1071,o),
(406,1020,o),
(432,974,cs),
(459,927,o),
(509,871,o),
(581,794,c),
(1046,318,l),
(1087,372,o),
(1127,434,o),
(1165,510,c),
(1201,586,o),
(1233,669,o),
(1266,765,c),
(1339,729,l),
(1319,670,o),
(1300,613,o),
(1273,560,c),
(1225,450,o),
(1166,352,o),
(1098,267,c),
(1357,0,l),
(1245,0,l),
(1055,197,l),
(984,121,o),
(905,68,o),
(823,29,c),
(737,-12,o),
(654,-30,o),
(564,-30,cs)
);
}
);
width = 1448;
}
);
rightKerningGroup = _x;
unicode = 38;
},
{
glyphname = quotesingle;
layers = (
{
layerId = "88C73509-728C-4DC8-993B-4895D781EEEF";
shapes = (
{
closed = 1;
nodes = (
(120,707,l),
(402,707,l),
(442,1410,l),
(80,1410,l)
);
}
);
width = 516;
},
{
layerId = "7609694B-C902-4DC8-BC2F-8BF204A4C5AE";
shapes = (
{
closed = 1;
nodes = (
(153,911,l),
(301,911,l),
(320,1410,l),
(134,1410,l)
);
}
);
width = 449;
},
{
layerId = "90133A7B-8BB4-4C15-92F3-A0E8B30B2A31";
shapes = (
{
closed = 1;
nodes = (
(174,1040,l),
(238,1040,l),
(243,1410,l),
(168,1410,l)
);
}
);
width = 406;
}
);
leftKerningGroup = _tonos2;
rightKerningGroup = _tonos;
unicode = 39;
},
{
glyphname = parenleft;
layers = (
{
layerId = "88C73509-728C-4DC8-993B-4895D781EEEF";
shapes = (
{
closed = 1;
nodes = (
(662,-118,l),
(590,3,o),
(538,128,o),
(505,269,c),
(469,410,o),
(450,551,o),
(450,696,cs),
(450,841,o),
(467,979,o),
(503,1119,cs),
(539,1256,o),
(590,1382,o),
(662,1498,c),
(348,1610,l),
(235,1414,o),
(164,1214,o),
(128,1006,cs),
(109,901,o),
(100,800,o),
(100,692,cs),
(100,532,o),
(121,380,o),
(162,224,cs),
(203,67,o),
(264,-81,o),
(348,-230,c)
);
}
);
width = 732;
},
{
layerId = "7609694B-C902-4DC8-BC2F-8BF204A4C5AE";
shapes = (
{
closed = 1;
nodes = (
(564,-167,l),
(489,-43,o),
(435,88,o),
(400,240,c),
(361,391,o),
(342,541,o),
(342,696,cs),
(342,852,o),
(360,1002,o),
(398,1151,c),
(437,1296,o),
(489,1431,o),
(564,1547,c),
(414,1610,l),
(301,1426,o),
(230,1227,o),
(194,1014,cs),
(175,906,o),
(166,803,o),
(166,692,cs),
(166,529,o),
(187,374,o),
(228,215,cs),
(269,55,o),
(330,-90,o),
(414,-230,c)
);
}
);
width = 686;
},
{
layerId = "90133A7B-8BB4-4C15-92F3-A0E8B30B2A31";
shapes = (
{
closed = 1;
nodes = (
(502,-198,l),
(426,-72,o),
(370,63,o),
(332,221,c),
(293,379,o),
(274,534,o),
(274,696,cs),
(274,859,o),
(292,1017,o),
(332,1170,c),
(372,1321,o),
(426,1461,o),
(502,1578,c),
(455,1610,l),
(342,1433,o),
(271,1235,o),
(235,1018,cs),
(216,909,o),
(207,805,o),
(207,692,cs),
(207,526,o),
(228,370,o),
(269,209,cs),
(310,47,o),
(371,-96,o),
(455,-230,c)
);
}
);
width = 657;
}
);
rightKerningGroup = _parenleft;
unicode = 40;
},
{
glyphname = parenright;
layers = (
{
layerId = "88C73509-728C-4DC8-993B-4895D781EEEF";
shapes = (
{
closed = 1;
nodes = (
(70,1498,l),
(142,1381,o),
(193,1255,o),
(229,1111,cs),
(265,970,o),
(282,829,o),
(282,684,cs),
(282,539,o),
(265,400,o),
(229,263,c),
(196,123,o),
(143,-1,o),
(70,-118,c),
(384,-230,l),
(497,-31,o),
(568,166,o),
(604,375,cs),
(623,479,o),
(632,583,o),
(632,688,cs),
(632,848,o),
(611,1000,o),
(570,1157,cs),
(529,1314,o),
(468,1461,o),
(384,1610,c)
);
}
);
width = 732;
},
{
layerId = "7609694B-C902-4DC8-BC2F-8BF204A4C5AE";
shapes = (
{
closed = 1;
nodes = (
(122,1547,l),
(197,1427,o),
(250,1294,o),
(289,1140,cs),
(327,989,o),
(344,840,o),
(344,684,cs),
(344,528,o),
(326,377,o),
(288,232,c),
(252,83,o),
(198,-48,o),
(122,-167,c),
(272,-230,l),
(385,-44,o),
(456,153,o),
(492,368,c),
(511,475,o),
(520,581,o),
(520,688,cs),
(520,852,o),
(499,1007,o),
(458,1165,cs),
(417,1325,o),
(356,1470,o),
(272,1610,c)
);
}
);
width = 686;
},
{
layerId = "90133A7B-8BB4-4C15-92F3-A0E8B30B2A31";
shapes = (
{
closed = 1;
nodes = (
(155,1578,l),
(231,1456,o),
(285,1318,o),
(326,1159,cs),
(366,1001,o),
(383,846,o),
(383,684,cs),
(383,521,o),
(364,362,o),
(325,211,c),
(287,58,o),
(232,-77,o),
(155,-198,c),
(201,-230,l),
(314,-52,o),
(385,145,o),
(421,364,c),
(440,472,o),
(449,579,o),
(449,688,cs),
(449,854,o),
(428,1010,o),
(387,1171,cs),
(346,1332,o),
(285,1476,o),
(201,1610,c)
);
}
);
width = 657;
}
);
leftKerningGroup = _parenright;
unicode = 41;
},
{
glyphname = asterisk;
layers = (
{
layerId = "88C73509-728C-4DC8-993B-4895D781EEEF";
shapes = (
{
closed = 1;
nodes = (
(457,401,l),
(598,646,l),
(739,401,l),
(1047,612,l),
(860,822,l),
(1134,888,l),
(1017,1243,l),
(757,1130,l),
(789,1410,l),
(411,1410,l),
(443,1130,l),
(183,1243,l),
(66,888,l),
(340,822,l),
(153,612,l)
);
}
);
width = 1192;
},
{
layerId = "7609694B-C902-4DC8-BC2F-8BF204A4C5AE";
shapes = (
{
closed = 1;
nodes = (
(386,611,l),
(550,866,l),
(712,612,l),
(870,721,l),
(677,957,l),
(971,1035,l),
(910,1217,l),
(627,1109,l),
(644,1410,l),
(453,1410,l),
(471,1106,l),
(189,1215,l),
(129,1033,l),
(422,955,l),
(232,721,l)
);
}
);
width = 1088;
},
{
layerId = "90133A7B-8BB4-4C15-92F3-A0E8B30B2A31";
shapes = (
{
closed = 1;
nodes = (
(339,743,l),
(520,1005,l),
(696,746,l),
(757,789,l),
(561,1042,l),
(867,1128,l),
(842,1201,l),
(546,1096,l),
(553,1410,l),
(480,1410,l),
(489,1090,l),
(192,1199,l),
(168,1125,l),
(474,1038,l),
(282,789,l)
);
}
);
width = 1023;
}
);
leftKerningGroup = _degree2;
rightKerningGroup = _degree;
unicode = 42;
},
{
glyphname = plus;
layers = (
{
layerId = "88C73509-728C-4DC8-993B-4895D781EEEF";
shapes = (
{
closed = 1;
nodes = (
(508,110,l),
(788,110,l),
(788,536,l),
(1228,536,l),
(1228,804,l),
(788,804,l),
(788,1230,l),
(508,1230,l),
(508,804,l),
(68,804,l),
(68,536,l),
(508,536,l)
);
}
);
width = 1296;
},
{
layerId = "7609694B-C902-4DC8-BC2F-8BF204A4C5AE";
shapes = (
{
closed = 1;
nodes = (
(571,187,l),
(725,187,l),
(725,592,l),
(1150,592,l),
(1150,740,l),
(725,740,l),
(725,1145,l),
(571,1145,l),
(571,740,l),
(146,740,l),
(146,592,l),
(571,592,l)
);
}
);
width = 1296;
},
{
layerId = "90133A7B-8BB4-4C15-92F3-A0E8B30B2A31";
shapes = (
{
closed = 1;
nodes = (
(611,236,l),
(685,236,l),
(685,627,l),
(1100,627,l),
(1100,699,l),
(685,699,l),
(685,1091,l),
(611,1091,l),
(611,699,l),
(196,699,l),
(196,627,l),
(611,627,l)
);
}
);
width = 1296;
}
);
leftKerningGroup = _plus2;
rightKerningGroup = _plus;
unicode = 43;
},
{
glyphname = hyphen;
layers = (
{
layerId = "88C73509-728C-4DC8-993B-4895D781EEEF";
shapes = (
{
closed = 1;
nodes = (
(90,392,l),
(710,392,l),
(710,742,l),
(90,742,l)
);
}
);
width = 800;
},
{
layerId = "7609694B-C902-4DC8-BC2F-8BF204A4C5AE";
shapes = (
{
closed = 1;
nodes = (
(122,476,l),
(653,476,l),
(653,648,l),
(122,648,l)
);
}
);
width = 775;
},
{
layerId = "90133A7B-8BB4-4C15-92F3-A0E8B30B2A31";
shapes = (
{
closed = 1;
nodes = (
(143,529,l),
(616,529,l),
(616,589,l),
(143,589,l)
);
}
);
width = 759;
}
);
leftKerningGroup = _hyphen2;
rightKerningGroup = _hyphen;
unicode = 45;
},
{
glyphname = slash;
layers = (
{
layerId = "88C73509-728C-4DC8-993B-4895D781EEEF";
shapes = (
{
closed = 1;
nodes = (
(292,-230,l),
(978,1484,l),
(656,1610,l),
(-30,-104,l)
);
}
);
width = 948;
},
{
layerId = "7609694B-C902-4DC8-BC2F-8BF204A4C5AE";
shapes = (
{
closed = 1;
nodes = (
(172,-230,l),
(904,1544,l),
(737,1610,l),
(5,-164,l)
);
}
);
width = 909;
},
{
layerId = "90133A7B-8BB4-4C15-92F3-A0E8B30B2A31";
shapes = (
{
closed = 1;
nodes = (
(96,-230,l),
(857,1582,l),
(789,1610,l),
(27,-202,l)
);
}
);
width = 884;
}
);
unicode = 47;
},
{
glyphname = zero;
layers = (
{
layerId = "88C73509-728C-4DC8-993B-4895D781EEEF";
shapes = (
{
closed = 1;
nodes = (
(989,-30,o),
(1171,325,o),
(1171,705,cs),
(1171,1085,o),
(991,1440,o),
(604,1440,cs),
(220,1440,o),
(37,1084,o),
(37,705,cs),
(37,326,o),
(221,-30,o),
(604,-30,cs)
);
},
{
closed = 1;
nodes = (
(429,314,o),
(395,559,o),
(395,705,cs),
(395,967,o),
(499,1101,o),
(604,1102,cs),
(709,1103,o),
(814,972,o),
(814,705,cs),
(814,558,o),
(783,314,o),
(604,314,cs)
);
}
);
width = 1200;
},
{
layerId = "7609694B-C902-4DC8-BC2F-8BF204A4C5AE";
shapes = (
{
closed = 1;
nodes = (
(982,-30,o),
(1137,375,o),
(1137,705,cs),
(1137,1037,o),
(984,1440,o),
(604,1440,cs),
(227,1440,o),
(72,1036,o),
(72,705,cs),
(72,376,o),
(228,-30,o),
(604,-30,cs)
);
},
{
closed = 1;
nodes = (
(344,152,o),
(265,475,o),
(265,705,cs),
(265,1074,o),
(435,1263,o),
(604,1263,c),
(773,1263,o),
(943,1078,o),
(943,705,cs),
(943,490,o),
(876,152,o),
(604,152,cs)
);
}
);
width = 1200;
},
{
layerId = "90133A7B-8BB4-4C15-92F3-A0E8B30B2A31";
shapes = (
{
closed = 1;
nodes = (
(978,-30,o),
(1115,405,o),
(1115,705,cs),
(1115,1006,o),
(978,1440,o),
(604,1440,cs),
(231,1440,o),
(95,1005,o),
(95,705,cs),
(95,406,o),
(232,-30,o),
(604,-30,cs)
);
},
{
closed = 1;
nodes = (
(290,49,o),
(183,423,o),
(183,705,cs),
(183,1143,o),
(394,1363,o),
(604,1363,c),
(815,1363,o),
(1025,1145,o),
(1025,705,cs),
(1025,447,o),
(934,49,o),
(604,49,cs)
);
}
);
width = 1200;
}
);
leftKerningGroup = _plus2;
rightKerningGroup = _plus;
unicode = 48;
},
{
glyphname = one;
layers = (
{
layerId = "88C73509-728C-4DC8-993B-4895D781EEEF";
shapes = (
{
closed = 1;
nodes = (
(125,0,l),
(1155,0,l),
(1155,360,l),
(834,360,l),
(834,1410,l),
(793,1410,l),
(123,1169,l),
(223,850,l),
(485,948,l),
(485,360,l),
(125,360,l)
);
}
);
width = 1200;
},
{
layerId = "7609694B-C902-4DC8-BC2F-8BF204A4C5AE";
shapes = (
{
closed = 1;
nodes = (
(174,0,l),
(1100,0,l),
(1100,184,l),
(749,184,l),
(749,1410,l),
(706,1410,l),
(173,1201,l),
(228,1036,l),
(566,1174,l),
(566,184,l),
(174,184,l)
);
}
);
width = 1200;
},
{
layerId = "90133A7B-8BB4-4C15-92F3-A0E8B30B2A31";
shapes = (
{
closed = 1;
nodes = (
(205,0,l),
(1065,0,l),
(1065,72,l),
(695,72,l),
(695,1410,l),
(649,1410,l),
(205,1222,l),
(231,1154,l),
(616,1317,l),
(616,72,l),
(205,72,l)
);
}
);
width = 1200;
}
);
leftKerningGroup = _plus2;
rightKerningGroup = _plus;
unicode = 49;
},
{
glyphname = two;
layers = (
{
layerId = "88C73509-728C-4DC8-993B-4895D781EEEF";
shapes = (
{
closed = 1;
nodes = (
(708,1128,o),
(751,1072,o),
(751,972,cs),
(751,945,o),
(741,915,o),
(724,883,cs),
(618,684,o),
(232,387,o),
(98,291,c),
(98,0,l),
(1113,0,l),
(1113,322,l),
(654,322,l),
(811,419,o),
(1005,596,o),
(1085,787,cs),
(1110,845,o),
(1124,903,o),
(1124,961,cs),
(1124,1255,o),
(923,1440,o),
(604,1440,cs),
(345,1440,o),
(114,1260,o),
(45,1010,c),
(349,852,l),
(386,953,o),
(483,1128,o),
(604,1128,cs)
);
}
);
width = 1200;
},
{
layerId = "7609694B-C902-4DC8-BC2F-8BF204A4C5AE";
shapes = (
{
closed = 1;
nodes = (
(781,1276,o),
(878,1193,o),
(878,1046,cs),
(878,1008,o),
(871,968,o),
(859,928,cs),
(781,672,o),
(324,301,o),
(118,152,c),
(118,0,l),
(1060,0,l),
(1060,174,l),
(426,174,l),
(627,318,o),
(955,616,o),
(1046,886,cs),
(1062,935,o),
(1072,983,o),
(1072,1029,cs),
(1072,1290,o),
(903,1440,o),
(603,1440,cs),
(384,1440,o),
(174,1297,o),
(108,1084,c),
(277,1009,l),
(321,1148,o),
(454,1276,o),
(603,1276,cs)
);
}
);
width = 1200;
},
{
layerId = "90133A7B-8BB4-4C15-92F3-A0E8B30B2A31";
shapes = (
{
closed = 1;
nodes = (
(828,1370,o),
(959,1270,o),
(959,1093,cs),
(959,1048,o),
(953,1002,o),
(943,958,cs),
(884,665,o),
(384,247,o),
(130,64,c),
(130,0,l),
(1027,0,l),
(1027,81,l),
(282,81,l),
(512,255,o),
(924,628,o),
(1021,950,cs),
(1034,992,o),
(1039,1033,o),
(1039,1072,cs),
(1039,1313,o),
(890,1440,o),
(602,1440,cs),
(408,1440,o),
(211,1321,o),
(147,1132,c),
(231,1109,l),
(280,1272,o),
(435,1370,o),
(602,1370,cs)
);
}
);
width = 1200;
}
);
leftKerningGroup = _two.tnum2;
rightKerningGroup = _two.tnum;
unicode = 50;
},
{
glyphname = three;
layers = (
{
layerId = "88C73509-728C-4DC8-993B-4895D781EEEF";
shapes = (
{
closed = 1;
nodes = (
(870,-30,o),
(1119,137,o),
(1119,421,cs),
(1119,613,o),
(998,832,o),
(778,834,cs),
(776,834,o),
(774,834,o),
(772,834,c),
(1058,1111,l),
(1058,1410,l),
(135,1410,l),
(135,1085,l),
(624,1085,l),
(307,831,l),
(412,583,l),
(463,598,o),
(520,604,o),
(569,604,cs),
(671,604,o),
(761,560,o),
(761,453,cs),
(761,348,o),
(646,306,o),
(554,306,cs),
(422,306,o),
(298,353,o),
(227,443,c),
(112,136,l),
(208,23,o),
(437,-30,o),
(580,-30,cs)
);
}
);
width = 1200;
},
{
layerId = "7609694B-C902-4DC8-BC2F-8BF204A4C5AE";
shapes = (
{
closed = 1;
nodes = (
(871,-30,o),
(1066,174,o),
(1066,412,cs),
(1066,652,o),
(861,829,o),
(620,830,c),
(601,830,o),
(584,827,o),
(565,827,c),
(1000,1249,l),
(1000,1410,l),
(136,1410,l),
(136,1236,l),
(765,1236,l),
(312,809,l),
(375,674,l),
(428,687,o),
(483,692,o),
(535,692,cs),
(714,692,o),
(878,617,o),
(878,424,cs),
(878,235,o),
(719,150,o),
(547,150,cs),
(412,150,o),
(281,192,o),
(192,270,c),
(124,107,l),
(231,15,o),
(420,-30,o),
(559,-30,cs)
);
}
);
width = 1200;
},
{
layerId = "90133A7B-8BB4-4C15-92F3-A0E8B30B2A31";
shapes = (
{
closed = 1;
nodes = (
(872,-30,o),
(1032,197,o),
(1032,406,cs),
(1032,678,o),
(774,827,o),
(520,827,c),
(491,827,o),
(462,823,o),
(434,823,c),
(963,1336,l),
(963,1410,l),
(136,1410,l),
(136,1331,l),
(854,1331,l),
(315,793,l),
(350,730,l),
(406,742,o),
(460,747,o),
(514,747,cs),
(741,747,o),
(951,654,o),
(951,405,cs),
(951,162,o),
(765,50,o),
(541,50,cs),
(405,50,o),
(271,90,o),
(171,160,c),
(131,88,l),
(246,9,o),
(410,-30,o),
(544,-30,cs)
);
}
);
width = 1200;
}
);
leftKerningGroup = _plus2;
rightKerningGroup = _plus;
unicode = 51;
},
{
glyphname = four;
layers = (
{
layerId = "88C73509-728C-4DC8-993B-4895D781EEEF";
shapes = (
{
closed = 1;
nodes = (
(678,0,l),
(991,0,l),
(991,248,l),
(1158,248,l),
(1158,568,l),
(991,568,l),
(991,818,l),
(678,818,l),
(678,568,l),
(449,568,l),
(821,1410,l),
(446,1410,l),
(56,532,l),
(56,248,l),
(678,248,l)
);
}
);
width = 1200;
},
{
layerId = "7609694B-C902-4DC8-BC2F-8BF204A4C5AE";
shapes = (
{
closed = 1;
nodes = (
(766,0,l),
(934,0,l),
(934,294,l),
(1150,294,l),
(1150,466,l),
(934,466,l),
(934,786,l),
(766,786,l),
(766,466,l),
(294,466,l),
(782,1410,l),
(582,1410,l),
(89,450,l),
(89,294,l),
(766,294,l)
);
}
);
width = 1200;
},
{
layerId = "90133A7B-8BB4-4C15-92F3-A0E8B30B2A31";
shapes = (
{
closed = 1;
nodes = (
(823,0,l),
(897,0,l),
(897,323,l),
(1144,323,l),
(1144,403,l),
(897,403,l),
(897,767,l),
(823,767,l),
(823,403,l),
(194,403,l),
(757,1410,l),
(668,1410,l),
(110,398,l),
(110,323,l),
(823,323,l)
);
}
);
width = 1200;
}
);
leftKerningGroup = _plus2;
rightKerningGroup = _plus;
unicode = 52;
},
{
glyphname = five;
layers = (
{
layerId = "88C73509-728C-4DC8-993B-4895D781EEEF";
shapes = (
{
closed = 1;
nodes = (
(839,-30,o),
(1084,120,o),
(1084,441,cs),
(1084,753,o),
(873,904,o),
(602,904,cs),
(567,904,o),
(535,902,o),
(501,897,c),
(495,897,l),
(519,1061,l),
(1053,1061,l),
(1053,1410,l),
(257,1410,l),
(185,743,l),
(342,558,l),
(407,591,o),
(471,602,o),
(529,602,cs),
(623,602,o),
(731,575,o),
(731,461,cs),
(731,336,o),
(636,306,o),
(533,306,cs),
(403,306,o),
(289,341,o),
(204,435,c),
(99,126,l),
(218,16,o),
(398,-30,o),
(554,-30,cs)
);
}
);
width = 1200;
},
{
layerId = "7609694B-C902-4DC8-BC2F-8BF204A4C5AE";
shapes = (
{
closed = 1;
nodes = (
(837,-30,o),
(1062,130,o),
(1062,434,cs),
(1062,726,o),
(853,876,o),
(600,876,cs),
(533,876,o),
(468,865,o),
(396,839,c),
(389,839,l),
(432,1229,l),
(1028,1229,l),
(1028,1410,l),
(295,1410,l),
(225,743,l),
(305,654,l),
(392,696,o),
(475,712,o),
(552,712,cs),
(722,712,o),
(874,628,o),
(874,440,cs),
(874,239,o),
(728,150,o),
(551,150,cs),
(424,150,o),
(296,190,o),
(205,271,c),
(140,106,l),
(250,13,o),
(423,-30,o),
(561,-30,cs)
);
}
);
width = 1200;
},
{
layerId = "90133A7B-8BB4-4C15-92F3-A0E8B30B2A31";
shapes = (
{
closed = 1;
nodes = (
(835,-30,o),
(1047,136,o),
(1047,430,cs),
(1047,708,o),
(841,858,o),
(598,858,cs),
(512,858,o),
(425,841,o),
(327,801,c),
(320,801,l),
(377,1335,l),
(1012,1335,l),
(1012,1410,l),
(319,1410,l),
(250,743,l),
(281,715,l),
(382,761,o),
(478,781,o),
(567,781,cs),
(784,781,o),
(965,662,o),
(965,427,cs),
(965,176,o),
(784,50,o),
(561,50,cs),
(436,50,o),
(300,96,o),
(205,167,c),
(165,93,l),
(269,10,o),
(438,-30,o),
(565,-30,cs)
);
}
);
width = 1200;
}
);
leftKerningGroup = _plus2;
rightKerningGroup = _plus;
unicode = 53;
},
{
glyphname = six;
layers = (
{
layerId = "88C73509-728C-4DC8-993B-4895D781EEEF";
shapes = (
{
closed = 1;
nodes = (
(936,-30,o),
(1142,193,o),
(1142,467,cs),
(1142,735,o),
(970,929,o),
(709,929,cs),
(619,929,o),
(549,906,o),
(489,866,c),
(559,1031,o),
(752,1127,o),
(1037,1127,c),
(969,1440,l),
(402,1440,o),
(65,1048,o),
(65,583,cs),
(65,200,o),
(294,-30,o),
(612,-30,cs)
);
},
{
closed = 1;
nodes = (
(524,290,o),
(457,360,o),
(457,457,cs),
(457,547,o),
(518,624,o),
(612,624,cs),
(702,624,o),
(768,554,o),
(768,457,cs),
(768,360,o),
(702,290,o),
(612,290,cs)
);
}
);
width = 1200;
},
{
layerId = "7609694B-C902-4DC8-BC2F-8BF204A4C5AE";
shapes = (
{
closed = 1;
nodes = (
(923,-30,o),
(1128,183,o),
(1128,456,cs),
(1128,723,o),
(934,909,o),
(674,909,cs),
(523,909,o),
(395,838,o),
(317,724,c),
(363,1066,o),
(626,1270,o),
(1007,1270,c),
(973,1440,l),
(449,1440,o),
(106,1074,o),
(106,583,cs),
(106,191,o),
(321,-30,o),
(626,-30,cs)
);
},
{
closed = 1;
nodes = (
(450,147,o),
(324,270,o),
(324,442,cs),
(324,607,o),
(455,736,o),
(626,736,cs),
(796,736,o),
(928,609,o),
(928,442,cs),
(928,270,o),
(802,147,o),
(626,147,cs)
);
}
);
width = 1200;
},
{
layerId = "90133A7B-8BB4-4C15-92F3-A0E8B30B2A31";
shapes = (
{
closed = 1;
nodes = (
(915,-30,o),
(1119,177,o),
(1119,449,cs),
(1119,715,o),
(911,897,o),
(650,897,cs),
(461,897,o),
(295,794,o),
(208,633,c),
(239,1088,o),
(546,1360,o),
(988,1360,c),
(976,1440,l),
(478,1440,o),
(131,1090,o),
(131,583,cs),
(131,185,o),
(337,-30,o),
(635,-30,cs)
);
},
{
closed = 1;
nodes = (
(404,56,o),
(241,211,o),
(241,432,cs),
(241,645,o),
(415,809,o),
(635,809,cs),
(856,809,o),
(1029,644,o),
(1029,432,cs),
(1029,211,o),
(866,56,o),
(635,56,cs)
);
}
);
width = 1200;
}
);
leftKerningGroup = _plus2;
rightKerningGroup = _plus;
unicode = 54;
},
{
glyphname = seven;
layers = (
{
layerId = "88C73509-728C-4DC8-993B-4895D781EEEF";
shapes = (
{
closed = 1;
nodes = (
(185,0,l),
(589,0,l),
(1106,1130,l),
(1106,1410,l),
(124,1410,l),
(124,1049,l),
(678,1049,l)
);
}
);
width = 1200;
},
{
layerId = "7609694B-C902-4DC8-BC2F-8BF204A4C5AE";
shapes = (
{
closed = 1;
nodes = (
(257,0,l),
(464,0,l),
(1049,1256,l),
(1049,1410,l),
(181,1410,l),
(181,1225,l),
(835,1225,l)
);
}
);
width = 1200;
},
{
layerId = "90133A7B-8BB4-4C15-92F3-A0E8B30B2A31";
shapes = (
{
closed = 1;
nodes = (
(303,0,l),
(386,0,l),
(1014,1334,l),
(1014,1410,l),
(216,1410,l),
(216,1337,l),
(934,1337,l)
);
}
);
width = 1200;
}
);
leftKerningGroup = _plus2;
rightKerningGroup = _plus;
unicode = 55;
},
{
glyphname = eight;
layers = (
{
layerId = "88C73509-728C-4DC8-993B-4895D781EEEF";
shapes = (
{
closed = 1;
nodes = (
(851,-30,o),
(1131,109,o),
(1131,393,cs),
(1131,547,o),
(1047,683,o),
(902,745,c),
(1019,804,o),
(1084,910,o),
(1084,1047,cs),
(1084,1308,o),
(844,1440,o),
(604,1440,cs),
(361,1440,o),
(128,1301,o),
(128,1047,cs),
(128,920,o),
(193,804,o),
(310,745,c),
(166,685,o),
(78,558,o),
(78,393,cs),
(78,102,o),
(330,-30,o),
(595,-30,cs)
);
},
{
closed = 1;
nodes = (
(502,278,o),
(429,349,o),
(429,442,cs),
(429,544,o),
(509,602,o),
(604,602,cs),
(706,602,o),
(779,546,o),
(779,441,cs),
(779,346,o),
(704,278,o),
(604,278,cs)
);
},
{
closed = 1;
nodes = (
(525,898,o),
(454,955,o),
(454,1039,cs),
(454,1121,o),
(522,1176,o),
(606,1176,cs),
(688,1176,o),
(758,1127,o),
(758,1039,cs),
(758,952,o),
(688,898,o),
(606,898,cs)
);
}
);
width = 1200;
},
{
layerId = "7609694B-C902-4DC8-BC2F-8BF204A4C5AE";
shapes = (
{
closed = 1;
nodes = (
(856,-30,o),
(1086,124,o),
(1086,393,cs),
(1086,558,o),
(995,680,o),
(842,742,c),
(969,794,o),
(1044,910,o),
(1044,1054,cs),
(1044,1301,o),
(838,1440,o),
(605,1440,cs),
(379,1440,o),
(168,1304,o),
(168,1054,cs),
(168,913,o),
(247,794,o),
(372,742,c),
(220,684,o),
(122,567,o),
(122,393,cs),
(122,115,o),
(358,-30,o),
(602,-30,cs)
);
},
{
closed = 1;
nodes = (
(446,141,o),
(309,233,o),
(309,401,cs),
(309,569,o),
(436,660,o),
(604,660,cs),
(766,660,o),
(899,575,o),
(899,400,cs),
(899,229,o),
(759,141,o),
(604,141,cs)
);
},
{
closed = 1;
nodes = (
(475,828,o),
(345,899,o),
(345,1048,cs),
(345,1198,o),
(469,1282,o),
(606,1282,cs),
(745,1282,o),
(868,1201,o),
(868,1048,cs),
(868,902,o),
(745,828,o),
(606,828,cs)
);
}
);
width = 1200;
},
{
layerId = "90133A7B-8BB4-4C15-92F3-A0E8B30B2A31";
shapes = (
{
closed = 1;
nodes = (
(859,-30,o),
(1058,133,o),
(1058,393,cs),
(1058,565,o),
(962,678,o),
(804,740,c),
(936,788,o),
(1019,910,o),
(1019,1058,cs),
(1019,1295,o),
(835,1440,o),
(605,1440,cs),
(389,1440,o),
(193,1306,o),
(193,1058,cs),
(193,909,o),
(280,788,o),
(410,740,c),
(254,683,o),
(150,573,o),
(150,393,cs),
(150,123,o),
(377,-30,o),
(605,-30,cs)
);
},
{
closed = 1;
nodes = (
(411,54,o),
(234,158,o),
(234,374,cs),
(234,585,o),
(390,697,o),
(604,697,cs),
(805,697,o),
(975,594,o),
(975,375,cs),
(975,154,o),
(793,54,o),
(604,54,cs)
);
},
{
closed = 1;
nodes = (
(443,783,o),
(276,865,o),
(276,1054,cs),
(276,1248,o),
(436,1348,o),
(606,1348,cs),
(782,1348,o),
(936,1249,o),
(936,1054,cs),
(936,871,o),
(780,783,o),
(606,783,cs)
);
}
);
width = 1200;
}
);
leftKerningGroup = _plus2;
rightKerningGroup = _plus;
unicode = 56;
},
{
glyphname = nine;
layers = (
{
layerId = "88C73509-728C-4DC8-993B-4895D781EEEF";
shapes = (
{
closed = 1;
nodes = (
(237,-30,l),
(796,-30,o),
(1134,370,o),
(1134,845,cs),
(1134,1213,o),
(910,1440,o),
(597,1440,cs),
(278,1440,o),
(78,1229,o),
(78,967,cs),
(78,699,o),
(245,504,o),
(500,504,cs),
(585,504,o),
(653,529,o),
(710,568,c),
(640,387,o),
(452,283,o),
(168,283,c)
);
},
{
closed = 1;
nodes = (
(512,810,o),
(451,875,o),
(451,966,cs),
(451,1053,o),
(512,1120,o),
(596,1120,cs),
(680,1120,o),
(742,1054,o),
(742,966,cs),
(742,881,o),
(685,810,o),
(596,810,cs)
);
}
);
width = 1200;
},
{
layerId = "7609694B-C902-4DC8-BC2F-8BF204A4C5AE";
shapes = (
{
closed = 1;
nodes = (
(236,-30,l),
(774,-30,o),
(1093,364,o),
(1093,844,cs),
(1093,1223,o),
(883,1440,o),
(584,1440,cs),
(292,1440,o),
(93,1237,o),
(93,977,cs),
(93,711,o),
(283,524,o),
(537,524,cs),
(684,524,o),
(809,595,o),
(882,709,c),
(841,397,o),
(616,140,o),
(200,140,c)
);
},
{
closed = 1;
nodes = (
(419,696,o),
(292,819,o),
(292,980,cs),
(292,1145,o),
(413,1263,o),
(583,1263,cs),
(752,1263,o),
(875,1145,o),
(875,980,cs),
(875,821,o),
(748,696,o),
(583,696,cs)
);
}
);
width = 1200;
},
{
layerId = "90133A7B-8BB4-4C15-92F3-A0E8B30B2A31";
shapes = (
{
closed = 1;
nodes = (
(235,-30,l),
(761,-30,o),
(1068,361,o),
(1068,842,cs),
(1068,1229,o),
(865,1440,o),
(575,1440,cs),
(300,1440,o),
(102,1242,o),
(102,983,cs),
(102,717,o),
(307,534,o),
(559,534,cs),
(745,534,o),
(906,636,o),
(991,797,c),
(969,403,o),
(720,49,o),
(222,49,c)
);
},
{
closed = 1;
nodes = (
(359,623,o),
(191,781,o),
(191,989,cs),
(191,1201,o),
(350,1353,o),
(574,1353,cs),
(798,1353,o),
(959,1201,o),
(959,989,cs),
(959,781,o),
(788,623,o),
(574,623,cs)
);
}
);
width = 1200;
}
);
leftKerningGroup = _plus2;
rightKerningGroup = _plus;
unicode = 57;
},
{
glyphname = less;
layers = (
{
layerId = "88C73509-728C-4DC8-993B-4895D781EEEF";
shapes = (
{
closed = 1;
nodes = (
(1134,1186,l),
(68,764,l),
(68,494,l),
(1136,72,l),
(1236,328,l),
(488,630,l),
(1236,930,l)
);
}
);
width = 1296;
},
{
layerId = "7609694B-C902-4DC8-BC2F-8BF204A4C5AE";
shapes = (
{
closed = 1;
nodes = (
(1100,1115,l),
(146,729,l),
(146,584,l),
(1101,195,l),
(1160,343,l),
(380,657,l),
(1160,966,l)
);
}
);
width = 1296;
},
{
layerId = "90133A7B-8BB4-4C15-92F3-A0E8B30B2A31";
shapes = (
{
closed = 1;
nodes = (
(1079,1069,l),
(196,707,l),
(196,640,l),
(1079,273,l),
(1113,353,l),
(312,673,l),
(1113,989,l)
);
}
);
width = 1296;
}
);
leftKerningGroup = _plus2;
rightKerningGroup = _plus;
unicode = 60;
},
{
glyphname = equal;
layers = (
{
layerId = "88C73509-728C-4DC8-993B-4895D781EEEF";
shapes = (
{
closed = 1;
nodes = (
(68,782,l),
(1228,782,l),
(1228,1050,l),
(68,1050,l)
);
},
{
closed = 1;
nodes = (
(68,290,l),
(1228,290,l),
(1228,558,l),
(68,558,l)
);
}
);
width = 1296;
},
{
layerId = "7609694B-C902-4DC8-BC2F-8BF204A4C5AE";
shapes = (
{
closed = 1;
nodes = (
(146,776,l),
(1150,776,l),
(1150,924,l),
(146,924,l)
);
},
{
closed = 1;
nodes = (
(146,402,l),
(1150,402,l),
(1150,550,l),
(146,550,l)
);
}
);
width = 1296;
},
{
layerId = "90133A7B-8BB4-4C15-92F3-A0E8B30B2A31";
shapes = (
{
closed = 1;
nodes = (
(196,773,l),
(1100,773,l),
(1100,844,l),
(196,844,l)
);
},
{
closed = 1;
nodes = (
(196,473,l),
(1100,473,l),
(1100,544,l),
(196,544,l)
);
}
);
width = 1296;
}
);
leftKerningGroup = _plus2;
rightKerningGroup = _plus;
unicode = 61;
},
{
glyphname = greater;
layers = (
{
layerId = "88C73509-728C-4DC8-993B-4895D781EEEF";
shapes = (
{
closed = 1;
nodes = (
(162,72,l),
(1228,494,l),
(1228,764,l),
(160,1186,l),
(60,930,l),
(808,628,l),
(60,328,l)
);
}
);
width = 1296;
},
{
layerId = "7609694B-C902-4DC8-BC2F-8BF204A4C5AE";
shapes = (
{
closed = 1;
nodes = (
(196,195,l),
(1150,581,l),
(1150,726,l),
(195,1115,l),
(136,966,l),
(916,653,l),
(136,343,l)
);
}
);
width = 1296;
},
{
layerId = "90133A7B-8BB4-4C15-92F3-A0E8B30B2A31";
shapes = (
{
closed = 1;
nodes = (
(217,273,l),
(1100,636,l),
(1100,702,l),
(217,1069,l),
(183,989,l),
(984,669,l),
(183,353,l)
);
}
);
width = 1296;
}
);
leftKerningGroup = _plus2;
rightKerningGroup = _plus;
unicode = 62;
},
{
glyphname = question;
layers = (
{
guides = (
{
position = "{0, 1400}";
}
);
layerId = "88C73509-728C-4DC8-993B-4895D781EEEF";
shapes = (
{
closed = 1;
nodes = (
(677,553,l),
(598,612,o),
(582,639,o),
(582,673,cs),
(582,696,o),
(585,717,o),
(600,727,cs),
(712,801,ls),
(821,873,o),
(978,929,o),
(978,1113,cs),
(978,1360,o),
(704,1470,o),
(500,1470,cs),
(379,1470,o),
(133,1431,o),
(60,1354,c),
(134,1030,l),
(218,1073,o),
(286,1104,o),
(385,1104,cs),
(441,1104,o),
(492,1094,o),
(492,1033,cs),
(492,1003,o),
(483,978,o),
(461,963,cs),
(383,909,ls),
(313,860,o),
(227,815,o),
(227,699,cs),
(227,629,o),
(257,576,o),
(412,495,c)
);
},
{
closed = 1;
nodes = (
(596,-30,o),
(700,61,o),
(700,195,cs),
(700,328,o),
(598,416,o),
(465,416,cs),
(335,416,o),
(232,331,o),
(232,195,cs),
(232,58,o),
(335,-30,o),
(464,-30,cs)
);
}
);
width = 1052;
},
{
guides = (
{
position = "{0, 1400}";
}
);
layerId = "7609694B-C902-4DC8-BC2F-8BF204A4C5AE";
shapes = (
{
closed = 1;
nodes = (
(557,458,l),
(497,504,o),
(434,552,o),
(434,620,cs),
(434,656,o),
(456,685,o),
(517,724,cs),
(622,790,ls),
(791,897,o),
(895,989,o),
(895,1132,cs),
(895,1366,o),
(657,1470,o),
(441,1470,cs),
(320,1470,o),
(164,1437,o),
(72,1357,c),
(128,1199,l),
(209,1266,o),
(309,1291,o),
(411,1291,cs),
(542,1291,o),
(662,1246,o),
(662,1104,cs),
(662,1036,o),
(614,977,o),
(523,921,cs),
(435,866,ls),
(311,789,o),
(246,727,o),
(246,636,cs),
(246,532,o),
(329,466,o),
(415,417,c)
);
},
{
closed = 1;
nodes = (
(508,-30,o),
(572,24,o),
(572,106,cs),
(572,187,o),
(509,240,o),
(429,240,cs),
(350,240,o),
(287,188,o),
(287,107,cs),
(287,25,o),
(351,-30,o),
(430,-30,cs)
);
}
);
width = 977;
},
{
guides = (
{
position = "{0, 1400}";
}
);
layerId = "90133A7B-8BB4-4C15-92F3-A0E8B30B2A31";
shapes = (
{
closed = 1;
nodes = (
(478,390,l),
(432,426,o),
(333,490,o),
(333,582,cs),
(333,629,o),
(359,666,o),
(455,726,cs),
(554,787,ls),
(769,920,o),
(843,1029,o),
(843,1142,cs),
(843,1369,o),
(632,1470,o),
(410,1470,cs),
(289,1470,o),
(180,1440,o),
(78,1359,c),
(125,1292,l),
(203,1371,o),
(321,1393,o),
(424,1393,cs),
(594,1393,o),
(771,1326,o),
(771,1141,cs),
(771,1045,o),
(713,965,o),
(569,880,cs),
(474,823,ls),
(309,726,o),
(261,661,o),
(261,589,cs),
(261,458,o),
(383,384,o),
(417,358,c)
);
},
{
closed = 1;
nodes = (
(462,-30,o),
(504,5,o),
(504,59,cs),
(504,113,o),
(462,148,o),
(410,148,cs),
(358,148,o),
(315,113,o),
(315,61,cs),
(315,9,o),
(360,-30,o),
(412,-30,cs)
);
}
);
width = 937;
}
);
unicode = 63;
},
{
glyphname = at;
layers = (
{
layerId = "88C73509-728C-4DC8-993B-4895D781EEEF";
shapes = (
{
closed = 1;
nodes = (
(996,-234,o),
(1123,-208,o),
(1248,-156,cs),
(1308,-131,o),
(1365,-100,o),
(1418,-64,c),
(1338,116,l),
(1246,48,o),
(1142,2,o),
(1029,-21,cs),
(969,-34,o),
(913,-40,o),
(852,-40,cs),
(739,-40,o),
(640,-17,o),
(552,26,cs),
(464,70,o),
(399,129,o),
(351,209,c),
(302,286,o),
(278,376,o),
(278,480,cs),
(278,648,o),
(338,787,o),
(446,891,cs),
(554,996,o),
(696,1054,o),
(868,1054,cs),
(977,1054,o),
(1068,1035,o),
(1152,994,cs),
(1232,954,o),
(1295,898,o),
(1342,826,cs),
(1387,754,o),
(1410,673,o),
(1410,576,cs),
(1410,476,o),
(1388,407,o),
(1345,374,c),
(1321,354,o),
(1296,346,o),
(1264,346,cs),
(1235,346,o),
(1213,354,o),
(1197,374,cs),
(1184,391,o),
(1175,415,o),
(1178,450,c),
(1200,840,l),
(1014,840,l),
(1012,788,l),
(948,841,o),
(882,866,o),
(802,866,cs),
(730,866,o),
(671,851,o),
(615,818,cs),
(559,785,o),
(519,741,o),
(488,685,cs),
(456,629,o),
(440,564,o),
(440,492,cs),
(440,359,o),
(500,257,o),
(600,197,c),
(652,169,o),
(706,154,o),
(774,154,cs),
(875,154,o),
(946,186,o),
(1018,262,c),
(1062,193,o),
(1140,154,o),
(1244,154,cs),
(1313,154,o),
(1375,172,o),
(1432,211,c),
(1492,250,o),
(1535,300,o),
(1568,364,cs),
(1601,429,o),
(1618,499,o),
(1618,576,cs),
(1618,709,o),
(1589,823,o),
(1525,924,cs),
(1460,1024,o),
(1375,1102,o),
(1262,1159,cs),
(1149,1215,o),
(1023,1242,o),
(874,1242,cs),
(642,1242,o),
(444,1165,o),
(299,1028,cs),
(154,891,o),
(70,706,o),
(70,486,cs),
(70,345,o),
(102,220,o),
(170,112,cs),
(239,4,o),
(327,-82,o),
(447,-142,c),
(567,-206,o),
(700,-234,o),
(856,-234,cs)
);
},
{
closed = 1;
nodes = (
(732,366,o),
(688,414,o),
(688,490,cs),
(688,539,o),
(701,579,o),
(728,608,c),
(752,637,o),
(785,652,o),
(828,652,cs),
(900,652,o),
(942,609,o),
(942,528,cs),
(942,479,o),
(929,440,o),
(905,411,c),
(878,382,o),
(843,366,o),
(800,366,cs)
);
}
);
width = 1688;
},
{
layerId = "7609694B-C902-4DC8-BC2F-8BF204A4C5AE";
shapes = (
{
closed = 1;
nodes = (
(1003,-234,o),
(1138,-208,o),
(1260,-158,cs),
(1320,-135,o),
(1370,-105,o),
(1414,-74,c),
(1362,36,l),
(1287,-26,o),
(1178,-72,o),
(1057,-96,c),
(993,-111,o),
(934,-116,o),
(870,-116,cs),
(743,-116,o),
(633,-89,o),
(534,-40,c),
(437,13,o),
(364,81,o),
(310,174,c),
(253,264,o),
(228,366,o),
(228,487,cs),
(228,672,o),
(296,827,o),
(415,943,c),
(535,1061,o),
(692,1125,o),
(881,1125,cs),
(1003,1125,o),
(1104,1104,o),
(1198,1056,cs),
(1289,1010,o),
(1358,944,o),
(1411,861,c),
(1461,778,o),
(1487,684,o),
(1487,573,cs),
(1487,445,o),
(1450,347,o),
(1387,295,c),
(1354,267,o),
(1320,254,o),
(1279,254,cs),
(1232,254,o),
(1202,266,o),
(1183,292,c),
(1167,317,o),
(1158,356,o),
(1161,411,cs),
(1185,857,l),
(1059,857,l),
(1055,777,l),
(991,849,o),
(918,883,o),
(823,883,cs),
(756,883,o),
(697,866,o),
(643,831,cs),
(589,796,o),
(548,749,o),
(517,689,c),
(484,630,o),
(468,564,o),
(468,489,cs),
(468,353,o),
(527,248,o),
(621,184,c),
(670,156,o),
(720,139,o),
(782,139,cs),
(903,139,o),
(996,187,o),
(1054,277,c),
(1078,192,o),
(1148,139,o),
(1264,139,cs),
(1329,139,o),
(1387,157,o),
(1440,196,cs),
(1495,235,o),
(1538,285,o),
(1568,351,cs),
(1600,419,o),
(1615,492,o),
(1615,575,cs),
(1615,708,o),
(1585,820,o),
(1523,924,c),
(1459,1024,o),
(1374,1102,o),
(1263,1159,cs),
(1154,1215,o),
(1029,1242,o),
(882,1242,cs),
(657,1242,o),
(465,1165,o),
(323,1028,cs),
(181,891,o),
(99,705,o),
(99,485,cs),
(99,342,o),
(130,218,o),
(195,110,cs),
(261,2,o),
(348,-83,o),
(462,-143,cs),
(578,-205,o),
(709,-234,o),
(860,-234,cs)
);
},
{
closed = 1;
nodes = (
(683,269,o),
(615,346,o),
(615,486,cs),
(615,568,o),
(636,633,o),
(676,681,c),
(714,729,o),
(768,751,o),
(836,751,cs),
(960,751,o),
(1025,679,o),
(1025,538,cs),
(1025,453,o),
(1006,390,o),
(968,342,cs),
(928,294,o),
(873,269,o),
(804,269,cs)
);
}
);
width = 1715;
},
{
layerId = "90133A7B-8BB4-4C15-92F3-A0E8B30B2A31";
shapes = (
{
closed = 1;
nodes = (
(1007,-234,o),
(1147,-207,o),
(1267,-159,c),
(1327,-137,o),
(1373,-108,o),
(1411,-80,c),
(1377,-14,l),
(1312,-73,o),
(1200,-119,o),
(1073,-143,c),
(1008,-158,o),
(947,-163,o),
(882,-163,cs),
(746,-163,o),
(629,-135,o),
(522,-81,c),
(419,-24,o),
(341,51,o),
(283,151,c),
(222,249,o),
(196,359,o),
(196,491,cs),
(196,687,o),
(268,852,o),
(396,976,c),
(523,1102,o),
(689,1171,o),
(889,1171,cs),
(1019,1171,o),
(1127,1147,o),
(1226,1095,c),
(1324,1044,o),
(1397,973,o),
(1454,883,c),
(1508,793,o),
(1536,691,o),
(1536,571,cs),
(1536,424,o),
(1489,309,o),
(1412,245,c),
(1375,211,o),
(1335,195,o),
(1289,195,cs),
(1229,195,o),
(1195,210,o),
(1174,240,c),
(1157,270,o),
(1148,318,o),
(1151,386,cs),
(1175,867,l),
(1087,867,l),
(1083,770,l),
(1019,855,o),
(940,893,o),
(836,893,cs),
(772,893,o),
(713,876,o),
(661,839,cs),
(608,802,o),
(566,753,o),
(535,692,c),
(502,631,o),
(486,564,o),
(486,487,cs),
(486,350,o),
(543,242,o),
(634,176,c),
(682,147,o),
(729,129,o),
(788,129,cs),
(919,129,o),
(1028,188,o),
(1077,287,c),
(1088,191,o),
(1152,129,o),
(1276,129,cs),
(1339,129,o),
(1394,147,o),
(1446,186,cs),
(1497,225,o),
(1540,275,o),
(1568,343,c),
(1599,413,o),
(1613,488,o),
(1613,574,cs),
(1613,707,o),
(1582,818,o),
(1521,923,c),
(1458,1023,o),
(1373,1101,o),
(1264,1158,cs),
(1157,1214,o),
(1032,1242,o),
(888,1242,cs),
(666,1242,o),
(478,1164,o),
(338,1027,cs),
(197,890,o),
(118,704,o),
(118,484,cs),
(118,339,o),
(148,216,o),
(211,108,cs),
(276,0,o),
(360,-83,o),
(472,-143,cs),
(584,-204,o),
(715,-234,o),
(863,-234,cs)
);
},
{
closed = 1;
nodes = (
(651,208,o),
(569,303,o),
(569,483,cs),
(569,587,o),
(595,667,o),
(642,727,cs),
(689,787,o),
(756,814,o),
(842,814,cs),
(997,814,o),
(1077,723,o),
(1077,544,cs),
(1077,437,o),
(1053,358,o),
(1007,298,cs),
(959,238,o),
(892,208,o),
(807,208,cs)
);
}
);
width = 1731;
}
);
rightKerningGroup = _at;
unicode = 64;
},
{
glyphname = A;
layers = (
{
layerId = "88C73509-728C-4DC8-993B-4895D781EEEF";
shapes = (
{
closed = 1;
nodes = (
(0,0,l),
(447,0,l),
(526,252,l),
(971,252,l),
(1049,0,l),
(1508,0,l),
(997,1410,l),
(514,1410,l)
);
},
{
closed = 1;
nodes = (
(612,588,l),
(749,991,l),
(882,588,l)
);
}
);
width = 1498;
},
{
layerId = "7609694B-C902-4DC8-BC2F-8BF204A4C5AE";
shapes = (
{
closed = 1;
nodes = (
(25,0,l),
(249,0,l),
(379,346,l),
(995,346,l),
(1131,0,l),
(1360,0,l),
(792,1410,l),
(577,1410,l)
);
},
{
closed = 1;
nodes = (
(435,524,l),
(680,1163,l),
(937,524,l)
);
}
);
width = 1376;
},
{
layerId = "90133A7B-8BB4-4C15-92F3-A0E8B30B2A31";
shapes = (
{
closed = 1;
nodes = (
(41,0,l),
(123,0,l),
(286,406,l),
(1010,406,l),
(1183,0,l),
(1267,0,l),
(664,1410,l),
(617,1410,l)
);
},
{
closed = 1;
nodes = (
(322,482,l),
(636,1272,l),
(972,482,l)
);
}
);
width = 1299;
}
);
leftKerningGroup = _A2;
rightKerningGroup = _A;
unicode = 65;
},
{
glyphname = B;
layers = (
{
layerId = "88C73509-728C-4DC8-993B-4895D781EEEF";
shapes = (
{
closed = 1;
nodes = (
(157,0,l),
(751,0,ls),
(978,0,o),
(1139,69,o),
(1227,198,c),
(1271,264,o),
(1293,336,o),
(1293,425,cs),
(1293,509,o),
(1272,579,o),
(1228,643,c),
(1183,708,o),
(1126,752,o),
(1049,779,c),
(1086,798,o),
(1119,822,o),
(1146,849,cs),
(1173,876,o),
(1195,903,o),
(1210,938,c),
(1223,974,o),
(1232,1010,o),
(1232,1051,cs),
(1232,1172,o),
(1189,1260,o),
(1101,1320,cs),
(1012,1380,o),
(898,1410,o),
(745,1410,cs),
(157,1410,l)
);
},
{
closed = 1;
nodes = (
(564,292,l),
(564,578,l),
(717,578,ls),
(815,578,o),
(868,524,o),
(868,435,cs),
(868,342,o),
(813,292,o),
(697,292,cs)
);
},
{
closed = 1;
nodes = (
(564,848,l),
(564,1118,l),
(687,1118,ls),
(787,1118,o),
(840,1069,o),
(840,985,cs),
(840,927,o),
(817,885,o),
(772,864,c),
(751,853,o),
(724,848,o),
(693,848,cs)
);
}
);
width = 1354;
},
{
layerId = "7609694B-C902-4DC8-BC2F-8BF204A4C5AE";
shapes = (
{
closed = 1;
nodes = (
(188,0,l),
(684,0,ls),
(881,0,o),
(1022,71,o),
(1100,190,c),
(1137,252,o),
(1156,315,o),
(1156,393,cs),
(1156,485,o),
(1132,563,o),
(1080,625,cs),
(1026,690,o),
(964,731,o),
(884,752,c),
(923,766,o),
(958,789,o),
(992,821,cs),
(1026,851,o),
(1054,885,o),
(1076,925,c),
(1097,968,o),
(1107,1009,o),
(1107,1054,cs),
(1107,1173,o),
(1066,1260,o),
(984,1320,cs),
(900,1380,o),
(796,1410,o),
(660,1410,cs),
(188,1410,l)
);
},
{
closed = 1;
nodes = (
(392,164,l),
(392,645,l),
(640,645,ls),
(851,645,o),
(946,561,o),
(946,403,cs),
(946,241,o),
(852,164,o),
(647,164,cs)
);
},
{
closed = 1;
nodes = (
(392,802,l),
(392,1246,l),
(623,1246,ls),
(809,1246,o),
(907,1172,o),
(907,1033,cs),
(907,935,o),
(860,867,o),
(775,830,cs),
(734,812,o),
(684,802,o),
(626,802,cs)
);
}
);
width = 1260;
},
{
layerId = "90133A7B-8BB4-4C15-92F3-A0E8B30B2A31";
shapes = (
{
closed = 1;
nodes = (
(207,0,l),
(640,0,ls),
(820,0,o),
(947,72,o),
(1018,184,c),
(1052,244,o),
(1069,302,o),
(1069,372,cs),
(1069,470,o),
(1044,553,o),
(986,613,c),
(926,678,o),
(861,716,o),
(780,736,c),
(820,745,o),
(855,768,o),
(894,801,cs),
(932,835,o),
(964,873,o),
(991,917,c),
(1015,964,o),
(1028,1008,o),
(1028,1056,cs),
(1028,1173,o),
(989,1260,o),
(909,1320,cs),
(831,1380,o),
(731,1410,o),
(605,1410,cs),
(207,1410,l)
);
},
{
closed = 1;
nodes = (
(283,83,l),
(283,689,l),
(593,689,ls),
(873,689,o),
(997,584,o),
(997,382,cs),
(997,175,o),
(877,83,o),
(616,83,cs)
);
},
{
closed = 1;
nodes = (
(283,774,l),
(283,1327,l),
(583,1327,ls),
(821,1327,o),
(951,1236,o),
(951,1063,cs),
(951,941,o),
(887,855,o),
(777,809,cs),
(724,786,o),
(659,774,o),
(585,774,cs)
);
}
);
width = 1201;
}
);
leftKerningGroup = _B2;
rightKerningGroup = _B;
unicode = 66;
},
{
glyphname = C;
layers = (
{
layerId = "88C73509-728C-4DC8-993B-4895D781EEEF";
shapes = (
{
closed = 1;
nodes = (
(951,-30,o),
(1058,-13,o),
(1151,18,cs),
(1245,51,o),
(1321,91,o),
(1385,139,c),
(1200,479,l),
(1091,403,o),
(972,367,o),
(854,367,cs),
(704,367,o),
(596,423,o),
(540,525,cs),
(513,574,o),
(497,632,o),
(497,705,cs),
(497,810,o),
(529,892,o),
(590,953,cs),
(650,1013,o),
(736,1043,o),
(850,1043,cs),
(980,1043,o),
(1083,1006,o),
(1156,924,c),
(1355,1259,l),
(1287,1316,o),
(1213,1361,o),
(1133,1394,c),
(1052,1423,o),
(950,1440,o),
(824,1440,cs),
(603,1440,o),
(420,1368,o),
(283,1234,cs),
(146,1101,o),
(70,921,o),
(70,699,cs),
(70,549,o),
(102,421,o),
(167,312,c),
(232,199,o),
(316,120,o),
(430,58,cs),
(544,-2,o),
(672,-30,o),
(818,-30,cs)
);
}
);
width = 1406;
},
{
layerId = "7609694B-C902-4DC8-BC2F-8BF204A4C5AE";
shapes = (
{
closed = 1;
nodes = (
(936,-30,o),
(1029,-15,o),
(1116,11,c),
(1203,40,o),
(1278,80,o),
(1347,133,c),
(1253,306,l),
(1135,209,o),
(1004,168,o),
(855,168,cs),
(633,168,o),
(467,254,o),
(379,417,cs),
(336,496,o),
(313,591,o),
(313,706,cs),
(313,874,o),
(363,1006,o),
(458,1101,c),
(551,1194,o),
(681,1244,o),
(844,1244,cs),
(991,1244,o),
(1111,1206,o),
(1199,1122,c),
(1307,1288,l),
(1251,1337,o),
(1183,1374,o),
(1106,1402,c),
(1027,1427,o),
(935,1440,o),
(830,1440,cs),
(616,1440,o),
(438,1368,o),
(305,1234,c),
(174,1098,o),
(100,922,o),
(100,705,cs),
(100,556,o),
(130,430,o),
(192,319,c),
(254,205,o),
(335,125,o),
(445,61,c),
(557,1,o),
(682,-30,o),
(828,-30,cs)
);
}
);
width = 1396;
},
{
layerId = "90133A7B-8BB4-4C15-92F3-A0E8B30B2A31";
shapes = (
{
closed = 1;
nodes = (
(926,-30,o),
(1010,-16,o),
(1093,7,c),
(1176,33,o),
(1250,72,o),
(1323,130,c),
(1286,196,l),
(1162,88,o),
(1023,42,o),
(856,42,cs),
(587,42,o),
(386,146,o),
(278,348,cs),
(225,447,o),
(196,564,o),
(196,707,cs),
(196,914,o),
(260,1077,o),
(375,1193,c),
(487,1308,o),
(645,1369,o),
(841,1369,cs),
(998,1369,o),
(1127,1332,o),
(1227,1247,c),
(1277,1307,l),
(1227,1349,o),
(1164,1382,o),
(1087,1406,c),
(1011,1429,o),
(925,1440,o),
(833,1440,cs),
(624,1440,o),
(448,1367,o),
(320,1233,c),
(190,1096,o),
(119,923,o),
(119,708,cs),
(119,559,o),
(146,436,o),
(207,322,cs),
(267,208,o),
(347,128,o),
(455,63,c),
(565,3,o),
(688,-30,o),
(834,-30,cs)
);
}
);
width = 1390;
}
);
leftKerningGroup = _C2;
rightKerningGroup = _C;
unicode = 67;
},
{
glyphname = D;
layers = (
{
layerId = "88C73509-728C-4DC8-993B-4895D781EEEF";
shapes = (
{
closed = 1;
nodes = (
(157,0,l),
(669,0,ls),
(898,0,o),
(1080,69,o),
(1214,195,cs),
(1348,320,o),
(1420,491,o),
(1420,705,cs),
(1420,847,o),
(1391,969,o),
(1326,1073,cs),
(1262,1179,o),
(1178,1261,o),
(1064,1321,cs),
(947,1381,o),
(819,1410,o),
(669,1410,cs),
(157,1410,l)
);
},
{
closed = 1;
nodes = (
(564,379,l),
(564,1031,l),
(659,1031,ls),
(792,1031,o),
(894,986,o),
(952,889,c),
(979,840,o),
(993,781,o),
(993,705,cs),
(993,595,o),
(961,516,o),
(900,459,c),
(840,406,o),
(760,379,o),
(659,379,cs)
);
}
);
width = 1480;
},
{
layerId = "7609694B-C902-4DC8-BC2F-8BF204A4C5AE";
shapes = (
{
closed = 1;
nodes = (
(188,0,l),
(620,0,ls),
(832,0,o),
(1004,74,o),
(1133,199,cs),
(1261,324,o),
(1331,495,o),
(1331,704,cs),
(1331,843,o),
(1302,966,o),
(1241,1070,cs),
(1178,1176,o),
(1098,1260,o),
(991,1320,cs),
(881,1380,o),
(759,1410,o),
(620,1410,cs),
(188,1410,l)
);
},
{
closed = 1;
nodes = (
(392,189,l),
(392,1220,l),
(591,1220,ls),
(807,1220,o),
(966,1136,o),
(1054,981,c),
(1097,900,o),
(1119,812,o),
(1119,704,cs),
(1119,544,o),
(1067,419,o),
(974,329,cs),
(879,239,o),
(753,189,o),
(591,189,cs)
);
}
);
width = 1421;
},
{
layerId = "90133A7B-8BB4-4C15-92F3-A0E8B30B2A31";
shapes = (
{
closed = 1;
nodes = (
(207,0,l),
(590,0,ls),
(788,0,o),
(957,76,o),
(1080,201,cs),
(1205,327,o),
(1275,498,o),
(1275,703,cs),
(1275,840,o),
(1246,963,o),
(1186,1068,cs),
(1126,1174,o),
(1047,1259,o),
(943,1319,cs),
(840,1379,o),
(722,1410,o),
(590,1410,cs),
(207,1410,l)
);
},
{
closed = 1;
nodes = (
(283,70,l),
(283,1339,l),
(548,1339,ls),
(815,1339,o),
(1010,1230,o),
(1119,1037,c),
(1171,938,o),
(1197,831,o),
(1197,703,cs),
(1197,510,o),
(1136,357,o),
(1020,247,cs),
(904,133,o),
(749,70,o),
(548,70,cs)
);
}
);
width = 1384;
}
);
leftKerningGroup = _B2;
rightKerningGroup = _D;
unicode = 68;
},
{
glyphname = E;
layers = (
{
layerId = "88C73509-728C-4DC8-993B-4895D781EEEF";
shapes = (
{
closed = 1;
nodes = (
(157,0,l),
(1210,0,l),
(1210,354,l),
(564,354,l),
(564,556,l),
(1087,556,l),
(1087,876,l),
(564,876,l),
(564,1059,l),
(1202,1059,l),
(1202,1410,l),
(157,1410,l)
);
}
);
width = 1306;
},
{
layerId = "7609694B-C902-4DC8-BC2F-8BF204A4C5AE";
shapes = (
{
closed = 1;
nodes = (
(188,0,l),
(1089,0,l),
(1089,182,l),
(392,182,l),
(392,651,l),
(992,651,l),
(992,824,l),
(392,824,l),
(392,1228,l),
(1082,1228,l),
(1082,1410,l),
(188,1410,l)
);
}
);
width = 1218;
},
{
layerId = "90133A7B-8BB4-4C15-92F3-A0E8B30B2A31";
shapes = (
{
closed = 1;
nodes = (
(207,0,l),
(1013,0,l),
(1013,74,l),
(283,74,l),
(283,712,l),
(931,712,l),
(931,790,l),
(283,790,l),
(283,1335,l),
(1007,1335,l),
(1007,1410,l),
(207,1410,l)
);
}
);
width = 1162;
}
);
leftKerningGroup = _B2;
rightKerningGroup = _E;
unicode = 69;
},
{
glyphname = F;
layers = (
{
layerId = "88C73509-728C-4DC8-993B-4895D781EEEF";
shapes = (
{
closed = 1;
nodes = (
(157,0,l),
(564,0,l),
(564,469,l),
(1061,469,l),
(1061,824,l),
(564,824,l),
(564,1039,l),
(1124,1039,l),
(1124,1410,l),
(157,1410,l)
);
}
);
width = 1216;
},
{
layerId = "7609694B-C902-4DC8-BC2F-8BF204A4C5AE";
shapes = (
{
closed = 1;
nodes = (
(188,0,l),
(392,0,l),
(392,611,l),
(987,611,l),
(987,794,l),
(392,794,l),
(392,1222,l),
(1047,1222,l),
(1047,1410,l),
(188,1410,l)
);
}
);
width = 1157;
},
{
layerId = "90133A7B-8BB4-4C15-92F3-A0E8B30B2A31";
shapes = (
{
closed = 1;
nodes = (
(207,0,l),
(283,0,l),
(283,702,l),
(939,702,l),
(939,775,l),
(283,775,l),
(283,1338,l),
(1000,1338,l),
(1000,1410,l),
(207,1410,l)
);
}
);
width = 1120;
}
);
leftKerningGroup = _B2;
rightKerningGroup = _F;
unicode = 70;
},
{
glyphname = G;
layers = (
{
layerId = "88C73509-728C-4DC8-993B-4895D781EEEF";
shapes = (
{
closed = 1;
nodes = (
(926,-30,o),
(981,-25,o),
(1045,-16,cs),
(1107,-8,o),
(1167,7,o),
(1227,23,c),
(1288,42,o),
(1341,61,o),
(1385,85,c),
(1385,844,l),
(765,844,l),
(765,526,l),
(1033,526,l),
(1033,336,l),
(989,328,o),
(939,320,o),
(896,320,cs),
(750,320,o),
(622,374,o),
(546,487,cs),
(508,544,o),
(489,615,o),
(489,701,cs),
(489,822,o),
(526,911,o),
(594,976,cs),
(663,1041,o),
(762,1075,o),
(888,1075,cs),
(1010,1075,o),
(1108,1047,o),
(1200,987,c),
(1367,1300,l),
(1246,1377,o),
(1127,1414,o),
(1013,1429,cs),
(957,1436,o),
(907,1440,o),
(856,1440,cs),
(638,1440,o),
(449,1373,o),
(303,1244,cs),
(154,1114,o),
(70,935,o),
(70,705,cs),
(70,472,o),
(161,291,o),
(311,165,cs),
(460,36,o),
(652,-30,o),
(870,-30,cs)
);
}
);
width = 1512;
},
{
layerId = "7609694B-C902-4DC8-BC2F-8BF204A4C5AE";
shapes = (
{
closed = 1;
nodes = (
(933,-30,o),
(982,-25,o),
(1042,-16,cs),
(1100,-7,o),
(1156,9,o),
(1210,26,c),
(1266,46,o),
(1313,65,o),
(1346,91,c),
(1346,737,l),
(793,737,l),
(793,565,l),
(1161,565,l),
(1161,206,l),
(1109,179,o),
(1013,151,o),
(895,151,cs),
(663,151,o),
(485,239,o),
(385,404,cs),
(334,487,o),
(310,585,o),
(310,704,cs),
(310,876,o),
(364,1009,o),
(461,1104,cs),
(558,1200,o),
(696,1252,o),
(866,1252,cs),
(993,1252,o),
(1116,1219,o),
(1220,1153,c),
(1310,1314,l),
(1222,1377,o),
(1123,1411,o),
(1017,1428,cs),
(965,1436,o),
(915,1440,o),
(863,1440,cs),
(639,1440,o),
(456,1370,o),
(318,1237,c),
(177,1107,o),
(100,927,o),
(100,702,cs),
(100,478,o),
(182,299,o),
(326,170,c),
(467,38,o),
(660,-30,o),
(885,-30,cs)
);
}
);
width = 1504;
},
{
layerId = "90133A7B-8BB4-4C15-92F3-A0E8B30B2A31";
shapes = (
{
closed = 1;
nodes = (
(936,-30,o),
(983,-24,o),
(1039,-15,cs),
(1096,-6,o),
(1149,10,o),
(1200,28,c),
(1251,48,o),
(1294,68,o),
(1321,94,c),
(1321,669,l),
(812,669,l),
(812,590,l),
(1243,590,l),
(1243,125,l),
(1184,85,o),
(1059,44,o),
(894,44,cs),
(607,44,o),
(398,153,o),
(284,351,c),
(225,450,o),
(197,566,o),
(197,706,cs),
(197,910,o),
(264,1070,o),
(378,1185,cs),
(492,1301,o),
(652,1363,o),
(851,1363,cs),
(983,1363,o),
(1122,1328,o),
(1232,1259,c),
(1273,1323,l),
(1207,1377,o),
(1120,1409,o),
(1020,1427,cs),
(969,1436,o),
(919,1440,o),
(867,1440,cs),
(640,1440,o),
(459,1367,o),
(327,1234,c),
(192,1101,o),
(119,921,o),
(119,700,cs),
(119,481,o),
(195,303,o),
(335,173,c),
(471,39,o),
(663,-30,o),
(895,-30,cs)
);
}
);
width = 1498;
}
);
leftKerningGroup = _C2;
rightKerningGroup = _G;
unicode = 71;
},
{
glyphname = H;
layers = (
{
layerId = "88C73509-728C-4DC8-993B-4895D781EEEF";
shapes = (
{
closed = 1;
nodes = (
(157,0,l),
(564,0,l),
(564,542,l),
(1035,542,l),
(1035,0,l),
(1442,0,l),
(1442,1410,l),
(1035,1410,l),
(1035,912,l),
(564,912,l),
(564,1410,l),
(157,1410,l)
);
}
);
width = 1588;
},
{
layerId = "7609694B-C902-4DC8-BC2F-8BF204A4C5AE";
shapes = (
{
closed = 1;
nodes = (
(188,0,l),
(392,0,l),
(392,654,l),
(1100,654,l),
(1100,0,l),
(1304,0,l),
(1304,1410,l),
(1100,1410,l),
(1100,842,l),
(392,842,l),
(392,1410,l),
(188,1410,l)
);
}
);
width = 1482;
},
{
layerId = "90133A7B-8BB4-4C15-92F3-A0E8B30B2A31";
shapes = (
{
closed = 1;
nodes = (
(207,0,l),
(283,0,l),
(283,726,l),
(1141,726,l),
(1141,0,l),
(1216,0,l),
(1216,1410,l),
(1141,1410,l),
(1141,797,l),
(283,797,l),
(283,1410,l),
(207,1410,l)
);
}
);
width = 1414;
}
);
leftKerningGroup = _B2;
rightKerningGroup = _H;
unicode = 72;
},
{
glyphname = I;
layers = (
{
layerId = "88C73509-728C-4DC8-993B-4895D781EEEF";
shapes = (
{
closed = 1;
nodes = (
(157,0,l),
(564,0,l),
(564,1410,l),
(157,1410,l)
);
}
);
width = 716;
},
{
layerId = "7609694B-C902-4DC8-BC2F-8BF204A4C5AE";
shapes = (
{
closed = 1;
nodes = (
(188,0,l),
(392,0,l),
(392,1410,l),
(188,1410,l)
);
}
);
width = 576;
},
{
layerId = "90133A7B-8BB4-4C15-92F3-A0E8B30B2A31";
shapes = (
{
closed = 1;
nodes = (
(204,0,l),
(286,0,l),
(286,1410,l),
(204,1410,l)
);
}
);
width = 488;
}
);
leftKerningGroup = _B2;
rightKerningGroup = _H;
unicode = 73;
},
{
glyphname = J;
layers = (
{
layerId = "88C73509-728C-4DC8-993B-4895D781EEEF";
shapes = (
{
closed = 1;
nodes = (
(652,-30,o),
(808,53,o),
(892,202,cs),
(932,275,o),
(953,354,o),
(953,451,cs),
(953,1410,l),
(546,1410,l),
(546,542,ls),
(546,405,o),
(477,340,o),
(369,340,cs),
(292,340,o),
(212,369,o),
(115,421,c),
(1,95,l),
(110,18,o),
(253,-30,o),
(427,-30,cs)
);
}
);
width = 1100;
},
{
layerId = "7609694B-C902-4DC8-BC2F-8BF204A4C5AE";
shapes = (
{
closed = 1;
nodes = (
(561,-30,o),
(695,40,o),
(765,169,c),
(798,234,o),
(816,305,o),
(816,391,cs),
(816,1410,l),
(612,1410,l),
(612,421,ls),
(612,236,o),
(517,157,o),
(340,157,cs),
(261,157,o),
(183,183,o),
(105,228,c),
(37,59,l),
(135,2,o),
(243,-30,o),
(364,-30,cs)
);
}
);
width = 995;
},
{
layerId = "90133A7B-8BB4-4C15-92F3-A0E8B30B2A31";
shapes = (
{
closed = 1;
nodes = (
(501,-30,o),
(622,31,o),
(684,148,cs),
(714,206,o),
(732,273,o),
(732,352,cs),
(732,1410,l),
(650,1410,l),
(650,344,ls),
(650,129,o),
(542,46,o),
(322,46,cs),
(240,46,o),
(164,70,o),
(99,111,c),
(59,37,l),
(150,-8,o),
(236,-30,o),
(325,-30,cs)
);
}
);
width = 929;
}
);
leftKerningGroup = _J2;
rightKerningGroup = _J;
unicode = 74;
},
{
glyphname = K;
layers = (
{
layerId = "88C73509-728C-4DC8-993B-4895D781EEEF";
shapes = (
{
closed = 1;
nodes = (
(157,0,l),
(564,0,l),
(564,314,l),
(689,449,l),
(1021,0,l),
(1543,0,l),
(957,755,l),
(1482,1410,l),
(973,1410,l),
(564,888,l),
(564,1410,l),
(157,1410,l)
);
}
);
width = 1522;
},
{
layerId = "7609694B-C902-4DC8-BC2F-8BF204A4C5AE";
shapes = (
{
closed = 1;
nodes = (
(188,0,l),
(392,0,l),
(392,372,l),
(597,617,l),
(1062,0,l),
(1325,0,l),
(731,773,l),
(1246,1410,l),
(995,1410,l),
(392,664,l),
(392,1410,l),
(188,1410,l)
);
}
);
width = 1376;
},
{
layerId = "90133A7B-8BB4-4C15-92F3-A0E8B30B2A31";
shapes = (
{
closed = 1;
nodes = (
(207,0,l),
(283,0,l),
(283,409,l),
(539,723,l),
(1087,0,l),
(1188,0,l),
(588,785,l),
(1096,1410,l),
(1010,1410,l),
(283,523,l),
(283,1410,l),
(207,1410,l)
);
}
);
width = 1284;
}
);
leftKerningGroup = _B2;
rightKerningGroup = _K;
unicode = 75;
},
{
glyphname = L;
layers = (
{
layerId = "88C73509-728C-4DC8-993B-4895D781EEEF";
shapes = (
{
closed = 1;
nodes = (
(157,0,l),
(1098,0,l),
(1098,371,l),
(564,371,l),
(564,1410,l),
(157,1410,l)
);
}
);
width = 1150;
},
{
layerId = "7609694B-C902-4DC8-BC2F-8BF204A4C5AE";
shapes = (
{
closed = 1;
nodes = (
(188,0,l),
(1016,0,l),
(1016,187,l),
(392,187,l),
(392,1410,l),
(188,1410,l)
);
}
);
width = 1083;
},
{
layerId = "90133A7B-8BB4-4C15-92F3-A0E8B30B2A31";
shapes = (
{
closed = 1;
nodes = (
(207,0,l),
(964,0,l),
(964,71,l),
(283,71,l),
(283,1410,l),
(207,1410,l)
);
}
);
width = 1040;
}
);
leftKerningGroup = _B2;
rightKerningGroup = _L;
unicode = 76;
},
{
glyphname = M;
layers = (
{
layerId = "88C73509-728C-4DC8-993B-4895D781EEEF";
shapes = (
{
closed = 1;
nodes = (
(157,0,l),
(530,0,l),
(522,898,l),
(451,872,l),
(830,240,l),
(1091,240,l),
(1450,872,l),
(1379,898,l),
(1371,0,l),
(1764,0,l),
(1764,1410,l),
(1373,1410,l),
(894,550,l),
(1057,552,l),
(548,1410,l),
(157,1410,l)
);
}
);
width = 1908;
},
{
layerId = "7609694B-C902-4DC8-BC2F-8BF204A4C5AE";
shapes = (
{
closed = 1;
nodes = (
(188,0,l),
(375,0,l),
(373,1135,l),
(339,1122,l),
(841,311,l),
(994,311,l),
(1488,1122,l),
(1449,1135,l),
(1446,0,l),
(1645,0,l),
(1645,1410,l),
(1452,1410,l),
(890,464,l),
(969,464,l),
(386,1410,l),
(188,1410,l)
);
}
);
width = 1821;
},
{
layerId = "90133A7B-8BB4-4C15-92F3-A0E8B30B2A31";
shapes = (
{
closed = 1;
nodes = (
(207,0,l),
(277,0,l),
(278,1285,l),
(270,1279,l),
(848,357,l),
(932,357,l),
(1512,1279,l),
(1492,1285,l),
(1493,0,l),
(1571,0,l),
(1571,1410,l),
(1502,1410,l),
(887,410,l),
(912,409,l),
(283,1410,l),
(207,1410,l)
);
}
);
width = 1766;
}
);
leftKerningGroup = _B2;
rightKerningGroup = _H;
unicode = 77;
},
{
glyphname = N;
layers = (
{
layerId = "88C73509-728C-4DC8-993B-4895D781EEEF";
shapes = (
{
closed = 1;
nodes = (
(157,0,l),
(550,0,l),
(550,769,l),
(1043,0,l),
(1450,0,l),
(1450,1410,l),
(1057,1410,l),
(1057,652,l),
(564,1410,l),
(157,1410,l)
);
}
);
width = 1596;
},
{
layerId = "7609694B-C902-4DC8-BC2F-8BF204A4C5AE";
shapes = (
{
closed = 1;
nodes = (
(188,0,l),
(388,0,l),
(388,1068,l),
(1125,0,l),
(1317,0,l),
(1317,1410,l),
(1118,1410,l),
(1118,353,l),
(381,1410,l),
(188,1410,l)
);
}
);
width = 1495;
},
{
layerId = "90133A7B-8BB4-4C15-92F3-A0E8B30B2A31";
shapes = (
{
closed = 1;
nodes = (
(207,0,l),
(285,0,l),
(285,1257,l),
(1177,0,l),
(1233,0,l),
(1233,1410,l),
(1156,1410,l),
(1156,165,l),
(265,1410,l),
(207,1410,l)
);
}
);
width = 1432;
}
);
leftKerningGroup = _B2;
rightKerningGroup = _H;
unicode = 78;
},
{
glyphname = O;
layers = (
{
layerId = "88C73509-728C-4DC8-993B-4895D781EEEF";
shapes = (
{
closed = 1;
nodes = (
(1053,-30,o),
(1236,47,o),
(1374,181,cs),
(1512,315,o),
(1589,494,o),
(1589,705,cs),
(1589,913,o),
(1512,1092,o),
(1374,1226,cs),
(1236,1360,o),
(1053,1440,o),
(831,1440,cs),
(606,1440,o),
(423,1363,o),
(285,1229,cs),
(147,1096,o),
(70,917,o),
(70,705,cs),
(70,494,o),
(147,315,o),
(285,181,cs),
(423,47,o),
(606,-30,o),
(831,-30,cs)
);
},
{
closed = 1;
nodes = (
(764,350,o),
(707,364,o),
(658,394,cs),
(608,423,o),
(568,463,o),
(541,517,cs),
(513,570,o),
(497,632,o),
(497,705,cs),
(497,814,o),
(530,902,o),
(591,964,c),
(651,1028,o),
(732,1059,o),
(830,1059,cs),
(895,1059,o),
(954,1045,o),
(1003,1016,cs),
(1052,987,o),
(1091,946,o),
(1120,893,cs),
(1149,840,o),
(1162,777,o),
(1162,705,cs),
(1162,596,o),
(1131,507,o),
(1070,446,cs),
(1009,386,o),
(927,350,o),
(830,350,cs)
);
}
);
width = 1648;
},
{
layerId = "7609694B-C902-4DC8-BC2F-8BF204A4C5AE";
shapes = (
{
closed = 1;
nodes = (
(1053,-30,o),
(1230,47,o),
(1367,181,cs),
(1502,315,o),
(1579,494,o),
(1579,705,cs),
(1579,913,o),
(1502,1092,o),
(1367,1226,cs),
(1230,1360,o),
(1053,1440,o),
(840,1440,cs),
(626,1440,o),
(448,1363,o),
(313,1229,cs),
(177,1096,o),
(100,917,o),
(100,705,cs),
(100,494,o),
(177,315,o),
(313,181,cs),
(448,47,o),
(626,-30,o),
(840,-30,cs)
);
},
{
closed = 1;
nodes = (
(740,163,o),
(652,185,o),
(573,231,cs),
(493,275,o),
(431,337,o),
(384,419,cs),
(336,500,o),
(313,595,o),
(313,705,cs),
(313,871,o),
(369,1004,o),
(466,1099,c),
(564,1195,o),
(690,1247,o),
(840,1247,cs),
(938,1247,o),
(1028,1224,o),
(1108,1179,cs),
(1187,1135,o),
(1248,1072,o),
(1296,991,cs),
(1345,909,o),
(1366,815,o),
(1366,705,cs),
(1366,541,o),
(1312,406,o),
(1215,311,cs),
(1117,216,o),
(990,163,o),
(840,163,cs)
);
}
);
width = 1668;
},
{
layerId = "90133A7B-8BB4-4C15-92F3-A0E8B30B2A31";
shapes = (
{
closed = 1;
nodes = (
(1053,-30,o),
(1226,47,o),
(1363,181,c),
(1496,315,o),
(1573,494,o),
(1573,705,cs),
(1573,913,o),
(1496,1092,o),
(1363,1226,c),
(1226,1360,o),
(1053,1440,o),
(846,1440,cs),
(638,1440,o),
(463,1363,o),
(329,1229,cs),
(196,1096,o),
(119,917,o),
(119,705,cs),
(119,494,o),
(196,315,o),
(329,181,cs),
(463,47,o),
(638,-30,o),
(846,-30,cs)
);
},
{
closed = 1;
nodes = (
(725,44,o),
(618,72,o),
(520,127,cs),
(421,181,o),
(344,259,o),
(284,357,cs),
(224,457,o),
(196,571,o),
(196,705,cs),
(196,906,o),
(266,1068,o),
(388,1184,cs),
(507,1301,o),
(663,1365,o),
(846,1365,cs),
(967,1365,o),
(1074,1337,o),
(1173,1283,cs),
(1272,1228,o),
(1347,1151,o),
(1408,1052,cs),
(1469,953,o),
(1495,838,o),
(1495,705,cs),
(1495,505,o),
(1426,342,o),
(1306,226,cs),
(1185,110,o),
(1029,44,o),
(846,44,cs)
);
}
);
width = 1680;
}
);
leftKerningGroup = _C2;
rightKerningGroup = _D;
unicode = 79;
},
{
glyphname = P;
layers = (
{
layerId = "88C73509-728C-4DC8-993B-4895D781EEEF";
shapes = (
{
closed = 1;
nodes = (
(157,0,l),
(564,0,l),
(564,435,l),
(749,435,ls),
(994,435,o),
(1165,510,o),
(1255,660,cs),
(1300,732,o),
(1321,818,o),
(1321,922,cs),
(1321,1131,o),
(1219,1276,o),
(1049,1353,cs),
(964,1391,o),
(869,1410,o),
(759,1410,cs),
(157,1410,l)
);
},
{
closed = 1;
nodes = (
(564,771,l),
(564,1063,l),
(735,1063,ls),
(787,1063,o),
(832,1054,o),
(865,1033,c),
(898,1010,o),
(914,973,o),
(914,916,cs),
(914,808,o),
(847,771,o),
(733,771,cs)
);
}
);
width = 1352;
},
{
layerId = "7609694B-C902-4DC8-BC2F-8BF204A4C5AE";
shapes = (
{
closed = 1;
nodes = (
(188,0,l),
(392,0,l),
(392,556,l),
(683,556,ls),
(903,556,o),
(1053,621,o),
(1135,751,cs),
(1174,815,o),
(1193,890,o),
(1193,982,cs),
(1193,1163,o),
(1104,1291,o),
(952,1360,c),
(874,1393,o),
(788,1410,o),
(688,1410,cs),
(188,1410,l)
);
},
{
closed = 1;
nodes = (
(392,733,l),
(392,1229,l),
(690,1229,ls),
(781,1229,o),
(854,1209,o),
(909,1165,c),
(965,1119,o),
(989,1058,o),
(989,977,cs),
(989,815,o),
(880,733,o),
(688,733,cs)
);
}
);
width = 1260;
},
{
layerId = "90133A7B-8BB4-4C15-92F3-A0E8B30B2A31";
shapes = (
{
closed = 1;
nodes = (
(207,0,l),
(283,0,l),
(283,632,l),
(641,632,ls),
(845,632,o),
(984,691,o),
(1058,808,c),
(1093,867,o),
(1112,936,o),
(1112,1019,cs),
(1112,1184,o),
(1031,1300,o),
(889,1363,c),
(818,1394,o),
(738,1410,o),
(641,1410,cs),
(207,1410,l)
);
},
{
closed = 1;
nodes = (
(283,709,l),
(283,1335,l),
(662,1335,ls),
(778,1335,o),
(869,1306,o),
(937,1248,c),
(1006,1187,o),
(1036,1113,o),
(1036,1015,cs),
(1036,818,o),
(901,709,o),
(660,709,cs)
);
}
);
width = 1201;
}
);
leftKerningGroup = _B2;
rightKerningGroup = _P;
unicode = 80;
},
{
glyphname = Q;
layers = (
{
layerId = "88C73509-728C-4DC8-993B-4895D781EEEF";
shapes = (
{
closed = 1;
nodes = (
(1023,91,l),
(1104,-32,o),
(1289,-154,o),
(1482,-212,c),
(1659,128,l),
(1495,181,o),
(1338,282,o),
(1222,409,c)
);
},
{
closed = 1;
nodes = (
(1053,-30,o),
(1236,47,o),
(1374,181,cs),
(1512,315,o),
(1589,494,o),
(1589,705,cs),
(1589,913,o),
(1512,1092,o),
(1374,1226,cs),
(1236,1360,o),
(1053,1440,o),
(831,1440,cs),
(606,1440,o),
(423,1363,o),
(285,1229,cs),
(147,1096,o),
(70,917,o),
(70,705,cs),
(70,494,o),
(147,315,o),
(285,181,cs),
(423,47,o),
(606,-30,o),
(831,-30,cs)
);
},
{
closed = 1;
nodes = (
(764,350,o),
(707,364,o),
(658,394,cs),
(608,423,o),
(568,463,o),
(541,517,cs),
(513,570,o),
(497,632,o),
(497,705,cs),
(497,814,o),
(530,902,o),
(591,964,c),
(651,1028,o),
(732,1059,o),
(830,1059,cs),
(895,1059,o),
(954,1045,o),
(1003,1016,cs),
(1052,987,o),
(1091,946,o),
(1120,893,cs),
(1149,840,o),
(1162,777,o),
(1162,705,cs),
(1162,596,o),
(1131,507,o),
(1070,446,cs),
(1009,386,o),
(927,350,o),
(830,350,cs)
);
}
);
width = 1648;
},
{
layerId = "7609694B-C902-4DC8-BC2F-8BF204A4C5AE";
shapes = (
{
closed = 1;
nodes = (
(1069,79,l),
(1180,-43,o),
(1328,-137,o),
(1520,-205,c),
(1611,-32,l),
(1424,30,o),
(1289,114,o),
(1182,230,c)
);
},
{
closed = 1;
nodes = (
(1053,-30,o),
(1230,47,o),
(1367,181,cs),
(1502,315,o),
(1579,494,o),
(1579,705,cs),
(1579,913,o),
(1502,1092,o),
(1367,1226,cs),
(1230,1360,o),
(1053,1440,o),
(840,1440,cs),
(626,1440,o),
(448,1363,o),
(313,1229,cs),
(177,1096,o),
(100,917,o),
(100,705,cs),
(100,494,o),
(177,315,o),
(313,181,cs),
(448,47,o),
(626,-30,o),
(840,-30,cs)
);
},
{
closed = 1;
nodes = (
(740,163,o),
(652,185,o),
(573,231,cs),
(493,275,o),
(431,337,o),
(384,419,cs),
(336,500,o),
(313,595,o),
(313,705,cs),
(313,871,o),
(369,1004,o),
(466,1099,c),
(564,1195,o),
(690,1247,o),
(840,1247,cs),
(938,1247,o),
(1028,1224,o),
(1108,1179,cs),
(1187,1135,o),
(1248,1072,o),
(1296,991,cs),
(1345,909,o),
(1366,815,o),
(1366,705,cs),
(1366,541,o),
(1312,406,o),
(1215,311,cs),
(1117,216,o),
(990,163,o),
(840,163,cs)
);
}
);
width = 1668;
},
{
layerId = "90133A7B-8BB4-4C15-92F3-A0E8B30B2A31";
shapes = (
{
closed = 1;
nodes = (
(1098,70,l),
(1227,-49,o),
(1353,-125,o),
(1545,-199,c),
(1581,-133,l),
(1377,-64,o),
(1257,7,o),
(1157,116,c)
);
},
{
closed = 1;
nodes = (
(1053,-30,o),
(1226,47,o),
(1363,181,c),
(1496,315,o),
(1573,494,o),
(1573,705,cs),
(1573,913,o),
(1496,1092,o),
(1363,1226,c),
(1226,1360,o),
(1053,1440,o),
(846,1440,cs),
(638,1440,o),
(463,1363,o),
(329,1229,cs),
(196,1096,o),
(119,917,o),
(119,705,cs),
(119,494,o),
(196,315,o),
(329,181,cs),
(463,47,o),
(638,-30,o),
(846,-30,cs)
);
},
{
closed = 1;
nodes = (
(725,44,o),
(618,72,o),
(520,127,cs),
(421,181,o),
(344,259,o),
(284,357,cs),
(224,457,o),
(196,571,o),
(196,705,cs),
(196,906,o),
(266,1068,o),
(388,1184,cs),
(507,1301,o),
(663,1365,o),
(846,1365,cs),
(967,1365,o),
(1074,1337,o),
(1173,1283,cs),
(1272,1228,o),
(1347,1151,o),
(1408,1052,cs),
(1469,953,o),
(1495,838,o),
(1495,705,cs),
(1495,505,o),
(1426,342,o),
(1306,226,cs),
(1185,110,o),
(1029,44,o),
(846,44,cs)
);
}
);
width = 1680;
}
);
leftKerningGroup = _C2;
unicode = 81;
},
{
glyphname = R;
layers = (
{
layerId = "88C73509-728C-4DC8-993B-4895D781EEEF";
shapes = (
{
closed = 1;
nodes = (
(157,0,l),
(564,0,l),
(564,485,l),
(642,485,l),
(906,0,l),
(1385,0,l),
(1037,576,l),
(1135,616,o),
(1219,686,o),
(1268,790,cs),
(1291,843,o),
(1303,902,o),
(1303,971,cs),
(1303,1161,o),
(1210,1291,o),
(1045,1359,c),
(961,1393,o),
(868,1410,o),
(755,1410,cs),
(157,1410,l)
);
},
{
closed = 1;
nodes = (
(564,806,l),
(564,1079,l),
(715,1079,ls),
(771,1079,o),
(814,1070,o),
(846,1050,c),
(875,1030,o),
(892,994,o),
(892,942,cs),
(892,891,o),
(875,857,o),
(846,837,c),
(813,816,o),
(769,806,o),
(713,806,cs)
);
}
);
width = 1410;
},
{
layerId = "7609694B-C902-4DC8-BC2F-8BF204A4C5AE";
shapes = (
{
closed = 1;
nodes = (
(188,0,l),
(392,0,l),
(392,578,l),
(597,578,l),
(1002,0,l),
(1251,0,l),
(816,607,l),
(967,630,o),
(1076,701,o),
(1139,809,c),
(1168,864,o),
(1183,923,o),
(1183,995,cs),
(1183,1168,o),
(1105,1292,o),
(965,1360,c),
(891,1393,o),
(812,1410,o),
(713,1410,cs),
(188,1410,l)
);
},
{
closed = 1;
nodes = (
(392,750,l),
(392,1234,l),
(694,1234,ls),
(790,1234,o),
(862,1214,o),
(909,1169,c),
(954,1123,o),
(978,1064,o),
(978,986,cs),
(978,911,o),
(952,854,o),
(900,814,cs),
(845,770,o),
(773,750,o),
(677,750,cs)
);
}
);
width = 1322;
},
{
layerId = "90133A7B-8BB4-4C15-92F3-A0E8B30B2A31";
shapes = (
{
closed = 1;
nodes = (
(207,0,l),
(283,0,l),
(283,637,l),
(569,637,l),
(1062,0,l),
(1165,0,l),
(676,626,l),
(860,639,o),
(986,710,o),
(1057,821,c),
(1090,877,o),
(1108,936,o),
(1108,1010,cs),
(1108,1171,o),
(1038,1292,o),
(912,1360,c),
(847,1393,o),
(776,1410,o),
(686,1410,cs),
(207,1410,l)
);
},
{
closed = 1;
nodes = (
(283,716,l),
(283,1332,l),
(681,1332,ls),
(802,1332,o),
(892,1305,o),
(948,1244,cs),
(1004,1182,o),
(1032,1108,o),
(1032,1014,cs),
(1032,923,o),
(999,852,o),
(934,798,cs),
(866,742,o),
(775,716,o),
(653,716,cs)
);
}
);
width = 1266;
}
);
leftKerningGroup = _B2;
rightKerningGroup = _R;
unicode = 82;
},
{
glyphname = S;
layers = (
{
layerId = "88C73509-728C-4DC8-993B-4895D781EEEF";
shapes = (
{
closed = 1;
nodes = (
(910,-30,o),
(1086,55,o),
(1183,197,cs),
(1231,270,o),
(1255,349,o),
(1255,443,cs),
(1255,549,o),
(1223,630,o),
(1154,699,c),
(1085,763,o),
(981,819,o),
(824,864,cs),
(721,894,ls),
(625,923,o),
(573,940,o),
(548,962,c),
(537,974,o),
(530,986,o),
(530,1003,cs),
(530,1040,o),
(560,1069,o),
(613,1088,c),
(640,1097,o),
(670,1100,o),
(705,1100,cs),
(794,1100,o),
(885,1075,o),
(962,1032,cs),
(998,1012,o),
(1030,987,o),
(1051,959,c),
(1248,1252,l),
(1187,1309,o),
(1110,1354,o),
(1013,1390,c),
(912,1422,o),
(807,1438,o),
(693,1438,cs),
(535,1438,o),
(398,1393,o),
(297,1308,c),
(196,1226,o),
(137,1115,o),
(137,985,cs),
(137,884,o),
(170,798,o),
(236,722,c),
(301,648,o),
(410,589,o),
(564,548,cs),
(669,520,l),
(741,502,o),
(791,482,o),
(819,466,c),
(846,447,o),
(858,424,o),
(858,397,cs),
(858,370,o),
(842,347,o),
(807,332,cs),
(771,317,o),
(726,308,o),
(673,308,cs),
(576,308,o),
(466,337,o),
(373,386,cs),
(327,410,o),
(289,437,o),
(262,469,c),
(75,169,l),
(148,105,o),
(239,55,o),
(344,22,cs),
(450,-13,o),
(559,-30,o),
(673,-30,cs)
);
}
);
width = 1298;
},
{
layerId = "7609694B-C902-4DC8-BC2F-8BF204A4C5AE";
shapes = (
{
closed = 1;
nodes = (
(864,-30,o),
(1017,45,o),
(1100,170,c),
(1140,235,o),
(1159,304,o),
(1159,387,cs),
(1159,486,o),
(1131,562,o),
(1069,625,c),
(1009,685,o),
(920,733,o),
(788,771,cs),
(629,818,ls),
(485,861,o),
(410,900,o),
(376,952,c),
(360,978,o),
(350,1007,o),
(350,1041,cs),
(350,1138,o),
(404,1202,o),
(495,1238,c),
(542,1256,o),
(592,1263,o),
(651,1263,cs),
(743,1263,o),
(832,1244,o),
(912,1205,cs),
(948,1188,o),
(985,1167,o),
(1013,1139,c),
(1119,1292,l),
(1064,1335,o),
(1002,1372,o),
(922,1401,c),
(842,1426,o),
(757,1439,o),
(664,1439,cs),
(517,1439,o),
(393,1402,o),
(301,1328,c),
(208,1256,o),
(157,1157,o),
(157,1030,cs),
(157,937,o),
(187,862,o),
(247,798,c),
(307,737,o),
(402,686,o),
(533,647,cs),
(683,604,l),
(791,574,o),
(866,540,o),
(905,503,cs),
(945,466,o),
(964,421,o),
(964,368,cs),
(964,296,o),
(935,243,o),
(877,205,cs),
(818,167,o),
(740,147,o),
(641,147,cs),
(540,147,o),
(439,171,o),
(348,211,c),
(306,233,o),
(265,256,o),
(231,285,c),
(131,127,l),
(192,77,o),
(269,36,o),
(359,12,c),
(451,-16,o),
(545,-30,o),
(640,-30,cs)
);
}
);
width = 1253;
},
{
layerId = "90133A7B-8BB4-4C15-92F3-A0E8B30B2A31";
shapes = (
{
closed = 1;
nodes = (
(835,-30,o),
(973,38,o),
(1046,152,c),
(1081,211,o),
(1099,276,o),
(1099,351,cs),
(1099,446,o),
(1071,519,o),
(1016,578,cs),
(962,634,o),
(882,679,o),
(766,712,cs),
(571,770,ls),
(398,822,o),
(306,875,o),
(267,945,c),
(249,981,o),
(238,1020,o),
(238,1065,cs),
(238,1199,o),
(304,1286,o),
(421,1333,cs),
(478,1356,o),
(543,1366,o),
(617,1366,cs),
(710,1366,o),
(797,1349,o),
(880,1315,cs),
(917,1300,o),
(957,1280,o),
(989,1253,c),
(1037,1317,l),
(987,1351,o),
(933,1382,o),
(864,1407,c),
(795,1429,o),
(725,1440,o),
(644,1440,cs),
(504,1440,o),
(390,1408,o),
(303,1340,cs),
(215,1274,o),
(169,1182,o),
(169,1058,cs),
(169,972,o),
(197,901,o),
(254,846,cs),
(310,792,o),
(396,746,o),
(514,711,cs),
(692,658,l),
(824,620,o),
(912,575,o),
(960,527,cs),
(1008,478,o),
(1030,418,o),
(1030,348,cs),
(1030,250,o),
(995,176,o),
(920,124,cs),
(846,72,o),
(748,46,o),
(622,46,cs),
(517,46,o),
(423,65,o),
(333,102,c),
(293,120,o),
(250,141,o),
(211,168,c),
(165,100,l),
(221,57,o),
(288,24,o),
(370,5,c),
(451,-18,o),
(535,-30,o),
(619,-30,cs)
);
}
);
width = 1225;
}
);
leftKerningGroup = _S2;
rightKerningGroup = _S;
unicode = 83;
},
{
glyphname = T;
layers = (
{
layerId = "88C73509-728C-4DC8-993B-4895D781EEEF";
shapes = (
{
closed = 1;
nodes = (
(393,0,l),
(801,0,l),
(801,1039,l),
(1164,1039,l),
(1164,1410,l),
(30,1410,l),
(30,1039,l),
(393,1039,l)
);
}
);
width = 1186;
},
{
layerId = "7609694B-C902-4DC8-BC2F-8BF204A4C5AE";
shapes = (
{
closed = 1;
nodes = (
(459,0,l),
(664,0,l),
(664,1222,l),
(1064,1222,l),
(1064,1410,l),
(58,1410,l),
(58,1222,l),
(459,1222,l)
);
}
);
width = 1115;
},
{
layerId = "90133A7B-8BB4-4C15-92F3-A0E8B30B2A31";
shapes = (
{
closed = 1;
nodes = (
(500,0,l),
(576,0,l),
(576,1338,l),
(1001,1338,l),
(1001,1410,l),
(77,1410,l),
(77,1338,l),
(500,1338,l)
);
}
);
width = 1069;
}
);
leftKerningGroup = _T2;
rightKerningGroup = _T;
unicode = 84;
},
{
glyphname = U;
layers = (
{
layerId = "88C73509-728C-4DC8-993B-4895D781EEEF";
shapes = (
{
closed = 1;
nodes = (
(915,-30,o),
(1028,-5,o),
(1122,51,c),
(1214,104,o),
(1285,176,o),
(1332,273,cs),
(1379,370,o),
(1404,474,o),
(1404,600,cs),
(1404,1410,l),
(995,1410,l),
(995,578,ls),
(995,500,o),
(977,446,o),
(937,407,cs),
(901,371,o),
(846,350,o),
(777,350,cs),
(705,350,o),
(653,371,o),
(614,407,c),
(575,446,o),
(558,501,o),
(558,578,cs),
(558,1410,l),
(151,1410,l),
(151,600,ls),
(151,474,o),
(175,368,o),
(223,271,cs),
(270,174,o),
(339,106,o),
(433,49,c),
(527,-4,o),
(639,-30,o),
(777,-30,cs)
);
}
);
width = 1542;
},
{
layerId = "7609694B-C902-4DC8-BC2F-8BF204A4C5AE";
shapes = (
{
closed = 1;
nodes = (
(870,-30,o),
(971,-6,o),
(1055,48,c),
(1139,98,o),
(1201,166,o),
(1243,254,cs),
(1285,342,o),
(1306,436,o),
(1306,544,cs),
(1306,1410,l),
(1102,1410,l),
(1102,549,ls),
(1102,417,o),
(1069,325,o),
(1004,259,cs),
(939,194,o),
(852,163,o),
(743,163,cs),
(631,163,o),
(547,194,o),
(480,259,c),
(415,325,o),
(384,418,o),
(384,549,cs),
(384,1410,l),
(180,1410,l),
(180,544,ls),
(180,436,o),
(201,340,o),
(244,253,cs),
(285,164,o),
(346,100,o),
(430,46,c),
(516,-5,o),
(616,-30,o),
(743,-30,cs)
);
}
);
width = 1473;
},
{
layerId = "90133A7B-8BB4-4C15-92F3-A0E8B30B2A31";
shapes = (
{
closed = 1;
nodes = (
(841,-30,o),
(933,-6,o),
(1012,45,c),
(1091,94,o),
(1148,159,o),
(1186,242,cs),
(1224,324,o),
(1244,411,o),
(1244,508,cs),
(1244,1410,l),
(1168,1410,l),
(1168,530,ls),
(1168,364,o),
(1129,249,o),
(1045,165,cs),
(964,83,o),
(855,44,o),
(721,44,cs),
(584,44,o),
(478,83,o),
(396,165,cs),
(314,249,o),
(274,364,o),
(274,530,cs),
(274,1410,l),
(198,1410,l),
(198,508,ls),
(198,411,o),
(217,324,o),
(256,241,cs),
(294,158,o),
(349,96,o),
(428,44,cs),
(508,-6,o),
(601,-30,o),
(721,-30,cs)
);
}
);
width = 1430;
}
);
leftKerningGroup = _U;
rightKerningGroup = _J;
unicode = 85;
},
{
glyphname = V;
layers = (
{
layerId = "88C73509-728C-4DC8-993B-4895D781EEEF";
shapes = (
{
closed = 1;
nodes = (
(487,0,l),
(961,0,l),
(1468,1410,l),
(1017,1410,l),
(729,507,l),
(441,1410,l),
(-18,1410,l)
);
}
);
width = 1440;
},
{
layerId = "7609694B-C902-4DC8-BC2F-8BF204A4C5AE";
shapes = (
{
closed = 1;
nodes = (
(562,0,l),
(774,0,l),
(1305,1410,l),
(1080,1410,l),
(672,276,l),
(245,1410,l),
(16,1410,l)
);
}
);
width = 1311;
},
{
layerId = "90133A7B-8BB4-4C15-92F3-A0E8B30B2A31";
shapes = (
{
closed = 1;
nodes = (
(609,0,l),
(656,0,l),
(1201,1410,l),
(1121,1410,l),
(634,130,l),
(121,1410,l),
(37,1410,l)
);
}
);
width = 1230;
}
);
leftKerningGroup = _V2;
rightKerningGroup = _V;
unicode = 86;
},
{
glyphname = W;
layers = (
{
layerId = "88C73509-728C-4DC8-993B-4895D781EEEF";
shapes = (
{
closed = 1;
nodes = (
(451,0,l),
(836,0,l),
(1057,812,l),
(1279,0,l),
(1667,0,l),
(2098,1410,l),
(1690,1410,l),
(1488,622,l),
(1265,1410,l),
(864,1410,l),
(640,622,l),
(439,1410,l),
(20,1410,l)
);
}
);
width = 2104;
},
{
layerId = "7609694B-C902-4DC8-BC2F-8BF204A4C5AE";
shapes = (
{
closed = 1;
nodes = (
(475,0,l),
(695,0,l),
(1025,1102,l),
(1350,0,l),
(1572,0,l),
(1994,1410,l),
(1785,1410,l),
(1466,277,l),
(1134,1410,l),
(919,1410,l),
(585,276,l),
(266,1410,l),
(51,1410,l)
);
}
);
width = 2031;
},
{
layerId = "90133A7B-8BB4-4C15-92F3-A0E8B30B2A31";
shapes = (
{
closed = 1;
nodes = (
(490,0,l),
(606,0,l),
(1004,1286,l),
(1397,0,l),
(1511,0,l),
(1928,1410,l),
(1846,1410,l),
(1451,58,l),
(1051,1410,l),
(954,1410,l),
(551,56,l),
(156,1410,l),
(70,1410,l)
);
}
);
width = 1985;
}
);
leftKerningGroup = _V2;
rightKerningGroup = _V;
unicode = 87;
},
{
glyphname = X;
layers = (
{
layerId = "88C73509-728C-4DC8-993B-4895D781EEEF";
shapes = (
{
closed = 1;
nodes = (
(14,0,l),
(497,0,l),
(711,405,l),
(924,0,l),
(1420,0,l),
(1005,709,l),
(1414,1410,l),
(934,1410,l),
(727,1027,l),
(520,1410,l),
(28,1410,l),
(437,715,l)
);
}
);
width = 1424;
},
{
layerId = "7609694B-C902-4DC8-BC2F-8BF204A4C5AE";
shapes = (
{
closed = 1;
nodes = (
(59,0,l),
(296,0,l),
(659,573,l),
(1037,0,l),
(1282,0,l),
(807,717,l),
(1267,1410,l),
(1032,1410,l),
(668,872,l),
(328,1410,l),
(85,1410,l),
(521,723,l)
);
}
);
width = 1332;
},
{
layerId = "90133A7B-8BB4-4C15-92F3-A0E8B30B2A31";
shapes = (
{
closed = 1;
nodes = (
(88,0,l),
(168,0,l),
(625,679,l),
(1109,0,l),
(1194,0,l),
(681,723,l),
(1174,1410,l),
(1093,1410,l),
(630,774,l),
(206,1410,l),
(120,1410,l),
(573,729,l)
);
}
);
width = 1273;
}
);
leftKerningGroup = _X2;
rightKerningGroup = _X;
unicode = 88;
},
{
glyphname = Y;
layers = (
{
layerId = "88C73509-728C-4DC8-993B-4895D781EEEF";
shapes = (
{
closed = 1;
nodes = (
(471,0,l),
(880,0,l),
(880,572,l),
(1371,1410,l),
(930,1410,l),
(683,965,l),
(433,1410,l),
(-20,1410,l),
(471,576,l)
);
}
);
width = 1342;
},
{
layerId = "7609694B-C902-4DC8-BC2F-8BF204A4C5AE";
shapes = (
{
closed = 1;
nodes = (
(517,0,l),
(721,0,l),
(721,611,l),
(1219,1410,l),
(991,1410,l),
(623,810,l),
(253,1410,l),
(18,1410,l),
(517,612,l)
);
}
);
width = 1229;
},
{
layerId = "90133A7B-8BB4-4C15-92F3-A0E8B30B2A31";
shapes = (
{
closed = 1;
nodes = (
(545,0,l),
(620,0,l),
(620,636,l),
(1123,1410,l),
(1029,1410,l),
(586,712,l),
(139,1410,l),
(42,1410,l),
(545,635,l)
);
}
);
width = 1157;
}
);
leftKerningGroup = _Y2;
rightKerningGroup = _Y;
unicode = 89;
},
{
glyphname = Z;
layers = (
{
layerId = "88C73509-728C-4DC8-993B-4895D781EEEF";
shapes = (
{
closed = 1;
nodes = (
(70,0,l),
(1132,0,l),
(1132,371,l),
(568,371,l),
(1128,1073,l),
(1128,1410,l),
(95,1410,l),
(95,1039,l),
(634,1039,l),
(70,338,l)
);
}
);
width = 1190;
},
{
layerId = "7609694B-C902-4DC8-BC2F-8BF204A4C5AE";
shapes = (
{
closed = 1;
nodes = (
(96,0,l),
(1088,0,l),
(1088,187,l),
(343,187,l),
(1081,1239,l),
(1081,1410,l),
(119,1410,l),
(119,1222,l),
(836,1222,l),
(96,170,l)
);
}
);
width = 1166;
},
{
layerId = "90133A7B-8BB4-4C15-92F3-A0E8B30B2A31";
shapes = (
{
closed = 1;
nodes = (
(112,0,l),
(1060,0,l),
(1060,71,l),
(202,71,l),
(1052,1345,l),
(1052,1410,l),
(134,1410,l),
(134,1338,l),
(964,1338,l),
(112,64,l)
);
}
);
width = 1151;
}
);
leftKerningGroup = _Z2;
rightKerningGroup = _Z;
unicode = 90;
},
{
glyphname = bracketleft;
layers = (
{
layerId = "88C73509-728C-4DC8-993B-4895D781EEEF";
shapes = (
{
closed = 1;
nodes = (
(150,-220,l),
(666,-220,l),
(666,46,l),
(466,46,l),
(466,1334,l),
(666,1334,l),
(666,1600,l),
(150,1600,l)
);
}
);
width = 732;
},
{
layerId = "7609694B-C902-4DC8-BC2F-8BF204A4C5AE";
shapes = (
{
closed = 1;
nodes = (
(202,-220,l),
(572,-220,l),
(572,-73,l),
(367,-73,l),
(367,1453,l),
(572,1453,l),
(572,1600,l),
(202,1600,l)
);
}
);
width = 686;
},
{
layerId = "90133A7B-8BB4-4C15-92F3-A0E8B30B2A31";
shapes = (
{
closed = 1;
nodes = (
(235,-220,l),
(513,-220,l),
(513,-148,l),
(304,-148,l),
(304,1528,l),
(513,1528,l),
(513,1600,l),
(235,1600,l)
);
}
);
width = 657;
}
);
leftKerningGroup = _bar2;
rightKerningGroup = _parenleft;
unicode = 91;
},
{
glyphname = backslash;
layers = (
{
layerId = "88C73509-728C-4DC8-993B-4895D781EEEF";
shapes = (
{
closed = 1;
nodes = (
(656,-230,l),
(978,-104,l),
(292,1610,l),
(-30,1484,l)
);
}
);
width = 948;
},
{
layerId = "7609694B-C902-4DC8-BC2F-8BF204A4C5AE";
shapes = (
{
closed = 1;
nodes = (
(737,-230,l),
(904,-164,l),
(172,1610,l),
(5,1544,l)
);
}
);
width = 909;
},
{
layerId = "90133A7B-8BB4-4C15-92F3-A0E8B30B2A31";
shapes = (
{
closed = 1;
nodes = (
(789,-230,l),
(857,-202,l),
(96,1610,l),
(27,1582,l)
);
}
);
width = 884;
}
);
unicode = 92;
},
{
glyphname = bracketright;
layers = (
{
layerId = "88C73509-728C-4DC8-993B-4895D781EEEF";
shapes = (
{
closed = 1;
nodes = (
(582,-220,l),
(582,1600,l),
(66,1600,l),
(66,1334,l),
(266,1334,l),
(266,46,l),
(66,46,l),
(66,-220,l)
);
}
);
width = 732;
},
{
layerId = "7609694B-C902-4DC8-BC2F-8BF204A4C5AE";
shapes = (
{
closed = 1;
nodes = (
(484,-220,l),
(484,1600,l),
(114,1600,l),
(114,1453,l),
(319,1453,l),
(319,-73,l),
(114,-73,l),
(114,-220,l)
);
}
);
width = 686;
},
{
layerId = "90133A7B-8BB4-4C15-92F3-A0E8B30B2A31";
shapes = (
{
closed = 1;
nodes = (
(422,-220,l),
(422,1600,l),
(144,1600,l),
(144,1528,l),
(353,1528,l),
(353,-148,l),
(144,-148,l),
(144,-220,l)
);
}
);
width = 657;
}
);
leftKerningGroup = _parenright;
rightKerningGroup = _bar;
unicode = 93;
},
{
glyphname = asciicircum;
layers = (
{
layerId = "88C73509-728C-4DC8-993B-4895D781EEEF";
shapes = (
{
closed = 1;
nodes = (
(131,787,l),
(467,787,l),
(652,1142,l),
(838,787,l),
(1174,787,l),
(836,1410,l),
(469,1410,l)
);
}
);
width = 1296;
},
{
layerId = "7609694B-C902-4DC8-BC2F-8BF204A4C5AE";
shapes = (
{
closed = 1;
nodes = (
(194,836,l),
(384,836,l),
(652,1266,l),
(921,836,l),
(1111,836,l),
(752,1410,l),
(553,1410,l)
);
}
);
width = 1296;
},
{
layerId = "90133A7B-8BB4-4C15-92F3-A0E8B30B2A31";
shapes = (
{
closed = 1;
nodes = (
(235,866,l),
(331,866,l),
(652,1344,l),
(974,866,l),
(1070,866,l),
(700,1410,l),
(605,1410,l)
);
}
);
width = 1296;
}
);
leftKerningGroup = _plus2;
rightKerningGroup = _plus;
unicode = 94;
},
{
glyphname = underscore;
layers = (
{
layerId = "88C73509-728C-4DC8-993B-4895D781EEEF";
shapes = (
{
closed = 1;
nodes = (
(20,-408,l),
(1120,-408,l),
(1120,-92,l),
(20,-92,l)
);
}
);
width = 1140;
},
{
layerId = "7609694B-C902-4DC8-BC2F-8BF204A4C5AE";
shapes = (
{
closed = 1;
nodes = (
(27,-320,l),
(1057,-320,l),
(1057,-161,l),
(27,-161,l)
);
}
);
width = 1084;
},
{
layerId = "90133A7B-8BB4-4C15-92F3-A0E8B30B2A31";
shapes = (
{
closed = 1;
nodes = (
(31,-264,l),
(1017,-264,l),
(1017,-204,l),
(31,-204,l)
);
}
);
width = 1049;
}
);
unicode = 95;
},
{
glyphname = a;
layers = (
{
layerId = "88C73509-728C-4DC8-993B-4895D781EEEF";
shapes = (
{
closed = 1;
nodes = (
(571,-30,o),
(721,25,o),
(800,156,c),
(733,156,l),
(733,156,ls),
(733,7,o),
(931,-28,o),
(1073,-28,cs),
(1098,-28,o),
(1120,-25,o),
(1145,-18,c),
(1173,236,l),
(1171,236,o),
(1169,236,o),
(1167,236,cs),
(1094,236,o),
(1089,293,o),
(1089,356,cs),
(1089,610,ls),
(1089,938,o),
(864,1070,o),
(571,1070,cs),
(412,1070,o),
(245,1029,o),
(106,944,c),
(205,678,l),
(285,739,o),
(392,770,o),
(501,770,cs),
(622,770,o),
(709,733,o),
(709,604,cs),
(709,402,ls),
(709,296,o),
(632,250,o),
(537,250,cs),
(465,250,o),
(419,275,o),
(419,332,cs),
(419,418,o),
(536,430,o),
(602,430,cs),
(650,430,o),
(705,423,o),
(763,410,c),
(761,648,l),
(705,653,o),
(653,655,o),
(604,655,cs),
(375,655,o),
(57,599,o),
(57,308,cs),
(57,91,o),
(222,-30,o),
(423,-30,cs)
);
}
);
width = 1204;
},
{
layerId = "7609694B-C902-4DC8-BC2F-8BF204A4C5AE";
shapes = (
{
closed = 1;
nodes = (
(621,-30,o),
(769,33,o),
(842,159,c),
(811,211,l),
(811,184,ls),
(811,35,o),
(935,-29,o),
(1075,-29,cs),
(1085,-29,o),
(1093,-29,o),
(1103,-26,c),
(1123,132,l),
(1120,132,o),
(1117,132,o),
(1115,132,cs),
(1011,132,o),
(1003,214,o),
(1003,301,cs),
(1003,663,ls),
(1003,956,o),
(812,1070,o),
(549,1070,cs),
(420,1070,o),
(277,1040,o),
(149,951,c),
(210,795,l),
(310,869,o),
(415,898,o),
(526,898,cs),
(686,898,o),
(804,828,o),
(804,661,cs),
(804,386,ls),
(804,216,o),
(651,135,o),
(502,135,cs),
(367,135,o),
(287,194,o),
(287,305,cs),
(287,457,o),
(479,489,o),
(637,489,cs),
(722,489,o),
(805,479,o),
(860,470,c),
(855,617,l),
(793,625,o),
(718,630,o),
(639,630,cs),
(395,630,o),
(93,573,o),
(93,297,cs),
(93,75,o),
(255,-30,o),
(456,-30,cs)
);
}
);
width = 1156;
},
{
layerId = "90133A7B-8BB4-4C15-92F3-A0E8B30B2A31";
shapes = (
{
closed = 1;
nodes = (
(653,-30,o),
(799,37,o),
(869,161,c),
(860,245,l),
(860,200,ls),
(860,51,o),
(937,-30,o),
(1076,-30,c),
(1076,-30,o),
(1077,-31,o),
(1076,-32,c),
(1091,66,l),
(1087,66,o),
(1084,66,o),
(1082,66,cs),
(958,66,o),
(948,164,o),
(948,266,cs),
(948,696,ls),
(948,968,o),
(779,1070,o),
(534,1070,cs),
(426,1070,o),
(298,1046,o),
(176,954,c),
(213,869,l),
(326,950,o),
(430,979,o),
(542,979,cs),
(727,979,o),
(864,888,o),
(864,696,cs),
(864,376,ls),
(864,166,o),
(663,63,o),
(479,63,cs),
(305,63,o),
(203,142,o),
(203,289,cs),
(203,482,o),
(442,526,o),
(658,526,cs),
(768,526,o),
(868,514,o),
(921,508,c),
(914,598,l),
(849,606,o),
(759,614,o),
(661,614,cs),
(407,614,o),
(115,557,o),
(115,290,cs),
(115,65,o),
(276,-30,o),
(477,-30,cs)
);
}
);
width = 1126;
}
);
leftKerningGroup = _a2;
rightKerningGroup = _a;
unicode = 97;
},
{
glyphname = b;
layers = (
{
layerId = "88C73509-728C-4DC8-993B-4895D781EEEF";
shapes = (
{
closed = 1;
nodes = (
(949,-30,o),
(1072,22,o),
(1168,119,cs),
(1260,215,o),
(1314,349,o),
(1314,520,cs),
(1314,628,o),
(1294,718,o),
(1247,803,c),
(1203,887,o),
(1143,950,o),
(1063,999,c),
(982,1046,o),
(896,1070,o),
(792,1070,cs),
(720,1070,o),
(658,1058,o),
(597,1030,cs),
(536,1003,o),
(482,961,o),
(434,900,c),
(526,808,l),
(526,1460,l),
(128,1420,l),
(128,0,l),
(468,0,l),
(468,282,l),
(414,192,l),
(449,103,o),
(525,35,o),
(630,-2,c),
(681,-22,o),
(736,-30,o),
(800,-30,cs)
);
},
{
closed = 1;
nodes = (
(650,310,o),
(589,344,o),
(554,409,c),
(534,440,o),
(526,477,o),
(526,520,cs),
(526,608,o),
(563,672,o),
(624,705,cs),
(656,722,o),
(687,730,o),
(726,730,cs),
(803,730,o),
(866,697,o),
(901,632,c),
(918,603,o),
(926,563,o),
(926,520,cs),
(926,432,o),
(889,371,o),
(828,336,cs),
(799,319,o),
(765,310,o),
(726,310,cs)
);
}
);
width = 1364;
},
{
layerId = "7609694B-C902-4DC8-BC2F-8BF204A4C5AE";
shapes = (
{
closed = 1;
nodes = (
(916,-30,o),
(1044,26,o),
(1140,128,cs),
(1234,228,o),
(1285,363,o),
(1285,520,cs),
(1285,625,o),
(1265,713,o),
(1219,799,cs),
(1175,882,o),
(1114,948,o),
(1035,999,c),
(953,1047,o),
(867,1070,o),
(759,1070,cs),
(659,1070,o),
(579,1052,o),
(506,1010,cs),
(435,968,o),
(378,915,o),
(330,845,c),
(372,799,l),
(372,1450,l),
(167,1430,l),
(167,0,l),
(354,0,l),
(354,256,l),
(324,211,l),
(379,117,o),
(460,42,o),
(574,0,c),
(629,-22,o),
(691,-30,o),
(762,-30,cs)
);
},
{
closed = 1;
nodes = (
(587,153,o),
(481,212,o),
(419,326,c),
(387,381,o),
(372,443,o),
(372,520,cs),
(372,673,o),
(435,785,o),
(542,843,cs),
(597,873,o),
(655,886,o),
(725,886,cs),
(863,886,o),
(971,830,o),
(1034,716,cs),
(1064,662,o),
(1077,597,o),
(1077,520,cs),
(1077,367,o),
(1016,260,o),
(906,198,c),
(855,168,o),
(794,153,o),
(725,153,cs)
);
}
);
width = 1360;
},
{
layerId = "90133A7B-8BB4-4C15-92F3-A0E8B30B2A31";
shapes = (
{
closed = 1;
nodes = (
(895,-30,o),
(1026,29,o),
(1122,134,c),
(1218,236,o),
(1266,371,o),
(1266,520,cs),
(1266,623,o),
(1246,710,o),
(1200,796,cs),
(1156,879,o),
(1095,946,o),
(1017,999,c),
(934,1048,o),
(848,1070,o),
(738,1070,cs),
(620,1070,o),
(529,1049,o),
(448,997,c),
(372,945,o),
(312,886,o),
(265,810,c),
(273,793,l),
(273,1444,l),
(192,1436,l),
(192,0,l),
(282,0,l),
(282,240,l),
(268,223,l),
(333,125,o),
(419,45,o),
(537,2,c),
(595,-22,o),
(663,-30,o),
(737,-30,cs)
);
},
{
closed = 1;
nodes = (
(546,54,o),
(412,129,o),
(333,273,c),
(293,343,o),
(273,422,o),
(273,520,cs),
(273,714,o),
(354,856,o),
(490,930,cs),
(560,969,o),
(634,985,o),
(724,985,cs),
(901,985,o),
(1037,913,o),
(1117,769,cs),
(1156,699,o),
(1173,618,o),
(1173,520,cs),
(1173,326,o),
(1096,189,o),
(956,111,c),
(890,72,o),
(813,54,o),
(724,54,cs)
);
}
);
width = 1357;
}
);
leftKerningGroup = _b2;
rightKerningGroup = _b;
unicode = 98;
},
{
glyphname = c;
layers = (
{
layerId = "88C73509-728C-4DC8-993B-4895D781EEEF";
shapes = (
{
closed = 1;
nodes = (
(712,-30,o),
(790,-18,o),
(870,10,c),
(950,34,o),
(1018,69,o),
(1078,114,c),
(926,416,l),
(887,381,o),
(849,355,o),
(806,336,c),
(763,320,o),
(721,310,o),
(674,310,cs),
(602,310,o),
(546,329,o),
(506,366,c),
(463,403,o),
(444,455,o),
(444,520,cs),
(444,609,o),
(481,672,o),
(549,707,c),
(585,722,o),
(624,730,o),
(672,730,cs),
(756,730,o),
(832,702,o),
(900,638,c),
(1070,932,l),
(957,1025,o),
(815,1070,o),
(644,1070,cs),
(473,1070,o),
(330,1013,o),
(222,913,cs),
(113,813,o),
(50,677,o),
(50,520,cs),
(50,416,o),
(76,324,o),
(128,240,cs),
(179,155,o),
(247,90,o),
(335,43,cs),
(423,-5,o),
(519,-30,o),
(632,-30,cs)
);
}
);
width = 1106;
},
{
layerId = "7609694B-C902-4DC8-BC2F-8BF204A4C5AE";
shapes = (
{
closed = 1;
nodes = (
(713,-30,o),
(780,-22,o),
(846,5,c),
(912,28,o),
(970,59,o),
(1026,101,c),
(923,256,l),
(892,227,o),
(856,202,o),
(807,182,c),
(760,163,o),
(711,153,o),
(657,153,cs),
(542,153,o),
(453,185,o),
(387,251,c),
(318,316,o),
(285,407,o),
(285,521,cs),
(285,678,o),
(348,786,o),
(459,847,c),
(516,873,o),
(580,886,o),
(658,886,cs),
(753,886,o),
(840,860,o),
(904,804,c),
(1007,962,l),
(909,1039,o),
(796,1070,o),
(656,1070,cs),
(488,1070,o),
(347,1017,o),
(242,917,cs),
(135,817,o),
(76,680,o),
(76,520,cs),
(76,416,o),
(100,321,o),
(150,238,c),
(198,152,o),
(264,89,o),
(349,42,c),
(434,-7,o),
(530,-30,o),
(640,-30,cs)
);
}
);
width = 1084;
},
{
layerId = "90133A7B-8BB4-4C15-92F3-A0E8B30B2A31";
shapes = (
{
closed = 1;
nodes = (
(713,-30,o),
(773,-24,o),
(830,2,c),
(888,24,o),
(940,53,o),
(992,92,c),
(920,156,l),
(895,130,o),
(860,105,o),
(808,83,c),
(758,64,o),
(704,54,o),
(647,54,cs),
(504,54,o),
(394,94,o),
(311,177,cs),
(226,261,o),
(185,377,o),
(185,522,cs),
(185,721,o),
(263,858,o),
(403,934,c),
(473,967,o),
(552,985,o),
(649,985,cs),
(751,985,o),
(846,959,o),
(907,909,c),
(966,981,l),
(878,1048,o),
(784,1070,o),
(663,1070,cs),
(498,1070,o),
(357,1019,o),
(254,920,cs),
(150,820,o),
(92,682,o),
(92,520,cs),
(92,415,o),
(115,319,o),
(163,236,c),
(210,150,o),
(274,88,o),
(357,41,cs),
(440,-8,o),
(536,-30,o),
(644,-30,cs)
);
}
);
width = 1069;
}
);
leftKerningGroup = _c2;
rightKerningGroup = _c;
unicode = 99;
},
{
glyphname = d;
layers = (
{
layerId = "88C73509-728C-4DC8-993B-4895D781EEEF";
shapes = (
{
closed = 1;
nodes = (
(657,-30,o),
(738,-9,o),
(810,31,c),
(878,72,o),
(926,124,o),
(950,192,c),
(896,282,l),
(896,0,l),
(1236,0,l),
(1236,1460,l),
(836,1420,l),
(836,808,l),
(930,900,l),
(882,961,o),
(829,1003,o),
(769,1030,cs),
(708,1058,o),
(644,1070,o),
(572,1070,cs),
(419,1070,o),
(293,1014,o),
(197,914,c),
(105,814,o),
(50,680,o),
(50,520,cs),
(50,407,o),
(72,311,o),
(119,227,c),
(163,143,o),
(222,82,o),
(302,38,c),
(382,-9,o),
(467,-30,o),
(564,-30,cs)
);
},
{
closed = 1;
nodes = (
(562,310,o),
(501,344,o),
(466,409,c),
(446,440,o),
(438,477,o),
(438,520,cs),
(438,608,o),
(475,672,o),
(536,705,cs),
(568,722,o),
(599,730,o),
(638,730,cs),
(715,730,o),
(778,697,o),
(813,632,c),
(830,603,o),
(838,563,o),
(838,520,cs),
(838,432,o),
(801,371,o),
(740,336,cs),
(711,319,o),
(677,310,o),
(638,310,cs)
);
}
);
width = 1364;
},
{
layerId = "7609694B-C902-4DC8-BC2F-8BF204A4C5AE";
shapes = (
{
closed = 1;
nodes = (
(709,-30,o),
(801,-9,o),
(872,35,cs),
(941,78,o),
(997,132,o),
(1035,199,c),
(1006,246,l),
(1006,0,l),
(1193,0,l),
(1193,1450,l),
(988,1430,l),
(988,805,l),
(1029,851,l),
(983,920,o),
(925,972,o),
(856,1013,cs),
(785,1054,o),
(701,1070,o),
(601,1070,cs),
(445,1070,o),
(318,1015,o),
(222,912,c),
(130,809,o),
(76,675,o),
(76,520,cs),
(76,416,o),
(97,322,o),
(144,239,c),
(187,156,o),
(248,91,o),
(327,42,cs),
(409,-9,o),
(496,-30,o),
(599,-30,cs)
);
},
{
closed = 1;
nodes = (
(498,153,o),
(393,212,o),
(330,326,c),
(298,381,o),
(284,443,o),
(284,520,cs),
(284,673,o),
(346,785,o),
(453,843,cs),
(509,873,o),
(566,886,o),
(636,886,cs),
(775,886,o),
(883,830,o),
(945,716,cs),
(975,662,o),
(989,597,o),
(989,520,cs),
(989,367,o),
(927,260,o),
(818,198,c),
(767,168,o),
(706,153,o),
(636,153,cs)
);
}
);
width = 1360;
},
{
layerId = "90133A7B-8BB4-4C15-92F3-A0E8B30B2A31";
shapes = (
{
closed = 1;
nodes = (
(742,-30,o),
(841,-9,o),
(911,37,cs),
(980,81,o),
(1043,138,o),
(1089,202,c),
(1075,223,l),
(1075,0,l),
(1165,0,l),
(1165,1444,l),
(1084,1436,l),
(1084,803,l),
(1092,820,l),
(1047,895,o),
(985,953,o),
(911,1001,cs),
(834,1051,o),
(738,1070,o),
(619,1070,cs),
(461,1070,o),
(333,1015,o),
(238,910,c),
(146,806,o),
(92,672,o),
(92,520,cs),
(92,422,o),
(112,329,o),
(159,246,c),
(202,164,o),
(264,97,o),
(343,45,cs),
(425,-8,o),
(514,-30,o),
(620,-30,cs)
);
},
{
closed = 1;
nodes = (
(457,54,o),
(324,129,o),
(244,273,c),
(204,343,o),
(185,422,o),
(185,520,cs),
(185,714,o),
(265,856,o),
(401,930,cs),
(471,969,o),
(545,985,o),
(634,985,cs),
(813,985,o),
(948,913,o),
(1028,769,cs),
(1066,699,o),
(1083,618,o),
(1083,520,cs),
(1083,326,o),
(1007,189,o),
(867,111,c),
(801,72,o),
(724,54,o),
(634,54,cs)
);
}
);
width = 1357;
}
);
leftKerningGroup = _c2;
rightKerningGroup = _d;
unicode = 100;
},
{
glyphname = e;
layers = (
{
layerId = "88C73509-728C-4DC8-993B-4895D781EEEF";
shapes = (
{
closed = 1;
nodes = (
(740,-30,o),
(866,-5,o),
(971,34,c),
(1027,53,o),
(1066,77,o),
(1097,98,c),
(980,362,l),
(927,331,o),
(874,308,o),
(818,293,cs),
(762,278,o),
(704,270,o),
(640,270,cs),
(552,270,o),
(483,296,o),
(443,336,cs),
(423,357,o),
(412,383,o),
(408,408,c),
(1158,408,l),
(1197,601,o),
(1160,758,o),
(1063,882,cs),
(967,1003,o),
(821,1070,o),
(628,1070,cs),
(456,1070,o),
(318,1015,o),
(213,918,c),
(109,818,o),
(50,683,o),
(50,522,cs),
(50,299,o),
(148,132,o),
(327,40,c),
(415,-8,o),
(515,-30,o),
(632,-30,cs)
);
},
{
closed = 1;
nodes = (
(434,668,l),
(437,705,o),
(455,733,o),
(491,757,cs),
(524,780,o),
(565,790,o),
(616,790,cs),
(667,790,o),
(707,780,o),
(736,757,cs),
(768,733,o),
(783,705,o),
(782,668,c)
);
}
);
width = 1223;
},
{
layerId = "7609694B-C902-4DC8-BC2F-8BF204A4C5AE";
shapes = (
{
closed = 1;
nodes = (
(733,-30,o),
(838,-12,o),
(930,27,cs),
(980,47,o),
(1018,72,o),
(1052,98,c),
(967,248,l),
(925,214,o),
(876,187,o),
(821,168,cs),
(766,149,o),
(709,141,o),
(650,141,cs),
(493,141,o),
(379,200,o),
(318,301,c),
(291,353,o),
(276,412,o),
(277,478,c),
(1120,478,l),
(1142,651,o),
(1104,792,o),
(1014,903,cs),
(927,1011,o),
(795,1070,o),
(622,1070,cs),
(464,1070,o),
(333,1015,o),
(231,916,c),
(134,813,o),
(76,679,o),
(76,518,cs),
(76,297,o),
(173,130,o),
(345,39,c),
(430,-9,o),
(526,-30,o),
(637,-30,cs)
);
},
{
closed = 1;
nodes = (
(288,634,l),
(297,721,o),
(330,785,o),
(393,835,c),
(452,885,o),
(527,904,o),
(619,904,cs),
(713,904,o),
(784,885,o),
(835,835,cs),
(888,785,o),
(914,721,o),
(916,634,c)
);
}
);
width = 1202;
},
{
layerId = "90133A7B-8BB4-4C15-92F3-A0E8B30B2A31";
shapes = (
{
closed = 1;
nodes = (
(729,-30,o),
(819,-16,o),
(905,23,cs),
(950,43,o),
(988,69,o),
(1024,97,c),
(959,176,l),
(923,140,o),
(877,110,o),
(823,90,cs),
(768,68,o),
(712,60,o),
(656,60,cs),
(456,60,o),
(314,139,o),
(240,279,c),
(207,350,o),
(190,430,o),
(194,521,c),
(1095,521,l),
(1108,682,o),
(1069,813,o),
(983,915,c),
(902,1017,o),
(779,1070,o),
(619,1070,cs),
(468,1070,o),
(342,1015,o),
(243,914,c),
(149,810,o),
(92,676,o),
(92,515,cs),
(92,295,o),
(189,128,o),
(357,38,c),
(440,-10,o),
(533,-30,o),
(640,-30,cs)
);
},
{
closed = 1;
nodes = (
(195,613,l),
(209,731,o),
(252,818,o),
(331,885,cs),
(406,950,o),
(502,976,o),
(621,976,cs),
(742,976,o),
(833,950,o),
(897,885,cs),
(963,818,o),
(996,731,o),
(1000,613,c)
);
}
);
width = 1189;
}
);
leftKerningGroup = _c2;
rightKerningGroup = _b;
unicode = 101;
},
{
glyphname = f;
layers = (
{
layerId = "88C73509-728C-4DC8-993B-4895D781EEEF";
shapes = (
{
closed = 1;
nodes = (
(204,0,l),
(604,0,l),
(604,728,l),
(846,728,l),
(846,1040,l),
(604,1040,l),
(604,1064,ls),
(604,1089,o),
(612,1108,o),
(632,1123,c),
(649,1138,o),
(673,1144,o),
(706,1144,cs),
(738,1144,o),
(773,1139,o),
(810,1116,c),
(864,1416,l),
(780,1457,o),
(700,1470,o),
(616,1470,cs),
(480,1470,o),
(382,1437,o),
(310,1365,cs),
(238,1293,o),
(204,1203,o),
(204,1086,cs)
);
},
{
closed = 1;
nodes = (
(40,728,l),
(236,728,l),
(236,1040,l),
(40,1040,l)
);
}
);
width = 884;
},
{
layerId = "7609694B-C902-4DC8-BC2F-8BF204A4C5AE";
shapes = (
{
closed = 1;
nodes = (
(257,0,l),
(454,0,l),
(454,874,l),
(716,874,l),
(716,1040,l),
(454,1040,l),
(454,1152,ls),
(454,1205,o),
(467,1242,o),
(496,1264,cs),
(523,1286,o),
(554,1297,o),
(597,1297,cs),
(631,1297,o),
(668,1290,o),
(706,1269,c),
(745,1427,l),
(698,1454,o),
(641,1470,o),
(568,1470,cs),
(471,1470,o),
(397,1444,o),
(341,1387,cs),
(286,1332,o),
(257,1257,o),
(257,1160,cs)
);
},
{
closed = 1;
nodes = (
(54,874,l),
(285,874,l),
(285,1040,l),
(54,1040,l)
);
}
);
width = 765;
},
{
layerId = "E1133AA4-0DDD-432A-A444-3E2BC6C4070A";
associatedMasterId = "90133A7B-8BB4-4C15-92F3-A0E8B30B2A31";
name = 1;
shapes = (
{
closed = 1;
nodes = (
(291,0,l),
(360,0,l),
(360,966,l),
(634,966,l),
(634,1040,l),
(360,1040,l),
(360,1208,ls),
(360,1279,o),
(375,1327,o),
(409,1354,cs),
(442,1380,o),
(479,1393,o),
(528,1393,cs),
(563,1393,o),
(600,1384,o),
(641,1365,c),
(670,1434,l),
(646,1452,o),
(604,1470,o),
(538,1470,cs),
(465,1470,o),
(406,1447,o),
(360,1402,c),
(316,1356,o),
(291,1291,o),
(291,1207,cs)
);
},
{
closed = 1;
nodes = (
(63,966,l),
(316,966,l),
(316,1040,l),
(63,1040,l)
);
}
);
width = 690;
},
{
layerId = "90133A7B-8BB4-4C15-92F3-A0E8B30B2A31";
shapes = (
{
closed = 1;
nodes = (
(288,0,l),
(369,0,l),
(369,957,l),
(642,957,l),
(642,1040,l),
(369,1040,l),
(369,1203,ls),
(369,1272,o),
(384,1319,o),
(417,1346,c),
(450,1371,o),
(486,1384,o),
(534,1384,cs),
(569,1384,o),
(606,1375,o),
(647,1356,c),
(677,1433,l),
(651,1452,o),
(607,1470,o),
(541,1470,cs),
(466,1470,o),
(405,1447,o),
(358,1401,c),
(313,1354,o),
(288,1288,o),
(288,1203,cs)
);
},
{
closed = 1;
nodes = (
(62,957,l),
(313,957,l),
(313,1040,l),
(62,1040,l)
);
}
);
width = 697;
}
);
leftKerningGroup = _f2;
rightKerningGroup = _f;
unicode = 102;
},
{
glyphname = g;
layers = (
{
layerId = "88C73509-728C-4DC8-993B-4895D781EEEF";
shapes = (
{
closed = 1;
nodes = (
(726,-450,o),
(881,-412,o),
(994,-344,cs),
(1107,-275,o),
(1168,-180,o),
(1168,-72,cs),
(1168,57,o),
(1094,134,o),
(965,175,c),
(901,198,o),
(830,211,o),
(742,218,cs),
(564,234,ls),
(517,238,o),
(489,245,o),
(474,253,c),
(459,264,o),
(452,273,o),
(452,282,cs),
(452,302,o),
(469,316,o),
(509,325,c),
(530,326,o),
(557,331,o),
(592,328,c),
(526,470,l),
(417,475,o),
(323,446,o),
(250,398,cs),
(178,350,o),
(136,289,o),
(136,220,cs),
(136,148,o),
(170,91,o),
(246,44,c),
(154,24,o),
(85,-19,o),
(48,-79,cs),
(29,-110,o),
(20,-139,o),
(20,-172,cs),
(20,-257,o),
(71,-326,o),
(159,-375,c),
(251,-424,o),
(373,-450,o),
(530,-450,cs)
);
},
{
closed = 1;
nodes = (
(498,-208,o),
(426,-193,o),
(387,-168,cs),
(368,-155,o),
(358,-139,o),
(358,-122,cs),
(358,-97,o),
(376,-76,o),
(413,-61,cs),
(430,-54,o),
(451,-49,o),
(476,-46,c),
(678,-62,ls),
(775,-70,o),
(810,-85,o),
(810,-126,cs),
(810,-153,o),
(787,-174,o),
(744,-189,cs),
(707,-201,o),
(658,-208,o),
(594,-208,cs)
);
},
{
closed = 1;
nodes = (
(767,320,o),
(909,392,o),
(989,508,cs),
(1029,564,o),
(1048,627,o),
(1048,696,cs),
(1048,837,o),
(965,953,o),
(820,1021,cs),
(748,1054,o),
(670,1070,o),
(574,1070,cs),
(386,1070,o),
(240,999,o),
(160,886,cs),
(117,826,o),
(98,765,o),
(98,696,cs),
(98,551,o),
(179,438,o),
(324,370,cs),
(397,337,o),
(478,320,o),
(574,320,cs)
);
},
{
closed = 1;
nodes = (
(531,580,o),
(497,592,o),
(469,613,cs),
(440,634,o),
(424,661,o),
(424,696,cs),
(424,743,o),
(454,778,o),
(499,797,c),
(520,808,o),
(546,812,o),
(574,812,cs),
(617,812,o),
(652,801,o),
(680,780,c),
(711,759,o),
(724,731,o),
(724,696,cs),
(724,652,o),
(694,615,o),
(649,595,c),
(628,584,o),
(602,580,o),
(574,580,cs)
);
},
{
closed = 1;
nodes = (
(1228,1040,l),
(574,1040,l),
(677,828,l),
(801,793,o),
(902,768,o),
(986,752,cs),
(1069,736,o),
(1135,728,o),
(1188,728,c)
);
}
);
width = 1250;
},
{
layerId = "7609694B-C902-4DC8-BC2F-8BF204A4C5AE";
shapes = (
{
closed = 1;
nodes = (
(733,-450,o),
(872,-413,o),
(972,-351,c),
(1072,-286,o),
(1127,-198,o),
(1127,-100,cs),
(1127,19,o),
(1062,94,o),
(940,136,c),
(880,158,o),
(808,170,o),
(719,177,cs),
(544,192,ls),
(494,196,o),
(456,205,o),
(427,214,c),
(398,226,o),
(383,244,o),
(383,268,cs),
(383,307,o),
(420,334,o),
(482,350,c),
(516,356,o),
(551,361,o),
(596,360,c),
(548,453,l),
(446,447,o),
(362,419,o),
(299,379,c),
(238,339,o),
(203,290,o),
(203,231,cs),
(203,165,o),
(243,114,o),
(324,73,c),
(214,51,o),
(138,6,o),
(98,-57,c),
(79,-90,o),
(69,-121,o),
(69,-158,cs),
(69,-247,o),
(116,-319,o),
(202,-370,cs),
(289,-422,o),
(409,-450,o),
(564,-450,cs)
);
},
{
closed = 1;
nodes = (
(449,-306,o),
(354,-276,o),
(301,-224,c),
(276,-198,o),
(262,-168,o),
(262,-135,cs),
(262,-76,o),
(297,-31,o),
(368,-4,cs),
(402,9,o),
(439,18,o),
(488,21,c),
(675,8,ls),
(849,-4,o),
(929,-47,o),
(929,-128,cs),
(929,-181,o),
(898,-223,o),
(835,-256,cs),
(773,-289,o),
(690,-306,o),
(581,-306,cs)
);
},
{
closed = 1;
nodes = (
(746,342,o),
(882,413,o),
(962,524,c),
(1002,577,o),
(1020,639,o),
(1020,707,cs),
(1020,844,o),
(937,957,o),
(801,1022,cs),
(735,1055,o),
(661,1070,o),
(575,1070,cs),
(407,1070,o),
(270,1003,o),
(190,892,cs),
(149,835,o),
(130,775,o),
(130,707,cs),
(130,568,o),
(212,457,o),
(348,392,cs),
(418,359,o),
(490,342,o),
(575,342,cs)
);
},
{
closed = 1;
nodes = (
(500,500,o),
(439,522,o),
(393,558,cs),
(345,596,o),
(320,645,o),
(320,707,cs),
(320,789,o),
(367,852,o),
(443,887,cs),
(480,904,o),
(525,913,o),
(575,913,cs),
(653,913,o),
(713,894,o),
(759,856,c),
(808,819,o),
(830,768,o),
(830,707,cs),
(830,625,o),
(785,561,o),
(708,526,cs),
(671,509,o),
(628,500,o),
(575,500,cs)
);
},
{
closed = 1;
nodes = (
(1166,869,l),
(1194,1039,l),
(661,1039,l),
(706,935,l),
(800,912,o),
(876,895,o),
(943,885,cs),
(1009,874,o),
(1066,869,o),
(1122,869,cs)
);
}
);
width = 1230;
},
{
layerId = "90133A7B-8BB4-4C15-92F3-A0E8B30B2A31";
shapes = (
{
closed = 1;
nodes = (
(736,-450,o),
(866,-413,o),
(957,-354,c),
(1049,-292,o),
(1102,-208,o),
(1102,-118,cs),
(1102,-6,o),
(1041,69,o),
(924,111,cs),
(865,133,o),
(793,145,o),
(704,152,cs),
(531,164,ls),
(479,168,o),
(435,180,o),
(397,189,c),
(359,202,o),
(340,225,o),
(340,258,cs),
(340,310,o),
(389,344,o),
(466,366,c),
(506,375,o),
(548,380,o),
(598,379,c),
(561,441,l),
(464,428,o),
(387,403,o),
(330,367,c),
(276,332,o),
(244,291,o),
(244,238,cs),
(244,175,o),
(289,129,o),
(374,92,c),
(251,67,o),
(172,22,o),
(130,-42,c),
(110,-77,o),
(100,-109,o),
(100,-149,cs),
(100,-240,o),
(144,-313,o),
(229,-367,cs),
(313,-420,o),
(432,-450,o),
(585,-450,cs)
);
},
{
closed = 1;
nodes = (
(417,-367,o),
(308,-328,o),
(246,-258,cs),
(217,-226,o),
(201,-187,o),
(201,-143,cs),
(201,-63,o),
(247,-3,o),
(339,33,cs),
(383,50,o),
(431,61,o),
(495,64,c),
(672,52,ls),
(895,37,o),
(1003,-23,o),
(1003,-129,cs),
(1003,-197,o),
(967,-254,o),
(891,-299,cs),
(814,-345,o),
(709,-367,o),
(573,-367,cs)
);
},
{
closed = 1;
nodes = (
(733,357,o),
(864,425,o),
(944,534,c),
(986,585,o),
(1002,646,o),
(1002,713,cs),
(1002,848,o),
(919,959,o),
(789,1023,cs),
(726,1055,o),
(655,1070,o),
(576,1070,cs),
(419,1070,o),
(289,1005,o),
(209,895,cs),
(168,841,o),
(149,781,o),
(149,713,cs),
(149,578,o),
(233,469,o),
(363,405,cs),
(430,372,o),
(497,357,o),
(576,357,cs)
);
},
{
closed = 1;
nodes = (
(479,450,o),
(402,478,o),
(344,524,cs),
(285,572,o),
(255,635,o),
(255,713,cs),
(255,818,o),
(312,899,o),
(408,943,cs),
(455,964,o),
(510,977,o),
(576,977,cs),
(675,977,o),
(751,953,o),
(809,903,c),
(869,857,o),
(896,791,o),
(896,713,cs),
(896,609,o),
(841,527,o),
(745,483,cs),
(699,462,o),
(644,450,o),
(576,450,cs)
);
},
{
closed = 1;
nodes = (
(1151,957,l),
(1172,1038,l),
(716,1038,l),
(725,1003,l),
(799,987,o),
(860,976,o),
(915,968,c),
(971,961,o),
(1023,957,o),
(1079,957,cs)
);
}
);
width = 1217;
}
);
leftKerningGroup = _g2;
rightKerningGroup = _g;
unicode = 103;
},
{
glyphname = h;
layers = (
{
layerId = "88C73509-728C-4DC8-993B-4895D781EEEF";
shapes = (
{
closed = 1;
nodes = (
(128,0,l),
(528,0,l),
(528,534,ls),
(528,610,o),
(552,663,o),
(597,690,cs),
(621,705,o),
(650,713,o),
(686,710,c),
(739,710,o),
(778,693,o),
(807,661,c),
(834,629,o),
(848,586,o),
(848,534,cs),
(848,0,l),
(1248,0,l),
(1248,646,ls),
(1248,722,o),
(1233,793,o),
(1200,857,cs),
(1165,921,o),
(1117,975,o),
(1052,1012,cs),
(984,1052,o),
(904,1070,o),
(804,1070,cs),
(728,1070,o),
(661,1056,o),
(601,1021,c),
(540,989,o),
(488,948,o),
(444,896,c),
(528,794,l),
(528,1460,l),
(128,1420,l)
);
}
);
width = 1366;
},
{
layerId = "7609694B-C902-4DC8-BC2F-8BF204A4C5AE";
shapes = (
{
closed = 1;
nodes = (
(167,0,l),
(372,0,l),
(372,623,ls),
(372,743,o),
(424,831,o),
(510,876,c),
(553,902,o),
(601,914,o),
(655,913,c),
(739,913,o),
(800,889,o),
(852,841,c),
(899,794,o),
(923,732,o),
(923,654,cs),
(923,0,l),
(1129,0,l),
(1129,714,ls),
(1129,779,o),
(1114,841,o),
(1082,900,c),
(1049,959,o),
(1003,1010,o),
(941,1045,c),
(878,1084,o),
(799,1102,o),
(706,1102,cs),
(634,1102,o),
(567,1089,o),
(500,1055,c),
(433,1024,o),
(377,976,o),
(331,907,c),
(372,864,l),
(372,1450,l),
(167,1430,l)
);
}
);
width = 1285;
},
{
layerId = "90133A7B-8BB4-4C15-92F3-A0E8B30B2A31";
shapes = (
{
closed = 1;
nodes = (
(192,0,l),
(273,0,l),
(273,679,ls),
(273,826,o),
(343,936,o),
(455,993,c),
(510,1026,o),
(570,1041,o),
(634,1040,c),
(738,1041,o),
(815,1013,o),
(880,954,c),
(940,897,o),
(970,824,o),
(970,730,cs),
(970,0,l),
(1053,0,l),
(1053,757,ls),
(1053,816,o),
(1039,871,o),
(1008,927,c),
(975,983,o),
(931,1031,o),
(870,1066,c),
(810,1105,o),
(733,1123,o),
(643,1123,cs),
(574,1123,o),
(507,1110,o),
(437,1076,c),
(365,1046,o),
(306,992,o),
(259,914,c),
(273,907,l),
(273,1444,l),
(192,1436,l)
);
}
);
width = 1233;
}
);
leftKerningGroup = _b2;
rightKerningGroup = _a;
unicode = 104;
},
{
glyphname = k;
layers = (
{
layerId = "88C73509-728C-4DC8-993B-4895D781EEEF";
shapes = (
{
closed = 1;
nodes = (
(128,0,l),
(528,0,l),
(528,276,l),
(588,344,l),
(788,0,l),
(1258,0,l),
(878,606,l),
(1240,1040,l),
(780,1040,l),
(528,744,l),
(528,1460,l),
(128,1420,l)
);
}
);
width = 1272;
},
{
layerId = "7609694B-C902-4DC8-BC2F-8BF204A4C5AE";
shapes = (
{
closed = 1;
nodes = (
(167,0,l),
(372,0,l),
(372,353,l),
(533,514,l),
(863,0,l),
(1110,0,l),
(682,648,l),
(1050,1040,l),
(806,1040,l),
(372,598,l),
(372,1450,l),
(167,1430,l)
);
}
);
width = 1160;
},
{
layerId = "90133A7B-8BB4-4C15-92F3-A0E8B30B2A31";
shapes = (
{
closed = 1;
nodes = (
(192,0,l),
(273,0,l),
(273,402,l),
(498,621,l),
(910,0,l),
(1016,0,l),
(558,673,l),
(929,1040,l),
(822,1040,l),
(273,505,l),
(273,1444,l),
(192,1436,l)
);
}
);
width = 1088;
}
);
leftKerningGroup = _b2;
rightKerningGroup = _k;
unicode = 107;
},
{
glyphname = l;
layers = (
{
layerId = "88C73509-728C-4DC8-993B-4895D781EEEF";
shapes = (
{
closed = 1;
nodes = (
(582,-30,o),
(661,-15,o),
(738,6,c),
(690,320,l),
(663,313,o),
(636,304,o),
(608,304,cs),
(535,304,o),
(518,362,o),
(518,424,cs),
(518,1460,l),
(118,1420,l),
(118,382,ls),
(118,129,o),
(239,-30,o),
(502,-30,cs)
);
}
);
width = 770;
},
{
layerId = "7609694B-C902-4DC8-BC2F-8BF204A4C5AE";
shapes = (
{
closed = 1;
nodes = (
(497,-30,o),
(561,-15,o),
(620,6,c),
(582,176,l),
(550,165,o),
(512,152,o),
(478,152,cs),
(373,152,o),
(362,235,o),
(362,321,cs),
(362,1450,l),
(157,1430,l),
(157,251,ls),
(157,73,o),
(255,-30,o),
(434,-30,cs)
);
}
);
width = 676;
},
{
layerId = "90133A7B-8BB4-4C15-92F3-A0E8B30B2A31";
shapes = (
{
closed = 1;
nodes = (
(443,-30,o),
(498,-14,o),
(546,6,c),
(513,85,l),
(477,70,o),
(436,56,o),
(396,56,cs),
(270,56,o),
(263,155,o),
(263,256,cs),
(263,1444,l),
(181,1436,l),
(181,168,ls),
(181,37,o),
(264,-30,o),
(391,-30,cs)
);
}
);
width = 617;
}
);
leftKerningGroup = _b2;
rightKerningGroup = _d;
tags = (asc,lc);
unicode = 108;
},
{
glyphname = m;
layers = (
{
layerId = "88C73509-728C-4DC8-993B-4895D781EEEF";
shapes = (
{
closed = 1;
nodes = (
(128,0,l),
(528,0,l),
(528,586,ls),
(528,631,o),
(552,670,o),
(596,693,c),
(619,704,o),
(644,710,o),
(672,710,cs),
(720,710,o),
(754,696,o),
(781,667,c),
(805,638,o),
(818,599,o),
(818,548,cs),
(818,0,l),
(1218,0,l),
(1218,586,ls),
(1218,631,o),
(1242,670,o),
(1286,693,c),
(1309,704,o),
(1334,710,o),
(1362,710,cs),
(1410,710,o),
(1444,696,o),
(1471,667,c),
(1495,638,o),
(1508,599,o),
(1508,548,cs),
(1508,0,l),
(1908,0,l),
(1908,662,ls),
(1908,735,o),
(1895,800,o),
(1874,861,c),
(1849,925,o),
(1810,975,o),
(1750,1012,c),
(1690,1052,o),
(1612,1070,o),
(1508,1070,cs),
(1427,1070,o),
(1351,1053,o),
(1282,1024,c),
(1213,991,o),
(1163,947,o),
(1128,886,c),
(1109,946,o),
(1075,990,o),
(1019,1022,cs),
(963,1054,o),
(902,1070,o),
(830,1070,cs),
(754,1070,o),
(676,1046,o),
(612,1003,c),
(579,979,o),
(552,952,o),
(528,920,c),
(528,1040,l),
(128,1040,l)
);
}
);
width = 2026;
},
{
layerId = "7609694B-C902-4DC8-BC2F-8BF204A4C5AE";
shapes = (
{
closed = 1;
nodes = (
(167,0,l),
(372,0,l),
(372,608,ls),
(372,719,o),
(423,802,o),
(509,847,cs),
(553,871,o),
(600,880,o),
(651,880,cs),
(733,880,o),
(791,861,o),
(835,813,c),
(876,765,o),
(896,705,o),
(896,629,cs),
(896,0,l),
(1101,0,l),
(1101,608,ls),
(1101,719,o),
(1152,802,o),
(1238,847,cs),
(1282,871,o),
(1328,880,o),
(1380,880,cs),
(1461,880,o),
(1520,861,o),
(1563,813,c),
(1604,765,o),
(1625,705,o),
(1625,629,cs),
(1625,0,l),
(1830,0,l),
(1830,689,ls),
(1830,753,o),
(1817,813,o),
(1793,870,c),
(1765,932,o),
(1726,979,o),
(1667,1015,c),
(1609,1054,o),
(1534,1070,o),
(1438,1070,cs),
(1372,1070,o),
(1303,1057,o),
(1234,1032,c),
(1165,1001,o),
(1106,951,o),
(1050,871,c),
(1026,929,o),
(988,978,o),
(931,1015,cs),
(873,1053,o),
(802,1070,o),
(713,1070,cs),
(629,1070,o),
(547,1047,o),
(473,997,c),
(436,969,o),
(403,935,o),
(372,893,c),
(372,1040,l),
(167,1040,l)
);
}
);
width = 1986;
},
{
layerId = "90133A7B-8BB4-4C15-92F3-A0E8B30B2A31";
shapes = (
{
closed = 1;
nodes = (
(192,0,l),
(273,0,l),
(273,621,ls),
(273,774,o),
(342,885,o),
(454,944,c),
(510,976,o),
(572,987,o),
(636,987,cs),
(741,987,o),
(814,964,o),
(869,905,c),
(920,846,o),
(945,773,o),
(945,679,cs),
(945,0,l),
(1027,0,l),
(1027,621,ls),
(1027,774,o),
(1096,885,o),
(1208,944,c),
(1264,976,o),
(1325,987,o),
(1390,987,cs),
(1493,987,o),
(1567,964,o),
(1622,905,c),
(1673,846,o),
(1699,773,o),
(1699,679,cs),
(1699,0,l),
(1780,0,l),
(1780,705,ls),
(1780,763,o),
(1767,821,o),
(1741,876,cs),
(1712,936,o),
(1672,981,o),
(1614,1017,c),
(1557,1055,o),
(1484,1070,o),
(1394,1070,cs),
(1337,1070,o),
(1273,1060,o),
(1203,1036,c),
(1134,1007,o),
(1069,953,o),
(1000,861,c),
(973,919,o),
(932,970,o),
(875,1011,cs),
(817,1052,o),
(739,1070,o),
(639,1070,cs),
(549,1070,o),
(465,1048,o),
(385,993,c),
(345,962,o),
(309,925,o),
(273,877,c),
(273,1040,l),
(192,1040,l)
);
}
);
width = 1961;
}
);
leftKerningGroup = _m;
rightKerningGroup = _a;
unicode = 109;
},
{
glyphname = n;
layers = (
{
layerId = "88C73509-728C-4DC8-993B-4895D781EEEF";
shapes = (
{
closed = 1;
nodes = (
(128,0,l),
(528,0,l),
(528,536,ls),
(528,605,o),
(555,658,o),
(602,689,c),
(627,702,o),
(657,710,o),
(690,710,cs),
(746,710,o),
(784,697,o),
(811,665,cs),
(835,636,o),
(848,592,o),
(848,536,cs),
(848,0,l),
(1248,0,l),
(1248,662,ls),
(1248,735,o),
(1235,800,o),
(1204,861,cs),
(1172,925,o),
(1127,975,o),
(1062,1012,c),
(998,1052,o),
(917,1070,o),
(816,1070,cs),
(760,1070,o),
(708,1060,o),
(657,1040,cs),
(606,1019,o),
(564,987,o),
(528,944,c),
(528,1040,l),
(128,1040,l)
);
}
);
width = 1366;
},
{
layerId = "7609694B-C902-4DC8-BC2F-8BF204A4C5AE";
shapes = (
{
closed = 1;
nodes = (
(167,0,l),
(372,0,l),
(372,593,ls),
(372,711,o),
(427,798,o),
(511,847,c),
(555,870,o),
(604,880,o),
(656,880,cs),
(740,880,o),
(805,861,o),
(853,812,cs),
(899,766,o),
(923,703,o),
(923,625,cs),
(923,0,l),
(1129,0,l),
(1129,689,ls),
(1129,753,o),
(1115,813,o),
(1084,870,cs),
(1051,932,o),
(1009,979,o),
(944,1015,c),
(882,1054,o),
(806,1070,o),
(709,1070,cs),
(647,1070,o),
(588,1059,o),
(528,1033,cs),
(467,1006,o),
(417,963,o),
(372,902,c),
(372,1040,l),
(167,1040,l)
);
}
);
width = 1285;
},
{
layerId = "90133A7B-8BB4-4C15-92F3-A0E8B30B2A31";
shapes = (
{
closed = 1;
nodes = (
(192,0,l),
(273,0,l),
(273,628,ls),
(273,777,o),
(346,885,o),
(453,946,c),
(509,975,o),
(570,987,o),
(634,987,cs),
(737,987,o),
(818,964,o),
(880,904,c),
(940,847,o),
(970,772,o),
(970,681,cs),
(970,0,l),
(1053,0,l),
(1053,705,ls),
(1053,763,o),
(1039,821,o),
(1008,876,cs),
(974,936,o),
(934,981,o),
(869,1017,c),
(808,1055,o),
(735,1070,o),
(641,1070,cs),
(575,1070,o),
(512,1058,o),
(446,1027,cs),
(379,997,o),
(323,947,o),
(273,875,c),
(273,1040,l),
(192,1040,l)
);
}
);
width = 1233;
}
);
leftKerningGroup = _m;
rightKerningGroup = _a;
unicode = 110;
},
{
glyphname = o;
layers = (
{
layerId = "88C73509-728C-4DC8-993B-4895D781EEEF";
shapes = (
{
closed = 1;
nodes = (
(817,-30,o),
(959,33,o),
(1064,137,cs),
(1168,242,o),
(1226,375,o),
(1226,520,cs),
(1226,621,o),
(1201,711,o),
(1152,795,cs),
(1103,880,o),
(1034,946,o),
(946,995,cs),
(854,1047,o),
(758,1070,o),
(638,1070,cs),
(462,1070,o),
(319,1008,o),
(215,904,cs),
(110,799,o),
(50,665,o),
(50,520,cs),
(50,420,o),
(74,330,o),
(126,245,c),
(175,161,o),
(241,95,o),
(333,46,c),
(421,-6,o),
(521,-30,o),
(638,-30,cs)
);
},
{
closed = 1;
nodes = (
(562,310,o),
(501,344,o),
(466,409,c),
(446,440,o),
(438,477,o),
(438,520,cs),
(438,608,o),
(475,672,o),
(536,705,cs),
(568,722,o),
(599,730,o),
(638,730,cs),
(715,730,o),
(778,697,o),
(813,632,c),
(830,603,o),
(838,563,o),
(838,520,cs),
(838,432,o),
(801,371,o),
(740,336,cs),
(711,319,o),
(677,310,o),
(638,310,cs)
);
}
);
width = 1276;
},
{
layerId = "7609694B-C902-4DC8-BC2F-8BF204A4C5AE";
shapes = (
{
closed = 1;
nodes = (
(802,-30,o),
(938,31,o),
(1039,133,c),
(1140,237,o),
(1196,369,o),
(1196,520,cs),
(1196,623,o),
(1172,713,o),
(1124,796,c),
(1076,882,o),
(1010,948,o),
(926,997,cs),
(838,1049,o),
(748,1070,o),
(636,1070,cs),
(473,1070,o),
(337,1011,o),
(236,909,c),
(135,805,o),
(76,671,o),
(76,520,cs),
(76,420,o),
(99,330,o),
(149,245,cs),
(197,161,o),
(261,94,o),
(348,45,c),
(433,-7,o),
(528,-30,o),
(636,-30,cs)
);
},
{
closed = 1;
nodes = (
(498,153,o),
(393,212,o),
(330,326,c),
(298,381,o),
(284,443,o),
(284,520,cs),
(284,673,o),
(346,785,o),
(453,843,cs),
(509,873,o),
(566,886,o),
(636,886,cs),
(775,886,o),
(883,830,o),
(945,716,cs),
(975,662,o),
(989,597,o),
(989,520,cs),
(989,367,o),
(927,260,o),
(818,198,c),
(767,168,o),
(706,153,o),
(636,153,cs)
);
}
);
width = 1272;
},
{
layerId = "90133A7B-8BB4-4C15-92F3-A0E8B30B2A31";
shapes = (
{
closed = 1;
nodes = (
(792,-30,o),
(923,29,o),
(1023,130,c),
(1122,234,o),
(1177,366,o),
(1177,520,cs),
(1177,624,o),
(1153,714,o),
(1105,796,c),
(1060,883,o),
(995,949,o),
(914,998,cs),
(828,1050,o),
(741,1070,o),
(634,1070,cs),
(480,1070,o),
(347,1013,o),
(249,912,cs),
(150,808,o),
(92,674,o),
(92,520,cs),
(92,420,o),
(115,330,o),
(164,244,c),
(212,161,o),
(273,93,o),
(358,44,c),
(440,-8,o),
(532,-30,o),
(634,-30,cs)
);
},
{
closed = 1;
nodes = (
(457,54,o),
(324,129,o),
(244,273,c),
(204,343,o),
(185,422,o),
(185,520,cs),
(185,714,o),
(265,856,o),
(401,930,cs),
(471,969,o),
(545,985,o),
(634,985,cs),
(813,985,o),
(948,913,o),
(1028,769,cs),
(1066,699,o),
(1083,618,o),
(1083,520,cs),
(1083,326,o),
(1007,189,o),
(867,111,c),
(801,72,o),
(724,54,o),
(634,54,cs)
);
}
);
width = 1269;
}
);
leftKerningGroup = _c2;
rightKerningGroup = _b;
unicode = 111;
},
{
glyphname = p;
layers = (
{
layerId = "88C73509-728C-4DC8-993B-4895D781EEEF";
shapes = (
{
closed = 1;
nodes = (
(128,-400,l),
(526,-400,l),
(526,52,l),
(566,25,o),
(608,4,o),
(653,-9,cs),
(697,-22,o),
(745,-30,o),
(792,-30,cs),
(945,-30,o),
(1072,29,o),
(1168,129,c),
(1260,229,o),
(1314,363,o),
(1314,520,cs),
(1314,636,o),
(1294,730,o),
(1247,815,c),
(1203,899,o),
(1143,958,o),
(1063,1005,c),
(983,1049,o),
(897,1070,o),
(800,1070,cs),
(728,1070,o),
(666,1059,o),
(610,1036,cs),
(550,1012,o),
(505,981,o),
(468,938,c),
(468,1040,l),
(128,1040,l)
);
},
{
closed = 1;
nodes = (
(650,310,o),
(587,344,o),
(552,409,cs),
(535,440,o),
(526,477,o),
(526,520,cs),
(526,608,o),
(565,672,o),
(626,705,c),
(655,722,o),
(690,730,o),
(726,730,cs),
(803,730,o),
(864,697,o),
(901,632,cs),
(918,603,o),
(926,563,o),
(926,520,cs),
(926,432,o),
(890,371,o),
(830,336,c),
(798,319,o),
(765,310,o),
(726,310,cs)
);
}
);
width = 1364;
},
{
layerId = "7609694B-C902-4DC8-BC2F-8BF204A4C5AE";
shapes = (
{
closed = 1;
nodes = (
(167,-400,l),
(372,-400,l),
(372,143,l),
(416,92,o),
(469,47,o),
(534,17,cs),
(599,-14,o),
(675,-30,o),
(759,-30,cs),
(915,-30,o),
(1044,29,o),
(1140,131,c),
(1233,234,o),
(1285,367,o),
(1285,520,cs),
(1285,628,o),
(1265,717,o),
(1219,802,cs),
(1175,886,o),
(1115,951,o),
(1035,1001,c),
(953,1050,o),
(864,1070,o),
(762,1070,cs),
(662,1070,o),
(583,1056,o),
(518,1022,c),
(451,985,o),
(399,943,o),
(354,886,c),
(354,1040,l),
(167,1040,l)
);
},
{
closed = 1;
nodes = (
(587,153,o),
(479,212,o),
(418,326,cs),
(388,381,o),
(372,443,o),
(372,520,cs),
(372,673,o),
(436,785,o),
(543,843,c),
(596,873,o),
(656,886,o),
(725,886,cs),
(863,886,o),
(970,830,o),
(1034,716,cs),
(1064,662,o),
(1077,597,o),
(1077,520,cs),
(1077,367,o),
(1015,260,o),
(908,198,c),
(853,168,o),
(794,153,o),
(725,153,cs)
);
}
);
width = 1360;
},
{
layerId = "90133A7B-8BB4-4C15-92F3-A0E8B30B2A31";
shapes = (
{
closed = 1;
nodes = (
(192,-400,l),
(273,-400,l),
(273,201,l),
(322,133,o),
(381,75,o),
(459,33,cs),
(537,-8,o),
(631,-30,o),
(738,-30,cs),
(896,-30,o),
(1025,28,o),
(1121,132,cs),
(1217,237,o),
(1266,369,o),
(1266,520,cs),
(1266,622,o),
(1246,708,o),
(1200,794,cs),
(1156,878,o),
(1096,945,o),
(1017,998,c),
(934,1050,o),
(843,1070,o),
(737,1070,cs),
(619,1070,o),
(530,1053,o),
(459,1012,c),
(388,967,o),
(331,918,o),
(282,853,c),
(282,1040,l),
(192,1040,l)
);
},
{
closed = 1;
nodes = (
(546,54,o),
(411,129,o),
(333,273,cs),
(294,343,o),
(273,422,o),
(273,520,cs),
(273,714,o),
(355,856,o),
(491,930,c),
(558,969,o),
(634,985,o),
(724,985,cs),
(901,985,o),
(1038,913,o),
(1117,769,cs),
(1156,699,o),
(1173,618,o),
(1173,520,cs),
(1173,326,o),
(1093,189,o),
(957,111,c),
(887,72,o),
(812,54,o),
(724,54,cs)
);
}
);
width = 1357;
}
);
leftKerningGroup = _m;
rightKerningGroup = _b;
unicode = 112;
},
{
glyphname = q;
layers = (
{
layerId = "88C73509-728C-4DC8-993B-4895D781EEEF";
shapes = (
{
closed = 1;
nodes = (
(838,-400,l),
(1236,-400,l),
(1236,1040,l),
(896,1040,l),
(896,758,l),
(950,848,l),
(917,937,o),
(841,1005,o),
(736,1044,cs),
(683,1063,o),
(628,1070,o),
(564,1070,cs),
(419,1070,o),
(291,1020,o),
(199,924,cs),
(103,827,o),
(50,693,o),
(50,520,cs),
(50,416,o),
(73,324,o),
(117,239,c),
(164,155,o),
(222,91,o),
(302,42,c),
(383,-5,o),
(472,-30,o),
(572,-30,cs),
(644,-30,o),
(708,-16,o),
(769,11,c),
(829,39,o),
(882,80,o),
(930,140,c),
(838,232,l)
);
},
{
closed = 1;
nodes = (
(562,310,o),
(499,344,o),
(464,409,cs),
(447,440,o),
(438,477,o),
(438,520,cs),
(438,608,o),
(477,672,o),
(538,705,c),
(567,722,o),
(602,730,o),
(638,730,cs),
(715,730,o),
(776,697,o),
(813,632,cs),
(830,603,o),
(838,563,o),
(838,520,cs),
(838,432,o),
(802,371,o),
(742,336,c),
(710,319,o),
(677,310,o),
(638,310,cs)
);
}
);
width = 1364;
},
{
layerId = "7609694B-C902-4DC8-BC2F-8BF204A4C5AE";
shapes = (
{
closed = 1;
nodes = (
(989,-400,l),
(1193,-400,l),
(1193,1040,l),
(1006,1040,l),
(1006,794,l),
(1035,841,l),
(983,930,o),
(906,1002,o),
(793,1044,cs),
(736,1064,o),
(673,1070,o),
(599,1070,cs),
(445,1070,o),
(318,1014,o),
(224,915,cs),
(128,813,o),
(76,679,o),
(76,520,cs),
(76,419,o),
(98,328,o),
(142,243,c),
(189,159,o),
(249,94,o),
(327,43,c),
(409,-5,o),
(498,-30,o),
(601,-30,cs),
(701,-30,o),
(785,-13,o),
(856,29,cs),
(925,69,o),
(983,122,o),
(1029,189,c),
(989,235,l)
);
},
{
closed = 1;
nodes = (
(498,153,o),
(391,212,o),
(329,326,cs),
(299,381,o),
(284,443,o),
(284,520,cs),
(284,673,o),
(348,785,o),
(455,843,c),
(507,873,o),
(567,886,o),
(636,886,cs),
(775,886,o),
(882,830,o),
(945,716,cs),
(975,662,o),
(989,597,o),
(989,520,cs),
(989,367,o),
(926,260,o),
(820,198,c),
(765,168,o),
(705,153,o),
(636,153,cs)
);
}
);
width = 1360;
},
{
layerId = "90133A7B-8BB4-4C15-92F3-A0E8B30B2A31";
shapes = (
{
closed = 1;
nodes = (
(1083,-400,l),
(1165,-400,l),
(1165,1040,l),
(1075,1040,l),
(1075,817,l),
(1089,837,l),
(1024,924,o),
(947,999,o),
(828,1043,cs),
(770,1064,o),
(701,1070,o),
(620,1070,cs),
(461,1070,o),
(334,1011,o),
(239,909,c),
(144,804,o),
(92,670,o),
(92,520,cs),
(92,421,o),
(114,331,o),
(158,245,c),
(204,162,o),
(265,96,o),
(343,43,c),
(425,-5,o),
(514,-30,o),
(619,-30,cs),
(738,-30,o),
(834,-10,o),
(911,39,cs),
(985,88,o),
(1047,149,o),
(1092,220,c),
(1083,237,l)
);
},
{
closed = 1;
nodes = (
(457,54,o),
(322,129,o),
(243,273,cs),
(205,343,o),
(185,422,o),
(185,520,cs),
(185,714,o),
(266,856,o),
(402,930,c),
(469,969,o),
(545,985,o),
(634,985,cs),
(813,985,o),
(948,913,o),
(1028,769,cs),
(1066,699,o),
(1083,618,o),
(1083,520,cs),
(1083,326,o),
(1004,189,o),
(869,111,c),
(799,72,o),
(723,54,o),
(634,54,cs)
);
}
);
width = 1357;
}
);
leftKerningGroup = _c2;
unicode = 113;
},
{
glyphname = r;
layers = (
{
layerId = "88C73509-728C-4DC8-993B-4895D781EEEF";
shapes = (
{
closed = 1;
nodes = (
(128,0,l),
(528,0,l),
(528,506,ls),
(528,566,o),
(546,611,o),
(579,638,cs),
(615,666,o),
(656,678,o),
(708,678,cs),
(764,678,o),
(823,669,o),
(872,648,c),
(918,1058,l),
(882,1066,o),
(850,1070,o),
(802,1070,cs),
(741,1070,o),
(691,1060,o),
(640,1039,c),
(592,1015,o),
(556,979,o),
(528,932,c),
(528,1040,l),
(128,1040,l)
);
}
);
width = 936;
},
{
layerId = "7609694B-C902-4DC8-BC2F-8BF204A4C5AE";
shapes = (
{
closed = 1;
nodes = (
(167,0,l),
(372,0,l),
(372,575,ls),
(372,665,o),
(400,737,o),
(455,787,cs),
(512,841,o),
(580,865,o),
(666,865,cs),
(707,865,o),
(750,862,o),
(789,848,c),
(820,1061,l),
(782,1070,o),
(744,1070,o),
(704,1070,cs),
(636,1070,o),
(579,1059,o),
(520,1033,c),
(463,1005,o),
(415,959,o),
(372,891,c),
(372,1040,l),
(167,1040,l)
);
}
);
width = 854;
},
{
layerId = "90133A7B-8BB4-4C15-92F3-A0E8B30B2A31";
shapes = (
{
closed = 1;
nodes = (
(192,0,l),
(273,0,l),
(273,618,ls),
(273,728,o),
(307,815,o),
(377,881,c),
(447,952,o),
(533,983,o),
(639,983,cs),
(670,983,o),
(703,983,o),
(737,975,c),
(757,1063,l),
(719,1072,o),
(676,1070,o),
(642,1070,cs),
(570,1070,o),
(507,1058,o),
(444,1030,c),
(381,999,o),
(325,947,o),
(273,864,c),
(273,1040,l),
(192,1040,l)
);
}
);
width = 802;
}
);
leftKerningGroup = _m;
rightKerningGroup = _r;
unicode = 114;
},
{
glyphname = s;
layers = (
{
layerId = "88C73509-728C-4DC8-993B-4895D781EEEF";
shapes = (
{
closed = 1;
nodes = (
(731,-30,o),
(874,34,o),
(954,142,cs),
(993,194,o),
(1013,258,o),
(1013,329,cs),
(1013,425,o),
(982,496,o),
(918,547,c),
(850,597,o),
(744,640,o),
(588,669,c),
(524,684,o),
(481,693,o),
(465,700,c),
(446,707,o),
(437,718,o),
(437,732,cs),
(437,747,o),
(450,760,o),
(471,768,cs),
(495,776,o),
(522,780,o),
(560,780,cs),
(633,780,o),
(711,762,o),
(787,731,cs),
(823,716,o),
(857,700,o),
(886,677,c),
(997,943,l),
(941,982,o),
(876,1015,o),
(796,1037,cs),
(716,1059,o),
(634,1070,o),
(546,1070,cs),
(365,1070,o),
(227,1009,o),
(147,905,cs),
(108,853,o),
(88,792,o),
(88,721,cs),
(88,621,o),
(119,543,o),
(191,487,c),
(258,428,o),
(365,390,o),
(509,369,c),
(573,361,o),
(613,353,o),
(636,346,c),
(657,341,o),
(665,328,o),
(665,314,cs),
(665,279,o),
(625,260,o),
(536,260,cs),
(481,260,o),
(421,270,o),
(354,291,c),
(286,314,o),
(222,338,o),
(161,373,c),
(46,107,l),
(110,62,o),
(180,30,o),
(263,7,cs),
(348,-17,o),
(437,-30,o),
(540,-30,cs)
);
}
);
width = 1088;
},
{
layerId = "7609694B-C902-4DC8-BC2F-8BF204A4C5AE";
shapes = (
{
closed = 1;
nodes = (
(672,-30,o),
(797,29,o),
(866,123,cs),
(900,170,o),
(917,227,o),
(917,292,cs),
(917,377,o),
(890,445,o),
(834,491,cs),
(775,539,o),
(684,578,o),
(553,606,c),
(465,628,o),
(403,648,o),
(368,669,c),
(330,690,o),
(311,721,o),
(311,767,cs),
(311,810,o),
(332,846,o),
(368,869,cs),
(408,894,o),
(455,906,o),
(518,906,cs),
(597,906,o),
(672,887,o),
(739,852,c),
(772,836,o),
(802,816,o),
(825,792,c),
(902,946,l),
(852,987,o),
(800,1017,o),
(730,1039,c),
(665,1058,o),
(594,1070,o),
(516,1070,cs),
(362,1070,o),
(242,1014,o),
(174,920,cs),
(139,873,o),
(124,821,o),
(124,759,cs),
(124,672,o),
(152,607,o),
(210,559,c),
(267,508,o),
(358,470,o),
(486,443,cs),
(580,422,o),
(642,399,o),
(679,378,c),
(712,357,o),
(729,324,o),
(729,281,cs),
(729,190,o),
(647,135,o),
(503,135,cs),
(445,135,o),
(387,145,o),
(328,167,cs),
(269,189,o),
(215,218,o),
(169,256,c),
(88,104,l),
(138,62,o),
(197,32,o),
(271,8,cs),
(345,-17,o),
(420,-30,o),
(503,-30,cs)
);
}
);
width = 1033;
},
{
layerId = "90133A7B-8BB4-4C15-92F3-A0E8B30B2A31";
shapes = (
{
closed = 1;
nodes = (
(634,-30,o),
(748,23,o),
(810,111,cs),
(841,154,o),
(855,208,o),
(855,267,cs),
(855,347,o),
(831,413,o),
(781,454,cs),
(726,501,o),
(646,539,o),
(531,566,c),
(428,593,o),
(353,620,o),
(305,648,cs),
(256,678,o),
(230,723,o),
(230,789,cs),
(230,850,o),
(257,900,o),
(303,932,cs),
(353,968,o),
(414,986,o),
(490,986,cs),
(574,986,o),
(647,965,o),
(709,928,cs),
(738,911,o),
(765,890,o),
(787,864,c),
(842,948,l),
(796,990,o),
(750,1019,o),
(689,1040,c),
(631,1058,o),
(569,1070,o),
(497,1070,cs),
(360,1070,o),
(252,1017,o),
(190,930,c),
(160,885,o),
(146,839,o),
(146,783,cs),
(146,704,o),
(171,646,o),
(222,603,c),
(273,558,o),
(354,520,o),
(471,489,cs),
(586,459,o),
(661,427,o),
(706,397,c),
(747,367,o),
(769,321,o),
(769,260,cs),
(769,134,o),
(660,54,o),
(482,54,cs),
(422,54,o),
(365,67,o),
(312,89,cs),
(257,112,o),
(209,142,o),
(175,181,c),
(115,101,l),
(154,62,o),
(207,33,o),
(275,8,cs),
(342,-17,o),
(410,-30,o),
(479,-30,cs)
);
}
);
width = 999;
}
);
leftKerningGroup = _s2;
rightKerningGroup = _s;
unicode = 115;
},
{
glyphname = t;
layers = (
{
layerId = "88C73509-728C-4DC8-993B-4895D781EEEF";
shapes = (
{
closed = 1;
nodes = (
(711,-30,o),
(813,4,o),
(878,40,c),
(834,350,l),
(799,331,o),
(756,320,o),
(719,320,cs),
(688,320,o),
(662,329,o),
(639,348,cs),
(615,367,o),
(604,397,o),
(604,440,cs),
(604,728,l),
(820,728,l),
(820,1040,l),
(604,1040,l),
(604,1354,l),
(204,1314,l),
(204,378,ls),
(204,245,o),
(240,143,o),
(309,74,cs),
(378,5,o),
(473,-30,o),
(598,-30,cs)
);
},
{
closed = 1;
nodes = (
(20,728,l),
(236,728,l),
(236,1040,l),
(20,1040,l)
);
}
);
width = 930;
},
{
layerId = "7609694B-C902-4DC8-BC2F-8BF204A4C5AE";
shapes = (
{
closed = 1;
nodes = (
(679,-30,o),
(755,-10,o),
(814,20,c),
(773,187,l),
(740,170,o),
(693,159,o),
(645,159,cs),
(590,159,o),
(551,173,o),
(522,205,cs),
(492,238,o),
(479,291,o),
(479,367,cs),
(479,868,l),
(778,868,l),
(778,1040,l),
(479,1040,l),
(479,1344,l),
(274,1324,l),
(274,318,ls),
(274,200,o),
(305,111,o),
(365,54,cs),
(424,-3,o),
(501,-30,o),
(599,-30,cs)
);
},
{
closed = 1;
nodes = (
(38,868,l),
(303,868,l),
(303,1040,l),
(38,1040,l)
);
}
);
width = 901;
},
{
layerId = "90133A7B-8BB4-4C15-92F3-A0E8B30B2A31";
shapes = (
{
closed = 1;
nodes = (
(658,-30,o),
(718,-18,o),
(773,7,c),
(734,84,l),
(702,68,o),
(653,56,o),
(598,56,cs),
(528,56,o),
(480,74,o),
(448,115,c),
(414,156,o),
(399,223,o),
(399,321,cs),
(399,955,l),
(751,955,l),
(751,1040,l),
(399,1040,l),
(399,1338,l),
(317,1330,l),
(317,280,ls),
(317,171,o),
(346,90,o),
(399,41,cs),
(452,-7,o),
(519,-30,o),
(600,-30,cs)
);
},
{
closed = 1;
nodes = (
(48,955,l),
(344,955,l),
(344,1040,l),
(48,1040,l)
);
}
);
width = 882;
}
);
leftKerningGroup = _t2;
rightKerningGroup = _t;
unicode = 116;
},
{
glyphname = u;
layers = (
{
layerId = "88C73509-728C-4DC8-993B-4895D781EEEF";
shapes = (
{
closed = 1;
nodes = (
(629,-30,o),
(696,-15,o),
(743,14,cs),
(791,43,o),
(829,73,o),
(858,102,c),
(858,0,l),
(1198,0,l),
(1198,1040,l),
(798,1040,l),
(798,482,ls),
(798,422,o),
(775,376,o),
(734,351,cs),
(711,338,o),
(688,330,o),
(656,330,cs),
(611,330,o),
(576,344,o),
(552,371,c),
(531,398,o),
(518,434,o),
(518,482,cs),
(518,1040,l),
(118,1040,l),
(118,428,ls),
(118,332,o),
(133,252,o),
(165,184,c),
(194,115,o),
(239,62,o),
(303,25,cs),
(367,-11,o),
(444,-30,o),
(540,-30,cs)
);
}
);
width = 1326;
},
{
layerId = "7609694B-C902-4DC8-BC2F-8BF204A4C5AE";
shapes = (
{
closed = 1;
nodes = (
(640,-30,o),
(704,-17,o),
(761,10,cs),
(818,37,o),
(867,75,o),
(910,126,c),
(910,0,l),
(1097,0,l),
(1097,1040,l),
(892,1040,l),
(892,440,ls),
(892,328,o),
(840,241,o),
(758,195,cs),
(715,171,o),
(670,159,o),
(617,159,cs),
(537,159,o),
(476,182,o),
(430,228,c),
(386,275,o),
(362,333,o),
(362,409,cs),
(362,1040,l),
(157,1040,l),
(157,366,ls),
(157,298,o),
(172,232,o),
(203,173,c),
(230,112,o),
(275,63,o),
(338,25,cs),
(400,-12,o),
(474,-30,o),
(567,-30,cs)
);
}
);
width = 1264;
},
{
layerId = "90133A7B-8BB4-4C15-92F3-A0E8B30B2A31";
shapes = (
{
closed = 1;
nodes = (
(647,-30,o),
(708,-18,o),
(771,7,cs),
(834,33,o),
(891,76,o),
(943,141,c),
(943,0,l),
(1032,0,l),
(1032,1040,l),
(951,1040,l),
(951,413,ls),
(951,268,o),
(881,155,o),
(773,96,cs),
(717,65,o),
(658,51,o),
(592,51,cs),
(490,51,o),
(413,79,o),
(352,138,c),
(294,197,o),
(263,270,o),
(263,362,cs),
(263,1040,l),
(181,1040,l),
(181,327,ls),
(181,276,o),
(196,220,o),
(227,166,c),
(253,109,o),
(298,63,o),
(359,25,cs),
(421,-13,o),
(493,-30,o),
(583,-30,cs)
);
}
);
width = 1224;
}
);
leftKerningGroup = _u2;
rightKerningGroup = _u;
unicode = 117;
},
{
glyphname = v;
layers = (
{
layerId = "88C73509-728C-4DC8-993B-4895D781EEEF";
shapes = (
{
closed = 1;
nodes = (
(364,0,l),
(832,0,l),
(1168,1040,l),
(752,1040,l),
(578,346,l),
(616,346,l),
(436,1040,l),
(10,1040,l)
);
}
);
width = 1178;
},
{
layerId = "7609694B-C902-4DC8-BC2F-8BF204A4C5AE";
shapes = (
{
closed = 1;
nodes = (
(429,0,l),
(662,0,l),
(1051,1040,l),
(830,1040,l),
(531,175,l),
(566,175,l),
(261,1040,l),
(35,1040,l)
);
}
);
width = 1086;
},
{
layerId = "90133A7B-8BB4-4C15-92F3-A0E8B30B2A31";
shapes = (
{
closed = 1;
nodes = (
(470,0,l),
(554,0,l),
(977,1040,l),
(880,1040,l),
(501,67,l),
(534,67,l),
(150,1040,l),
(50,1040,l)
);
}
);
width = 1027;
}
);
leftKerningGroup = _v2;
rightKerningGroup = _v;
unicode = 118;
},
{
glyphname = w;
layers = (
{
layerId = "88C73509-728C-4DC8-993B-4895D781EEEF";
shapes = (
{
closed = 1;
nodes = (
(312,0,l),
(704,0,l),
(862,558,l),
(1012,0,l),
(1404,0,l),
(1706,1040,l),
(1336,1040,l),
(1208,458,l),
(1048,1040,l),
(688,1040,l),
(526,458,l),
(392,1040,l),
(10,1040,l)
);
}
);
width = 1716;
},
{
layerId = "7609694B-C902-4DC8-BC2F-8BF204A4C5AE";
shapes = (
{
closed = 1;
nodes = (
(365,0,l),
(579,0,l),
(831,776,l),
(1071,0,l),
(1286,0,l),
(1616,1040,l),
(1420,1040,l),
(1179,238,l),
(940,1040,l),
(734,1040,l),
(478,238,l),
(242,1040,l),
(35,1040,l)
);
}
);
width = 1651;
},
{
layerId = "90133A7B-8BB4-4C15-92F3-A0E8B30B2A31";
shapes = (
{
closed = 1;
nodes = (
(399,0,l),
(501,0,l),
(810,913,l),
(1108,0,l),
(1211,0,l),
(1558,1040,l),
(1473,1040,l),
(1160,98,l),
(871,1040,l),
(763,1040,l),
(447,98,l),
(148,1040,l),
(50,1040,l)
);
}
);
width = 1610;
}
);
leftKerningGroup = _v2;
rightKerningGroup = _v;
unicode = 119;
},
{
glyphname = x;
layers = (
{
layerId = "88C73509-728C-4DC8-993B-4895D781EEEF";
shapes = (
{
closed = 1;
nodes = (
(20,-4,l),
(512,4,l),
(660,248,l),
(808,0,l),
(1320,0,l),
(952,512,l),
(1298,1040,l),
(802,1040,l),
(674,776,l),
(542,1040,l),
(38,1040,l),
(392,506,l)
);
}
);
width = 1340;
},
{
layerId = "7609694B-C902-4DC8-BC2F-8BF204A4C5AE";
shapes = (
{
closed = 1;
nodes = (
(35,-1,l),
(285,1,l),
(544,384,l),
(798,0,l),
(1061,0,l),
(686,531,l),
(1029,1040,l),
(779,1040,l),
(551,674,l),
(316,1040,l),
(57,1040,l),
(412,525,l)
);
}
);
width = 1095;
},
{
layerId = "90133A7B-8BB4-4C15-92F3-A0E8B30B2A31";
shapes = (
{
closed = 1;
nodes = (
(44,1,l),
(142,-1,l),
(470,470,l),
(791,0,l),
(896,0,l),
(518,543,l),
(859,1040,l),
(764,1040,l),
(473,609,l),
(173,1040,l),
(69,1040,l),
(424,537,l)
);
}
);
width = 940;
}
);
leftKerningGroup = _x2;
rightKerningGroup = _x;
unicode = 120;
},
{
glyphname = y;
layers = (
{
layerId = "88C73509-728C-4DC8-993B-4895D781EEEF";
shapes = (
{
closed = 1;
nodes = (
(457,-446,o),
(582,-400,o),
(686,-292,c),
(735,-236,o),
(779,-166,o),
(816,-74,c),
(1236,1040,l),
(814,1040,l),
(626,386,l),
(432,1040,l),
(0,1040,l),
(400,4,l),
(396,-12,ls),
(389,-40,o),
(373,-61,o),
(348,-72,c),
(323,-81,o),
(296,-88,o),
(264,-88,cs),
(215,-88,o),
(157,-73,o),
(112,-52,c),
(30,-384,l),
(111,-424,o),
(216,-446,o),
(324,-446,cs)
);
}
);
width = 1236;
},
{
layerId = "7609694B-C902-4DC8-BC2F-8BF204A4C5AE";
shapes = (
{
closed = 1;
nodes = (
(361,-446,o),
(451,-414,o),
(532,-324,c),
(568,-279,o),
(604,-215,o),
(635,-133,cs),
(1078,1040,l),
(860,1040,l),
(565,210,l),
(264,1040,l),
(38,1040,l),
(449,-20,l),
(421,-105,ls),
(405,-154,o),
(381,-195,o),
(352,-220,cs),
(324,-243,o),
(283,-257,o),
(231,-257,cs),
(191,-257,o),
(136,-242,o),
(91,-214,c),
(45,-391,l),
(115,-431,o),
(181,-446,o),
(251,-446,cs)
);
}
);
width = 1102;
},
{
layerId = "90133A7B-8BB4-4C15-92F3-A0E8B30B2A31";
shapes = (
{
closed = 1;
nodes = (
(300,-446,o),
(368,-422,o),
(433,-343,c),
(462,-306,o),
(492,-246,o),
(520,-170,c),
(978,1040,l),
(889,1040,l),
(526,98,l),
(157,1040,l),
(62,1040,l),
(480,-35,l),
(436,-164,ls),
(415,-226,o),
(387,-279,o),
(355,-314,c),
(324,-346,o),
(275,-363,o),
(210,-363,cs),
(176,-363,o),
(123,-349,o),
(78,-317,c),
(54,-395,l),
(117,-434,o),
(159,-446,o),
(204,-446,cs)
);
}
);
width = 1017;
}
);
leftKerningGroup = _y;
rightKerningGroup = _v;
unicode = 121;
},
{
glyphname = z;
layers = (
{
layerId = "88C73509-728C-4DC8-993B-4895D781EEEF";
shapes = (
{
closed = 1;
nodes = (
(80,0,l),
(990,0,l),
(990,350,l),
(606,350,l),
(982,780,l),
(982,1040,l),
(98,1040,l),
(98,690,l),
(486,690,l),
(80,260,l)
);
}
);
width = 1070;
},
{
layerId = "7609694B-C902-4DC8-BC2F-8BF204A4C5AE";
shapes = (
{
closed = 1;
nodes = (
(100,0,l),
(920,0,l),
(920,184,l),
(361,184,l),
(912,889,l),
(912,1040,l),
(110,1040,l),
(110,856,l),
(660,856,l),
(100,151,l)
);
}
);
width = 1021;
},
{
layerId = "90133A7B-8BB4-4C15-92F3-A0E8B30B2A31";
shapes = (
{
closed = 1;
nodes = (
(112,0,l),
(876,0,l),
(876,79,l),
(206,79,l),
(868,958,l),
(868,1040,l),
(117,1040,l),
(117,961,l),
(769,961,l),
(112,82,l)
);
}
);
width = 989;
}
);
leftKerningGroup = _z2;
rightKerningGroup = _z;
unicode = 122;
},
{
glyphname = braceleft;
layers = (
{
layerId = "88C73509-728C-4DC8-993B-4895D781EEEF";
shapes = (
{
closed = 1;
nodes = (
(666,40,l),
(602,39,o),
(562,46,o),
(537,67,cs),
(512,88,o),
(503,120,o),
(512,164,cs),
(566,442,ls),
(578,506,o),
(570,561,o),
(541,606,cs),
(512,649,o),
(463,677,o),
(394,690,c),
(394,692,l),
(526,715,o),
(586,810,o),
(562,938,cs),
(512,1216,l),
(497,1312,o),
(543,1349,o),
(666,1340,c),
(666,1606,l),
(478,1622,o),
(351,1594,o),
(271,1526,cs),
(191,1458,o),
(167,1349,o),
(196,1188,cs),
(240,948,ls),
(252,888,o),
(238,853,o),
(182,837,c),
(155,828,o),
(117,824,o),
(66,824,c),
(66,558,l),
(167,558,o),
(219,544,o),
(236,507,cs),
(245,488,o),
(247,465,o),
(240,434,c),
(196,190,ls),
(169,33,o),
(193,-77,o),
(273,-145,c),
(350,-213,o),
(478,-239,o),
(666,-226,c)
);
}
);
width = 732;
},
{
layerId = "7609694B-C902-4DC8-BC2F-8BF204A4C5AE";
shapes = (
{
closed = 1;
nodes = (
(572,-78,l),
(502,-81,o),
(457,-76,o),
(432,-55,c),
(407,-32,o),
(395,3,o),
(403,53,c),
(457,456,l),
(467,526,o),
(463,580,o),
(441,618,cs),
(419,654,o),
(379,678,o),
(318,690,c),
(318,692,l),
(435,713,o),
(476,787,o),
(456,925,c),
(403,1327,l),
(391,1431,o),
(435,1472,o),
(572,1458,c),
(572,1605,l),
(445,1622,o),
(355,1603,o),
(295,1554,cs),
(235,1505,o),
(213,1430,o),
(230,1322,c),
(285,917,l),
(298,835,o),
(287,795,o),
(234,779,c),
(207,769,o),
(168,765,o),
(114,765,c),
(114,618,l),
(223,618,o),
(271,606,o),
(285,560,cs),
(292,538,o),
(293,507,o),
(285,465,c),
(228,54,ls),
(214,-49,o),
(235,-125,o),
(295,-174,cs),
(352,-223,o),
(443,-239,o),
(572,-225,c)
);
}
);
width = 686;
},
{
layerId = "90133A7B-8BB4-4C15-92F3-A0E8B30B2A31";
shapes = (
{
closed = 1;
nodes = (
(513,-152,l),
(439,-157,o),
(389,-153,o),
(364,-132,c),
(339,-108,o),
(327,-71,o),
(334,-16,cs),
(388,465,ls),
(396,538,o),
(395,592,o),
(378,625,c),
(360,657,o),
(326,679,o),
(271,690,c),
(271,692,l),
(376,711,o),
(407,772,o),
(388,917,c),
(334,1396,l),
(323,1506,o),
(367,1549,o),
(513,1532,c),
(513,1604,l),
(424,1621,o),
(357,1609,o),
(310,1572,cs),
(263,1534,o),
(242,1480,o),
(251,1407,cs),
(313,898,l),
(326,801,o),
(318,758,o),
(267,742,c),
(240,731,o),
(200,728,o),
(144,728,c),
(144,656,l),
(257,656,o),
(304,645,o),
(315,594,c),
(321,569,o),
(321,534,o),
(313,484,c),
(249,-32,l),
(242,-101,o),
(262,-155,o),
(308,-192,cs),
(353,-229,o),
(421,-239,o),
(513,-224,c)
);
}
);
width = 657;
}
);
rightKerningGroup = _parenleft;
unicode = 123;
},
{
glyphname = bar;
layers = (
{
layerId = "88C73509-728C-4DC8-993B-4895D781EEEF";
shapes = (
{
closed = 1;
nodes = (
(200,-220,l),
(520,-220,l),
(520,1600,l),
(200,1600,l)
);
}
);
width = 720;
},
{
layerId = "7609694B-C902-4DC8-BC2F-8BF204A4C5AE";
shapes = (
{
closed = 1;
nodes = (
(200,-220,l),
(366,-220,l),
(366,1600,l),
(200,1600,l)
);
}
);
width = 566;
},
{
layerId = "90133A7B-8BB4-4C15-92F3-A0E8B30B2A31";
shapes = (
{
closed = 1;
nodes = (
(200,-220,l),
(269,-220,l),
(269,1600,l),
(200,1600,l)
);
}
);
width = 469;
}
);
leftKerningGroup = _bar2;
rightKerningGroup = _bar;
unicode = 124;
},
{
glyphname = braceright;
layers = (
{
layerId = "88C73509-728C-4DC8-993B-4895D781EEEF";
shapes = (
{
closed = 1;
nodes = (
(66,-226,l),
(254,-239,o),
(382,-213,o),
(462,-145,c),
(539,-77,o),
(565,33,o),
(536,190,cs),
(492,434,l),
(483,498,o),
(498,531,o),
(551,546,cs),
(578,554,o),
(615,558,o),
(666,558,c),
(666,824,l),
(566,824,o),
(515,840,o),
(498,875,cs),
(489,895,o),
(488,919,o),
(492,948,c),
(536,1188,ls),
(565,1349,o),
(542,1458,o),
(462,1526,cs),
(382,1594,o),
(254,1622,o),
(66,1606,c),
(66,1340,l),
(191,1349,o),
(237,1312,o),
(220,1216,cs),
(170,938,ls),
(147,810,o),
(209,715,o),
(338,692,c),
(338,690,l),
(270,677,o),
(222,649,o),
(193,606,cs),
(164,561,o),
(154,506,o),
(166,442,cs),
(220,164,ls),
(229,120,o),
(223,88,o),
(198,67,cs),
(173,46,o),
(130,39,o),
(66,40,c)
);
}
);
width = 732;
},
{
layerId = "7609694B-C902-4DC8-BC2F-8BF204A4C5AE";
shapes = (
{
closed = 1;
nodes = (
(114,-225,l),
(243,-239,o),
(334,-223,o),
(394,-174,c),
(452,-125,o),
(475,-49,o),
(458,54,c),
(401,465,l),
(391,549,o),
(401,591,o),
(453,606,cs),
(480,614,o),
(518,618,o),
(572,618,c),
(572,765,l),
(467,765,o),
(417,780,o),
(404,823,c),
(396,846,o),
(397,878,o),
(401,917,c),
(456,1322,l),
(473,1430,o),
(452,1505,o),
(392,1554,cs),
(333,1603,o),
(241,1622,o),
(114,1605,c),
(114,1458,l),
(253,1472,o),
(297,1431,o),
(283,1327,cs),
(230,925,ls),
(212,787,o),
(253,713,o),
(367,692,c),
(367,690,l),
(308,678,o),
(271,654,o),
(249,618,cs),
(227,580,o),
(219,526,o),
(229,456,cs),
(283,53,l),
(291,3,o),
(283,-32,o),
(258,-55,c),
(233,-76,o),
(184,-81,o),
(114,-78,c)
);
}
);
width = 686;
},
{
layerId = "90133A7B-8BB4-4C15-92F3-A0E8B30B2A31";
shapes = (
{
closed = 1;
nodes = (
(144,-224,l),
(236,-239,o),
(303,-229,o),
(351,-192,c),
(396,-155,o),
(417,-101,o),
(408,-32,c),
(343,484,l),
(332,581,o),
(339,628,o),
(391,644,cs),
(418,652,o),
(456,656,o),
(513,656,c),
(513,728,l),
(404,728,o),
(355,742,o),
(344,790,c),
(337,815,o),
(338,851,o),
(343,898,cs),
(406,1407,ls),
(414,1480,o),
(394,1534,o),
(348,1572,cs),
(301,1609,o),
(232,1621,o),
(144,1604,c),
(144,1532,l),
(292,1549,o),
(335,1506,o),
(323,1396,cs),
(268,917,l),
(253,772,o),
(281,711,o),
(386,692,c),
(386,690,l),
(332,679,o),
(301,657,o),
(283,625,c),
(266,592,o),
(260,538,o),
(269,465,cs),
(323,-16,ls),
(330,-71,o),
(320,-108,o),
(295,-132,c),
(270,-153,o),
(218,-157,o),
(144,-152,c)
);
}
);
width = 657;
}
);
leftKerningGroup = _parenright;
unicode = 125;
},
{
glyphname = asciitilde;
layers = (
{
layerId = "88C73509-728C-4DC8-993B-4895D781EEEF";
shapes = (
{
closed = 1;
nodes = (
(1022,460,o),
(1144,527,o),
(1236,656,c),
(1100,874,l),
(1036,778,o),
(959,732,o),
(874,732,cs),
(818,732,o),
(748,767,o),
(664,806,cs),
(580,845,o),
(494,880,o),
(410,880,cs),
(277,880,o),
(156,817,o),
(60,684,c),
(196,466,l),
(260,562,o),
(338,608,o),
(422,608,cs),
(479,608,o),
(549,573,o),
(633,534,cs),
(718,495,o),
(802,460,o),
(886,460,cs)
);
}
);
width = 1296;
},
{
layerId = "7609694B-C902-4DC8-BC2F-8BF204A4C5AE";
shapes = (
{
closed = 1;
nodes = (
(981,516,o),
(1082,569,o),
(1160,683,c),
(1080,803,l),
(1025,712,o),
(948,665,o),
(871,665,cs),
(812,665,o),
(743,700,o),
(665,739,cs),
(587,778,o),
(503,813,o),
(421,813,cs),
(314,813,o),
(213,761,o),
(134,645,c),
(216,532,l),
(274,617,o),
(349,664,o),
(425,664,cs),
(485,664,o),
(555,629,o),
(633,590,c),
(715,551,o),
(794,516,o),
(875,516,cs)
);
}
);
width = 1296;
},
{
layerId = "90133A7B-8BB4-4C15-92F3-A0E8B30B2A31";
shapes = (
{
closed = 1;
nodes = (
(954,551,o),
(1043,594,o),
(1113,699,c),
(1068,757,l),
(1018,671,o),
(941,622,o),
(869,622,cs),
(809,622,o),
(740,657,o),
(665,696,cs),
(590,735,o),
(509,770,o),
(428,770,cs),
(337,770,o),
(250,724,o),
(181,620,c),
(228,573,l),
(283,651,o),
(356,699,o),
(427,699,cs),
(488,699,o),
(558,664,o),
(633,625,c),
(712,586,o),
(788,551,o),
(868,551,cs)
);
}
);
width = 1296;
}
);
leftKerningGroup = _plus2;
rightKerningGroup = _plus;
unicode = 126;
},
{
glyphname = exclamdown;
layers = (
{
layerId = "88C73509-728C-4DC8-993B-4895D781EEEF";
shapes = (
{
closed = 1;
nodes = (
(114,-400,l),
(606,-400,l),
(542,504,l),
(178,504,l)
);
},
{
closed = 1;
nodes = (
(495,624,o),
(594,714,o),
(594,848,cs),
(594,985,o),
(493,1070,o),
(360,1070,cs),
(228,1070,o),
(126,981,o),
(126,848,cs),
(126,714,o),
(229,624,o),
(360,624,cs)
);
}
);
width = 720;
},
{
layerId = "7609694B-C902-4DC8-BC2F-8BF204A4C5AE";
shapes = (
{
closed = 1;
nodes = (
(203,-400,l),
(447,-400,l),
(414,571,l),
(236,571,l)
);
},
{
closed = 1;
nodes = (
(408,791,o),
(472,848,o),
(472,931,cs),
(472,1017,o),
(409,1070,o),
(325,1070,cs),
(243,1070,o),
(178,1012,o),
(178,931,cs),
(178,848,o),
(245,791,o),
(325,791,cs)
);
}
);
width = 664;
},
{
layerId = "90133A7B-8BB4-4C15-92F3-A0E8B30B2A31";
shapes = (
{
closed = 1;
nodes = (
(259,-400,l),
(347,-400,l),
(333,614,l),
(273,614,l)
);
},
{
closed = 1;
nodes = (
(353,896,o),
(395,932,o),
(395,983,cs),
(395,1038,o),
(356,1070,o),
(303,1070,cs),
(253,1070,o),
(211,1033,o),
(211,983,cs),
(211,933,o),
(255,896,o),
(303,896,cs)
);
}
);
width = 629;
}
);
leftKerningGroup = _colon2;
rightKerningGroup = _colon;
unicode = 161;
},
{
glyphname = cent;
layers = (
{
layerId = "88C73509-728C-4DC8-993B-4895D781EEEF";
shapes = (
{
closed = 1;
nodes = (
(531,-160,l),
(783,-160,l),
(783,10,l),
(778,10,l),
(870,26,o),
(947,51,o),
(1010,99,c),
(925,387,l),
(872,355,o),
(826,339,o),
(778,331,c),
(778,711,l),
(815,707,o),
(859,691,o),
(898,666,c),
(1022,923,l),
(958,981,o),
(860,1019,o),
(778,1030,c),
(783,1030,l),
(783,1200,l),
(531,1200,l),
(531,1028,l),
(537,1028,l),
(302,983,o),
(145,775,o),
(145,520,cs),
(145,262,o),
(304,54,o),
(537,12,c),
(531,12,l)
);
},
{
closed = 1;
nodes = (
(537,342,l),
(465,363,o),
(434,446,o),
(434,520,cs),
(434,588,o),
(462,692,o),
(537,701,c)
);
}
);
width = 1200;
},
{
layerId = "7609694B-C902-4DC8-BC2F-8BF204A4C5AE";
shapes = (
{
closed = 1;
nodes = (
(574,-169,l),
(730,-169,l),
(730,4,l),
(724,4,l),
(835,17,o),
(920,55,o),
(1000,124,c),
(918,265,l),
(872,220,o),
(803,186,o),
(729,176,c),
(729,867,l),
(791,862,o),
(852,836,o),
(901,798,c),
(991,932,l),
(913,999,o),
(822,1033,o),
(723,1037,c),
(730,1037,l),
(730,1209,l),
(574,1209,l),
(574,1032,l),
(580,1032,l),
(333,993,o),
(163,790,o),
(163,520,cs),
(163,245,o),
(335,42,o),
(580,6,c),
(574,6,l)
);
},
{
closed = 1;
nodes = (
(576,181,l),
(410,215,o),
(332,343,o),
(332,521,cs),
(332,703,o),
(411,833,o),
(576,862,c)
);
}
);
width = 1200;
},
{
layerId = "90133A7B-8BB4-4C15-92F3-A0E8B30B2A31";
shapes = (
{
closed = 1;
nodes = (
(602,-175,l),
(696,-175,l),
(696,1,l),
(690,1,l),
(812,11,o),
(904,57,o),
(994,139,c),
(912,187,l),
(871,134,o),
(788,90,o),
(697,77,c),
(697,966,l),
(776,959,o),
(848,927,o),
(903,881,c),
(970,938,l),
(885,1009,o),
(798,1041,o),
(689,1041,c),
(696,1041,l),
(696,1215,l),
(602,1215,l),
(602,1034,l),
(608,1034,l),
(352,999,o),
(175,799,o),
(175,520,cs),
(175,233,o),
(354,34,o),
(608,3,c),
(602,3,l)
);
},
{
closed = 1;
nodes = (
(601,79,l),
(376,121,o),
(267,278,o),
(267,522,cs),
(267,775,o),
(378,923,o),
(601,964,c)
);
}
);
width = 1200;
}
);
unicode = 162;
},
{
glyphname = sterling;
layers = (
{
layerId = "88C73509-728C-4DC8-993B-4895D781EEEF";
shapes = (
{
closed = 1;
nodes = (
(109,0,l),
(1148,0,l),
(1148,300,l),
(589,300,l),
(630,364,o),
(651,431,o),
(651,509,cs),
(651,573,o),
(628,655,o),
(612,743,cs),
(599,815,o),
(576,885,o),
(576,961,cs),
(576,1017,o),
(590,1063,o),
(619,1095,cs),
(643,1121,o),
(679,1136,o),
(725,1136,cs),
(807,1136,o),
(891,1108,o),
(990,1009,c),
(1124,1265,l),
(1046,1373,o),
(850,1440,o),
(717,1440,cs),
(520,1440,o),
(367,1362,o),
(283,1225,cs),
(241,1156,o),
(218,1082,o),
(218,999,cs),
(218,947,o),
(233,895,o),
(246,846,cs),
(258,796,o),
(273,748,o),
(288,700,cs),
(305,642,o),
(334,565,o),
(334,505,cs),
(334,402,o),
(306,349,o),
(242,321,c),
(208,308,o),
(163,294,o),
(109,287,c)
);
},
{
closed = 1;
nodes = (
(91,564,l),
(952,564,l),
(952,816,l),
(91,816,l)
);
}
);
width = 1200;
},
{
layerId = "7609694B-C902-4DC8-BC2F-8BF204A4C5AE";
shapes = (
{
closed = 1;
nodes = (
(162,0,l),
(1100,0,l),
(1100,163,l),
(443,163,l),
(536,237,o),
(585,318,o),
(585,446,cs),
(585,536,o),
(557,635,o),
(526,740,cs),
(497,837,o),
(468,933,o),
(468,1027,cs),
(468,1102,o),
(487,1159,o),
(529,1207,cs),
(568,1252,o),
(627,1274,o),
(707,1274,cs),
(808,1274,o),
(898,1243,o),
(987,1159,c),
(1067,1301,l),
(979,1393,o),
(834,1440,o),
(707,1440,cs),
(538,1440,o),
(405,1374,o),
(333,1254,c),
(296,1192,o),
(276,1126,o),
(276,1048,cs),
(276,961,o),
(307,856,o),
(338,775,c),
(354,723,o),
(373,671,o),
(387,622,cs),
(403,569,o),
(416,508,o),
(416,452,cs),
(416,351,o),
(385,287,o),
(330,244,c),
(287,206,o),
(229,179,o),
(162,158,c)
);
},
{
closed = 1;
nodes = (
(142,619,l),
(953,619,l),
(953,765,l),
(142,765,l)
);
}
);
width = 1200;
},
{
layerId = "90133A7B-8BB4-4C15-92F3-A0E8B30B2A31";
shapes = (
{
closed = 1;
nodes = (
(195,0,l),
(1069,0,l),
(1069,77,l),
(350,77,l),
(475,155,o),
(544,247,o),
(544,406,cs),
(544,512,o),
(510,623,o),
(470,737,c),
(434,850,o),
(400,964,o),
(400,1068,cs),
(400,1154,o),
(422,1218,o),
(472,1277,cs),
(521,1334,o),
(594,1361,o),
(695,1361,cs),
(808,1361,o),
(902,1328,o),
(985,1254,c),
(1030,1323,l),
(935,1405,o),
(824,1440,o),
(701,1440,cs),
(548,1440,o),
(429,1381,o),
(364,1272,c),
(330,1215,o),
(313,1154,o),
(313,1079,cs),
(313,969,o),
(353,831,o),
(397,729,c),
(415,677,o),
(435,621,o),
(449,572,cs),
(464,522,o),
(466,471,o),
(466,418,cs),
(466,319,o),
(435,248,o),
(387,194,c),
(337,143,o),
(270,107,o),
(195,77,c)
);
},
{
closed = 1;
nodes = (
(174,653,l),
(954,653,l),
(954,733,l),
(174,733,l)
);
}
);
width = 1200;
}
);
unicode = 163;
},
{
glyphname = currency;
layers = (
{
layerId = "88C73509-728C-4DC8-993B-4895D781EEEF";
shapes = (
{
closed = 1;
nodes = (
(271,61,l),
(412,217,l),
(470,188,o),
(535,170,o),
(600,170,cs),
(669,170,o),
(731,186,o),
(788,217,c),
(930,61,l),
(1118,264,l),
(976,414,l),
(1009,480,o),
(1026,553,o),
(1026,620,cs),
(1026,691,o),
(1009,764,o),
(976,826,c),
(1118,980,l),
(930,1183,l),
(788,1027,l),
(731,1059,o),
(665,1074,o),
(600,1074,cs),
(535,1074,o),
(470,1060,o),
(412,1027,c),
(271,1183,l),
(82,980,l),
(223,826,l),
(194,764,o),
(174,691,o),
(174,620,cs),
(174,553,o),
(194,479,o),
(223,414,c),
(82,264,l)
);
},
{
closed = 1;
nodes = (
(509,456,o),
(454,536,o),
(454,620,cs),
(454,717,o),
(512,786,o),
(600,786,cs),
(693,786,o),
(746,715,o),
(746,620,cs),
(746,530,o),
(693,456,o),
(600,456,cs)
);
}
);
width = 1200;
},
{
layerId = "7609694B-C902-4DC8-BC2F-8BF204A4C5AE";
shapes = (
{
closed = 1;
nodes = (
(250,124,l),
(391,278,l),
(454,231,o),
(522,209,o),
(600,209,cs),
(676,209,o),
(746,229,o),
(809,278,c),
(951,124,l),
(1059,240,l),
(919,393,l),
(965,463,o),
(988,542,o),
(988,620,cs),
(988,702,o),
(965,782,o),
(919,850,c),
(1059,1001,l),
(951,1119,l),
(809,965,l),
(749,1013,o),
(678,1033,o),
(600,1033,cs),
(526,1033,o),
(454,1017,o),
(391,965,c),
(250,1119,l),
(142,1001,l),
(282,850,l),
(239,782,o),
(214,702,o),
(214,620,cs),
(214,542,o),
(236,464,o),
(282,393,c),
(142,240,l)
);
},
{
closed = 1;
nodes = (
(502,365,o),
(427,428,o),
(395,516,c),
(377,575,o),
(387,630,o),
(414,670,c),
(442,790,o),
(535,856,o),
(644,827,c),
(894,800,o),
(875,365,o),
(600,365,cs)
);
}
);
width = 1200;
},
{
layerId = "90133A7B-8BB4-4C15-92F3-A0E8B30B2A31";
shapes = (
{
closed = 1;
nodes = (
(237,164,l),
(378,316,l),
(444,259,o),
(514,234,o),
(600,234,cs),
(679,234,o),
(756,257,o),
(822,316,c),
(963,164,l),
(1021,225,l),
(882,380,l),
(937,451,o),
(963,535,o),
(963,620,cs),
(963,709,o),
(937,792,o),
(882,865,c),
(1021,1014,l),
(963,1078,l),
(822,925,l),
(761,984,o),
(686,1008,o),
(600,1008,cs),
(520,1008,o),
(444,989,o),
(378,925,c),
(237,1078,l),
(179,1014,l),
(319,865,l),
(267,794,o),
(239,709,o),
(239,620,cs),
(239,535,o),
(263,454,o),
(319,380,c),
(179,225,l)
);
},
{
closed = 1;
nodes = (
(498,307,o),
(409,360,o),
(358,450,c),
(328,485,o),
(309,531,o),
(296,596,c),
(283,792,o),
(401,944,o),
(579,958,c),
(987,971,o),
(990,307,o),
(600,307,cs)
);
}
);
width = 1200;
}
);
unicode = 164;
},
{
glyphname = yen;
layers = (
{
layerId = "88C73509-728C-4DC8-993B-4895D781EEEF";
shapes = (
{
closed = 1;
nodes = (
(420,0,l),
(774,0,l),
(774,248,l),
(1106,248,l),
(1106,475,l),
(774,475,l),
(774,588,l),
(1106,588,l),
(1106,816,l),
(864,816,l),
(1223,1410,l),
(851,1410,l),
(602,948,l),
(371,1410,l),
(-14,1410,l),
(332,816,l),
(91,816,l),
(91,588,l),
(420,588,l),
(420,475,l),
(91,475,l),
(91,248,l),
(420,248,l)
);
}
);
width = 1200;
},
{
layerId = "7609694B-C902-4DC8-BC2F-8BF204A4C5AE";
shapes = (
{
closed = 1;
nodes = (
(508,0,l),
(697,0,l),
(697,298,l),
(1051,298,l),
(1051,437,l),
(697,437,l),
(697,617,l),
(1051,617,l),
(1051,756,l),
(769,756,l),
(1148,1410,l),
(950,1410,l),
(602,805,l),
(267,1410,l),
(60,1410,l),
(438,756,l),
(154,756,l),
(154,617,l),
(508,617,l),
(508,437,l),
(154,437,l),
(154,298,l),
(508,298,l)
);
}
);
width = 1200;
},
{
layerId = "90133A7B-8BB4-4C15-92F3-A0E8B30B2A31";
shapes = (
{
closed = 1;
nodes = (
(564,0,l),
(646,0,l),
(646,330,l),
(1017,330,l),
(1017,413,l),
(646,413,l),
(646,636,l),
(1017,636,l),
(1017,719,l),
(709,719,l),
(1101,1410,l),
(1012,1410,l),
(602,713,l),
(201,1410,l),
(108,1410,l),
(503,719,l),
(194,719,l),
(194,636,l),
(564,636,l),
(564,413,l),
(194,413,l),
(194,330,l),
(564,330,l)
);
}
);
width = 1200;
}
);
unicode = 165;
},
{
glyphname = brokenbar;
layers = (
{
layerId = "88C73509-728C-4DC8-993B-4895D781EEEF";
shapes = (
{
closed = 1;
nodes = (
(200,810,l),
(520,810,l),
(520,1480,l),
(200,1480,l)
);
},
{
closed = 1;
nodes = (
(200,-100,l),
(520,-100,l),
(520,570,l),
(200,570,l)
);
}
);
width = 720;
},
{
layerId = "7609694B-C902-4DC8-BC2F-8BF204A4C5AE";
shapes = (
{
closed = 1;
nodes = (
(200,810,l),
(366,810,l),
(366,1480,l),
(200,1480,l)
);
},
{
closed = 1;
nodes = (
(200,-100,l),
(366,-100,l),
(366,570,l),
(200,570,l)
);
}
);
width = 566;
},
{
layerId = "90133A7B-8BB4-4C15-92F3-A0E8B30B2A31";
shapes = (
{
closed = 1;
nodes = (
(200,810,l),
(269,810,l),
(269,1480,l),
(200,1480,l)
);
},
{
closed = 1;
nodes = (
(200,-100,l),
(269,-100,l),
(269,570,l),
(200,570,l)
);
}
);
width = 469;
}
);
leftKerningGroup = _bar2;
rightKerningGroup = _bar;
unicode = 166;
},
{
glyphname = section;
layers = (
{
layerId = "88C73509-728C-4DC8-993B-4895D781EEEF";
shapes = (
{
closed = 1;
nodes = (
(855,-453,o),
(1016,-386,o),
(1110,-264,c),
(1154,-202,o),
(1178,-131,o),
(1178,-50,cs),
(1178,66,o),
(1144,151,o),
(1070,212,c),
(998,277,o),
(885,321,o),
(723,352,cs),
(626,372,o),
(560,393,o),
(512,418,cs),
(466,441,o),
(441,474,o),
(441,518,cs),
(441,587,o),
(485,632,o),
(558,655,c),
(593,665,o),
(629,672,o),
(671,671,c),
(669,880,l),
(503,883,o),
(364,842,o),
(260,773,c),
(155,701,o),
(95,605,o),
(95,491,cs),
(95,337,o),
(170,243,o),
(335,177,cs),
(417,145,o),
(519,118,o),
(644,91,c),
(753,70,o),
(811,47,o),
(832,16,c),
(844,0,o),
(850,-19,o),
(850,-40,cs),
(850,-69,o),
(832,-97,o),
(796,-114,c),
(761,-134,o),
(715,-143,o),
(659,-143,cs),
(589,-143,o),
(517,-131,o),
(444,-107,cs),
(368,-82,o),
(306,-49,o),
(250,-8,c),
(127,-294,l),
(188,-339,o),
(265,-380,o),
(357,-408,c),
(450,-439,o),
(542,-453,o),
(646,-453,cs)
);
},
{
closed = 1;
nodes = (
(681,113,l),
(789,113,o),
(885,129,o),
(974,162,cs),
(1062,195,o),
(1128,239,o),
(1179,299,cs),
(1231,359,o),
(1257,427,o),
(1257,507,cs),
(1257,617,o),
(1211,699,o),
(1123,760,c),
(1034,818,o),
(899,866,o),
(713,902,cs),
(596,926,o),
(540,947,o),
(519,976,cs),
(507,992,o),
(501,1010,o),
(501,1031,cs),
(501,1060,o),
(519,1083,o),
(551,1104,c),
(586,1121,o),
(626,1130,o),
(683,1130,cs),
(764,1130,o),
(861,1108,o),
(951,1066,c),
(996,1047,o),
(1036,1023,o),
(1071,995,c),
(1194,1281,l),
(1126,1333,o),
(1052,1374,o),
(964,1400,cs),
(874,1427,o),
(783,1440,o),
(691,1440,cs),
(485,1440,o),
(330,1373,o),
(242,1253,cs),
(196,1191,o),
(175,1125,o),
(175,1043,cs),
(175,929,o),
(208,845,o),
(281,780,c),
(350,716,o),
(464,670,o),
(622,640,cs),
(755,616,o),
(839,592,o),
(879,553,cs),
(899,534,o),
(910,508,o),
(910,481,cs),
(910,405,o),
(863,358,o),
(790,335,c),
(755,326,o),
(716,318,o),
(677,318,c)
);
}
);
width = 1320;
},
{
layerId = "7609694B-C902-4DC8-BC2F-8BF204A4C5AE";
shapes = (
{
closed = 1;
nodes = (
(798,-453,o),
(939,-390,o),
(1019,-279,c),
(1056,-222,o),
(1077,-159,o),
(1077,-85,cs),
(1077,19,o),
(1046,96,o),
(979,149,c),
(912,205,o),
(815,247,o),
(675,279,cs),
(564,305,o),
(486,336,o),
(427,371,cs),
(372,404,o),
(342,454,o),
(342,524,cs),
(342,612,o),
(396,680,o),
(488,716,c),
(533,732,o),
(581,742,o),
(636,740,c),
(642,865,l),
(507,869,o),
(392,833,o),
(303,770,c),
(215,705,o),
(165,619,o),
(165,514,cs),
(165,377,o),
(224,286,o),
(357,218,cs),
(422,185,o),
(503,157,o),
(606,129,c),
(757,89,o),
(840,54,o),
(874,4,c),
(893,-22,o),
(901,-53,o),
(901,-91,cs),
(901,-151,o),
(876,-201,o),
(824,-235,c),
(770,-271,o),
(705,-287,o),
(620,-287,cs),
(554,-287,o),
(488,-275,o),
(421,-251,cs),
(352,-226,o),
(295,-190,o),
(247,-143,c),
(160,-297,l),
(209,-339,o),
(274,-379,o),
(355,-408,c),
(437,-439,o),
(521,-453,o),
(613,-453,cs)
);
},
{
closed = 1;
nodes = (
(646,128,l),
(741,128,o),
(823,144,o),
(898,176,cs),
(973,209,o),
(1030,253,o),
(1073,310,cs),
(1118,369,o),
(1139,435,o),
(1139,514,cs),
(1139,614,o),
(1101,686,o),
(1025,744,c),
(951,797,o),
(844,842,o),
(700,875,c),
(557,912,o),
(469,940,o),
(428,991,cs),
(406,1018,o),
(396,1052,o),
(396,1093,cs),
(396,1150,o),
(419,1193,o),
(465,1227,c),
(516,1259,o),
(574,1275,o),
(649,1275,cs),
(737,1275,o),
(826,1255,o),
(904,1211,c),
(943,1192,o),
(980,1167,o),
(1010,1136,c),
(1090,1292,l),
(1034,1341,o),
(973,1378,o),
(898,1403,cs),
(824,1428,o),
(746,1440,o),
(663,1440,cs),
(487,1440,o),
(356,1377,o),
(282,1271,cs),
(243,1215,o),
(226,1158,o),
(226,1088,cs),
(226,993,o),
(255,918,o),
(318,863,c),
(380,808,o),
(480,761,o),
(622,726,cs),
(783,686,o),
(878,652,o),
(921,600,cs),
(943,574,o),
(955,540,o),
(955,499,cs),
(955,395,o),
(897,322,o),
(805,282,c),
(757,264,o),
(703,252,o),
(646,252,c)
);
}
);
width = 1254;
},
{
layerId = "90133A7B-8BB4-4C15-92F3-A0E8B30B2A31";
shapes = (
{
closed = 1;
nodes = (
(761,-453,o),
(890,-393,o),
(961,-289,c),
(995,-234,o),
(1014,-177,o),
(1014,-106,cs),
(1014,-11,o),
(984,61,o),
(920,109,c),
(858,159,o),
(768,199,o),
(643,233,c),
(524,264,o),
(440,299,o),
(374,340,cs),
(311,380,o),
(279,441,o),
(279,527,cs),
(279,627,o),
(339,709,o),
(444,753,cs),
(494,773,o),
(550,786,o),
(614,783,c),
(626,855,l),
(510,859,o),
(408,827,o),
(331,767,cs),
(254,708,o),
(208,627,o),
(208,529,cs),
(208,402,o),
(257,313,o),
(371,244,cs),
(425,210,o),
(493,181,o),
(581,153,c),
(760,101,o),
(859,57,o),
(901,-4,cs),
(923,-37,o),
(933,-75,o),
(933,-123,cs),
(933,-203,o),
(904,-267,o),
(840,-310,c),
(776,-357,o),
(698,-378,o),
(595,-378,cs),
(532,-378,o),
(469,-366,o),
(406,-341,cs),
(342,-316,o),
(288,-279,o),
(244,-229,c),
(181,-299,l),
(222,-339,o),
(280,-378,o),
(353,-407,c),
(428,-439,o),
(505,-453,o),
(592,-453,cs)
);
},
{
closed = 1;
nodes = (
(624,138,l),
(710,138,o),
(783,154,o),
(851,185,c),
(916,217,o),
(968,261,o),
(1007,317,cs),
(1045,375,o),
(1064,441,o),
(1064,517,cs),
(1064,611,o),
(1031,678,o),
(964,734,c),
(897,784,o),
(809,827,o),
(691,859,cs),
(532,902,o),
(423,936,o),
(370,1001,c),
(340,1034,o),
(327,1079,o),
(327,1133,cs),
(327,1206,o),
(355,1262,o),
(411,1305,c),
(469,1345,o),
(540,1366,o),
(628,1366,cs),
(719,1366,o),
(804,1347,o),
(875,1303,c),
(910,1283,o),
(942,1258,o),
(971,1224,c),
(1025,1299,l),
(975,1347,o),
(922,1380,o),
(857,1405,cs),
(791,1428,o),
(722,1440,o),
(643,1440,cs),
(488,1440,o),
(373,1379,o),
(307,1281,cs),
(272,1230,o),
(257,1179,o),
(257,1117,cs),
(257,1032,o),
(283,965,o),
(341,915,c),
(398,866,o),
(490,820,o),
(621,780,cs),
(799,729,o),
(902,690,o),
(948,629,cs),
(972,599,o),
(983,559,o),
(983,512,cs),
(983,388,o),
(918,299,o),
(813,248,c),
(758,225,o),
(695,210,o),
(627,210,c)
);
}
);
width = 1211;
}
);
unicode = 167;
},
{
glyphname = copyright;
layers = (
{
layerId = "88C73509-728C-4DC8-993B-4895D781EEEF";
shapes = (
{
closed = 1;
nodes = (
(1048,-48,o),
(1226,29,o),
(1363,162,cs),
(1499,295,o),
(1576,473,o),
(1576,682,cs),
(1576,889,o),
(1499,1067,o),
(1363,1200,cs),
(1226,1333,o),
(1049,1412,o),
(838,1412,cs),
(627,1412,o),
(450,1336,o),
(313,1203,cs),
(176,1070,o),
(100,893,o),
(100,682,cs),
(100,474,o),
(177,296,o),
(314,163,cs),
(451,30,o),
(628,-48,o),
(839,-48,cs)
);
},
{
closed = 1;
nodes = (
(681,112,o),
(546,168,o),
(442,269,cs),
(337,369,o),
(278,507,o),
(278,682,cs),
(278,858,o),
(338,995,o),
(442,1096,cs),
(547,1196,o),
(682,1250,o),
(839,1250,cs),
(996,1250,o),
(1130,1196,o),
(1235,1096,cs),
(1339,995,o),
(1398,858,o),
(1398,682,cs),
(1398,507,o),
(1340,369,o),
(1235,269,cs),
(1131,168,o),
(995,112,o),
(838,112,cs)
);
},
{
closed = 1;
nodes = (
(1007,274,o),
(1108,314,o),
(1180,366,c),
(1088,536,l),
(1024,492,o),
(952,470,o),
(880,470,cs),
(807,470,o),
(751,488,o),
(710,528,c),
(666,565,o),
(646,617,o),
(646,682,cs),
(646,750,o),
(666,798,o),
(709,838,cs),
(749,875,o),
(806,894,o),
(878,894,cs),
(959,894,o),
(1019,872,o),
(1062,828,c),
(1162,994,l),
(1087,1057,o),
(1000,1090,o),
(864,1090,cs),
(696,1090,o),
(566,1019,o),
(490,894,c),
(454,830,o),
(434,760,o),
(434,680,cs),
(434,511,o),
(511,390,o),
(640,325,c),
(704,290,o),
(778,274,o),
(862,274,cs)
);
}
);
width = 1676;
},
{
layerId = "7609694B-C902-4DC8-BC2F-8BF204A4C5AE";
shapes = (
{
closed = 1;
nodes = (
(1052,-35,o),
(1228,42,o),
(1365,175,c),
(1499,308,o),
(1576,486,o),
(1576,695,cs),
(1576,903,o),
(1499,1081,o),
(1365,1214,c),
(1228,1347,o),
(1052,1425,o),
(838,1425,cs),
(626,1425,o),
(446,1350,o),
(312,1217,cs),
(177,1084,o),
(100,907,o),
(100,695,cs),
(100,488,o),
(178,310,o),
(312,177,cs),
(446,44,o),
(626,-35,o),
(839,-35,cs)
);
},
{
closed = 1;
nodes = (
(671,73,o),
(522,133,o),
(407,245,c),
(288,354,o),
(219,505,o),
(219,695,cs),
(219,887,o),
(290,1035,o),
(406,1147,c),
(524,1256,o),
(672,1316,o),
(839,1316,cs),
(1007,1316,o),
(1154,1256,o),
(1272,1147,c),
(1388,1035,o),
(1457,887,o),
(1457,695,cs),
(1457,505,o),
(1390,354,o),
(1271,245,c),
(1156,133,o),
(1006,73,o),
(838,73,cs)
);
},
{
closed = 1;
nodes = (
(993,287,o),
(1087,320,o),
(1165,377,c),
(1103,490,l),
(1034,437,o),
(956,415,o),
(879,415,cs),
(787,415,o),
(716,439,o),
(662,491,c),
(606,539,o),
(580,608,o),
(580,695,cs),
(580,783,o),
(606,848,o),
(661,901,cs),
(713,951,o),
(784,974,o),
(872,974,cs),
(956,974,o),
(1024,953,o),
(1073,906,c),
(1142,1016,l),
(1076,1072,o),
(988,1103,o),
(863,1103,cs),
(697,1103,o),
(569,1031,o),
(496,906,c),
(461,842,o),
(441,774,o),
(441,694,cs),
(441,526,o),
(515,405,o),
(641,339,c),
(705,303,o),
(778,287,o),
(862,287,cs)
);
}
);
width = 1676;
},
{
layerId = "90133A7B-8BB4-4C15-92F3-A0E8B30B2A31";
shapes = (
{
closed = 1;
nodes = (
(1054,-27,o),
(1229,50,o),
(1366,183,c),
(1499,316,o),
(1576,494,o),
(1576,703,cs),
(1576,911,o),
(1499,1089,o),
(1366,1222,c),
(1229,1355,o),
(1054,1433,o),
(838,1433,cs),
(625,1433,o),
(443,1358,o),
(311,1225,cs),
(178,1092,o),
(100,915,o),
(100,703,cs),
(100,496,o),
(178,318,o),
(310,185,cs),
(443,52,o),
(624,-27,o),
(838,-27,cs)
);
},
{
closed = 1;
nodes = (
(664,48,o),
(507,110,o),
(384,229,c),
(257,344,o),
(182,503,o),
(182,703,cs),
(182,905,o),
(259,1060,o),
(383,1179,c),
(509,1294,o),
(665,1357,o),
(838,1357,cs),
(1013,1357,o),
(1169,1294,o),
(1295,1179,c),
(1419,1060,o),
(1494,905,o),
(1494,703,cs),
(1494,503,o),
(1421,344,o),
(1294,229,c),
(1171,110,o),
(1012,48,o),
(838,48,cs)
);
},
{
closed = 1;
nodes = (
(983,295,o),
(1074,323,o),
(1155,384,c),
(1113,461,l),
(1040,403,o),
(959,381,o),
(878,381,cs),
(774,381,o),
(694,408,o),
(631,467,c),
(568,523,o),
(539,602,o),
(539,703,cs),
(539,804,o),
(568,880,o),
(630,940,c),
(690,998,o),
(769,1024,o),
(869,1024,cs),
(954,1024,o),
(1027,1005,o),
(1080,956,c),
(1130,1031,l),
(1069,1081,o),
(980,1111,o),
(862,1111,cs),
(698,1111,o),
(571,1038,o),
(499,913,c),
(464,849,o),
(445,783,o),
(445,703,cs),
(445,536,o),
(518,415,o),
(642,347,cs),
(706,311,o),
(778,295,o),
(862,295,cs)
);
}
);
width = 1676;
}
);
rightKerningGroup = _at;
unicode = 169;
},
{
glyphname = ordfeminine;
layers = (
{
hints = (
{
horizontal = 1;
place = (922,211);
type = Stem;
},
{
horizontal = 1;
place = (1216,171);
type = Stem;
},
{
horizontal = 1;
place = (1434,227);
type = Stem;
}
);
layerId = "88C73509-728C-4DC8-993B-4895D781EEEF";
shapes = (
{
closed = 1;
nodes = (
(409,702,o),
(513,740,o),
(558,806,c),
(600,745,o),
(668,702,o),
(762,702,cs),
(776,702,o),
(788,703,o),
(816,706,c),
(838,902,l),
(830,899,o),
(817,898,o),
(810,898,cs),
(772,898,o),
(760,926,o),
(760,966,cs),
(760,1144,ls),
(760,1355,o),
(603,1440,o),
(407,1440,cs),
(288,1440,o),
(172,1409,o),
(76,1344,c),
(150,1176,l),
(206,1200,o),
(282,1213,o),
(353,1213,cs),
(388,1213,o),
(504,1210,o),
(504,1160,cs),
(504,1157,l),
(534,1162,l),
(497,1167,o),
(463,1167,o),
(463,1167,cs),
(266,1167,o),
(38,1129,o),
(38,928,cs),
(38,784,o),
(155,702,o),
(306,702,cs)
);
},
{
closed = 1;
nodes = (
(343,913,o),
(312,924,o),
(312,950,cs),
(312,990,o),
(391,996,o),
(439,996,cs),
(466,996,o),
(501,994,o),
(537,987,c),
(506,996,l),
(506,983,ls),
(506,934,o),
(455,913,o),
(391,913,cs)
);
}
);
width = 833;
},
{
layerId = "7609694B-C902-4DC8-BC2F-8BF204A4C5AE";
shapes = (
{
closed = 1;
nodes = (
(426,702,o),
(524,743,o),
(573,818,c),
(593,763,o),
(640,702,o),
(723,702,cs),
(736,702,o),
(757,704,o),
(774,707,c),
(788,822,l),
(781,819,o),
(768,817,o),
(760,817,cs),
(716,817,o),
(697,861,o),
(697,898,cs),
(697,1173,ls),
(697,1365,o),
(565,1440,o),
(387,1440,cs),
(293,1440,o),
(193,1419,o),
(105,1357,c),
(151,1251,l),
(220,1293,o),
(291,1310,o),
(362,1310,cs),
(459,1310,o),
(556,1272,o),
(556,1175,cs),
(556,1127,l),
(588,1139,l),
(534,1146,o),
(484,1149,o),
(448,1149,cs),
(287,1149,o),
(62,1115,o),
(62,914,cs),
(62,771,o),
(176,702,o),
(317,702,cs)
);
},
{
closed = 1;
nodes = (
(264,827,o),
(209,862,o),
(209,924,cs),
(209,1028,o),
(360,1042,o),
(443,1042,cs),
(484,1042,o),
(534,1038,o),
(590,1030,c),
(557,1056,l),
(557,977,ls),
(557,872,o),
(449,827,o),
(350,827,cs)
);
}
);
width = 795;
},
{
layerId = "90133A7B-8BB4-4C15-92F3-A0E8B30B2A31";
shapes = (
{
closed = 1;
nodes = (
(436,702,o),
(531,745,o),
(583,825,c),
(587,775,o),
(622,702,o),
(698,702,cs),
(711,702,o),
(736,704,o),
(747,708,c),
(757,771,l),
(750,766,o),
(737,764,o),
(728,764,cs),
(681,764,o),
(656,820,o),
(656,855,cs),
(656,1191,ls),
(656,1371,o),
(540,1440,o),
(375,1440,cs),
(296,1440,o),
(206,1425,o),
(123,1365,c),
(151,1298,l),
(228,1352,o),
(297,1370,o),
(369,1370,cs),
(503,1370,o),
(588,1310,o),
(588,1184,cs),
(588,1108,l),
(622,1124,l),
(556,1133,o),
(496,1137,o),
(438,1137,cs),
(299,1137,o),
(78,1105,o),
(78,905,cs),
(78,763,o),
(189,702,o),
(324,702,cs)
);
},
{
closed = 1;
nodes = (
(213,771,o),
(144,823,o),
(144,908,cs),
(144,1052,o),
(341,1070,o),
(445,1070,cs),
(494,1070,o),
(555,1066,o),
(623,1057,c),
(588,1095,l),
(588,973,ls),
(588,833,o),
(446,771,o),
(325,771,cs)
);
}
);
width = 770;
}
);
leftKerningGroup = _degree2;
rightKerningGroup = _degree;
unicode = 170;
},
{
glyphname = guillemotleft;
layers = (
{
layerId = "88C73509-728C-4DC8-993B-4895D781EEEF";
shapes = (
{
closed = 1;
nodes = (
(843,60,l),
(1112,221,l),
(928,528,l),
(1112,837,l),
(843,998,l),
(560,528,l)
);
},
{
closed = 1;
nodes = (
(323,60,l),
(592,221,l),
(408,528,l),
(592,837,l),
(323,998,l),
(40,528,l)
);
}
);
width = 1230;
},
{
layerId = "7609694B-C902-4DC8-BC2F-8BF204A4C5AE";
shapes = (
{
closed = 1;
nodes = (
(800,96,l),
(928,185,l),
(673,507,l),
(927,830,l),
(800,920,l),
(476,507,l)
);
},
{
closed = 1;
nodes = (
(378,96,l),
(506,185,l),
(251,507,l),
(505,830,l),
(378,920,l),
(54,507,l)
);
}
);
width = 1038;
},
{
layerId = "90133A7B-8BB4-4C15-92F3-A0E8B30B2A31";
shapes = (
{
closed = 1;
nodes = (
(772,118,l),
(811,162,l),
(512,494,l),
(810,826,l),
(772,870,l),
(423,494,l)
);
},
{
closed = 1;
nodes = (
(412,118,l),
(451,162,l),
(152,494,l),
(450,826,l),
(412,870,l),
(63,494,l)
);
}
);
width = 917;
}
);
unicode = 171;
},
{
glyphname = logicalnot;
layers = (
{
layerId = "88C73509-728C-4DC8-993B-4895D781EEEF";
shapes = (
{
closed = 1;
nodes = (
(944,290,l),
(1228,290,l),
(1228,1050,l),
(68,1050,l),
(68,782,l),
(944,782,l)
);
}
);
width = 1296;
},
{
layerId = "7609694B-C902-4DC8-BC2F-8BF204A4C5AE";
shapes = (
{
closed = 1;
nodes = (
(994,408,l),
(1150,408,l),
(1150,924,l),
(146,924,l),
(146,776,l),
(994,776,l)
);
}
);
width = 1296;
},
{
layerId = "90133A7B-8BB4-4C15-92F3-A0E8B30B2A31";
shapes = (
{
closed = 1;
nodes = (
(1026,482,l),
(1100,482,l),
(1100,844,l),
(196,844,l),
(196,773,l),
(1026,773,l)
);
}
);
width = 1296;
}
);
leftKerningGroup = _plus2;
rightKerningGroup = _plus;
unicode = 172;
},
{
glyphname = softhyphen;
layers = (
{
layerId = "88C73509-728C-4DC8-993B-4895D781EEEF";
shapes = (
{
closed = 1;
nodes = (
(90,392,l),
(710,392,l),
(710,742,l),
(90,742,l)
);
}
);
width = 800;
},
{
layerId = "7609694B-C902-4DC8-BC2F-8BF204A4C5AE";
shapes = (
{
closed = 1;
nodes = (
(122,476,l),
(653,476,l),
(653,648,l),
(122,648,l)
);
}
);
width = 775;
},
{
layerId = "90133A7B-8BB4-4C15-92F3-A0E8B30B2A31";
shapes = (
{
closed = 1;
nodes = (
(143,529,l),
(616,529,l),
(616,589,l),
(143,589,l)
);
}
);
width = 759;
}
);
leftKerningGroup = _hyphen2;
rightKerningGroup = _hyphen;
unicode = 173;
},
{
glyphname = registered;
layers = (
{
layerId = "88C73509-728C-4DC8-993B-4895D781EEEF";
shapes = (
{
closed = 1;
nodes = (
(706,470,o),
(792,493,o),
(872,538,cs),
(952,583,o),
(1014,644,o),
(1061,721,cs),
(1108,798,o),
(1130,885,o),
(1130,982,cs),
(1130,1078,o),
(1108,1163,o),
(1061,1240,cs),
(1014,1317,o),
(952,1377,o),
(872,1424,cs),
(792,1469,o),
(706,1492,o),
(606,1492,cs),
(506,1492,o),
(421,1470,o),
(341,1425,cs),
(261,1380,o),
(200,1320,o),
(153,1244,cs),
(106,1167,o),
(82,1079,o),
(82,982,cs),
(82,885,o),
(107,798,o),
(152,721,cs),
(199,644,o),
(260,583,o),
(340,538,cs),
(420,493,o),
(506,470,o),
(606,470,cs)
);
},
{
closed = 1;
nodes = (
(530,566,o),
(462,583,o),
(398,618,cs),
(334,653,o),
(284,700,o),
(247,765,cs),
(210,829,o),
(190,898,o),
(190,982,cs),
(190,1066,o),
(208,1135,o),
(248,1199,cs),
(287,1263,o),
(335,1308,o),
(399,1343,cs),
(463,1378,o),
(531,1394,o),
(607,1394,cs),
(683,1394,o),
(750,1378,o),
(815,1343,cs),
(879,1308,o),
(928,1263,o),
(965,1199,cs),
(1004,1135,o),
(1022,1066,o),
(1022,982,cs),
(1022,898,o),
(1004,829,o),
(967,765,c),
(927,700,o),
(879,653,o),
(815,618,cs),
(751,583,o),
(682,566,o),
(606,566,cs)
);
},
{
closed = 1;
nodes = (
(410,706,l),
(532,706,l),
(532,912,l),
(592,912,l),
(730,706,l),
(876,706,l),
(716,936,l),
(792,956,o),
(846,1008,o),
(846,1088,cs),
(846,1141,o),
(827,1184,o),
(790,1213,c),
(750,1242,o),
(702,1256,o),
(638,1256,cs),
(410,1256,l)
);
},
{
closed = 1;
nodes = (
(532,1010,l),
(532,1156,l),
(628,1156,ls),
(689,1156,o),
(722,1131,o),
(722,1082,cs),
(722,1035,o),
(686,1010,o),
(622,1010,cs)
);
}
);
width = 1212;
},
{
layerId = "7609694B-C902-4DC8-BC2F-8BF204A4C5AE";
shapes = (
{
closed = 1;
nodes = (
(712,476,o),
(799,499,o),
(879,544,cs),
(959,589,o),
(1020,650,o),
(1067,727,cs),
(1114,804,o),
(1136,889,o),
(1136,986,cs),
(1136,1082,o),
(1114,1167,o),
(1067,1246,cs),
(1020,1323,o),
(958,1383,o),
(878,1430,cs),
(800,1475,o),
(713,1498,o),
(612,1498,cs),
(512,1498,o),
(426,1476,o),
(346,1431,cs),
(266,1386,o),
(205,1326,o),
(158,1249,cs),
(111,1172,o),
(88,1083,o),
(88,986,cs),
(88,889,o),
(112,804,o),
(156,727,c),
(203,650,o),
(264,589,o),
(344,544,cs),
(424,499,o),
(512,476,o),
(612,476,cs)
);
},
{
closed = 1;
nodes = (
(533,551,o),
(462,569,o),
(394,605,cs),
(327,642,o),
(274,691,o),
(233,759,cs),
(193,826,o),
(172,899,o),
(172,986,cs),
(172,1074,o),
(191,1149,o),
(234,1217,cs),
(276,1284,o),
(328,1332,o),
(395,1368,cs),
(463,1405,o),
(533,1422,o),
(612,1422,cs),
(691,1422,o),
(762,1405,o),
(830,1368,cs),
(897,1332,o),
(950,1284,o),
(990,1216,c),
(1033,1149,o),
(1051,1074,o),
(1051,986,cs),
(1051,899,o),
(1033,826,o),
(992,759,cs),
(949,691,o),
(897,642,o),
(829,605,cs),
(762,569,o),
(691,551,o),
(612,551,cs)
);
},
{
closed = 1;
nodes = (
(425,712,l),
(518,712,l),
(518,930,l),
(596,930,l),
(755,712,l),
(868,712,l),
(695,946,l),
(782,963,o),
(840,1016,o),
(840,1096,cs),
(840,1148,o),
(823,1189,o),
(787,1218,cs),
(751,1247,o),
(703,1260,o),
(644,1260,cs),
(425,1260,l)
);
},
{
closed = 1;
nodes = (
(518,1007,l),
(518,1183,l),
(635,1183,ls),
(710,1183,o),
(744,1151,o),
(744,1093,cs),
(744,1040,o),
(703,1007,o),
(628,1007,cs)
);
}
);
width = 1223;
},
{
layerId = "90133A7B-8BB4-4C15-92F3-A0E8B30B2A31";
shapes = (
{
closed = 1;
nodes = (
(715,479,o),
(803,502,o),
(883,547,cs),
(963,592,o),
(1023,653,o),
(1070,730,cs),
(1117,807,o),
(1139,892,o),
(1139,989,cs),
(1139,1085,o),
(1117,1169,o),
(1070,1249,c),
(1023,1326,o),
(961,1386,o),
(881,1433,cs),
(804,1478,o),
(716,1501,o),
(615,1501,cs),
(515,1501,o),
(429,1479,o),
(349,1434,cs),
(269,1389,o),
(208,1329,o),
(161,1252,cs),
(114,1175,o),
(91,1086,o),
(91,989,cs),
(91,892,o),
(115,807,o),
(159,730,c),
(206,653,o),
(267,592,o),
(347,547,cs),
(427,502,o),
(515,479,o),
(615,479,cs)
);
},
{
closed = 1;
nodes = (
(535,541,o),
(461,560,o),
(391,597,cs),
(323,635,o),
(268,685,o),
(224,755,c),
(183,823,o),
(160,899,o),
(160,989,cs),
(160,1078,o),
(179,1158,o),
(224,1227,cs),
(269,1296,o),
(322,1347,o),
(392,1384,cs),
(462,1421,o),
(534,1440,o),
(615,1440,cs),
(697,1440,o),
(769,1421,o),
(839,1384,cs),
(909,1347,o),
(965,1296,o),
(1006,1226,c),
(1051,1158,o),
(1070,1078,o),
(1070,989,cs),
(1070,899,o),
(1051,823,o),
(1007,755,cs),
(962,685,o),
(907,635,o),
(838,597,cs),
(769,560,o),
(697,541,o),
(615,541,cs)
);
},
{
closed = 1;
nodes = (
(435,715,l),
(509,715,l),
(509,942,l),
(599,942,l),
(771,715,l),
(862,715,l),
(682,952,l),
(776,966,o),
(837,1022,o),
(837,1102,cs),
(837,1152,o),
(820,1192,o),
(785,1221,cs),
(751,1250,o),
(703,1263,o),
(647,1263,cs),
(435,1263,l)
);
},
{
closed = 1;
nodes = (
(509,1005,l),
(509,1199,l),
(639,1199,ls),
(723,1199,o),
(759,1163,o),
(759,1100,cs),
(759,1043,o),
(713,1005,o),
(631,1005,cs)
);
}
);
width = 1230;
}
);
leftKerningGroup = _degree2;
rightKerningGroup = _degree;
unicode = 174;
},
{
glyphname = degree;
layers = (
{
layerId = "88C73509-728C-4DC8-993B-4895D781EEEF";
shapes = (
{
closed = 1;
nodes = (
(607,610,o),
(737,686,o),
(811,815,c),
(850,875,o),
(866,944,o),
(866,1021,cs),
(866,1098,o),
(850,1168,o),
(811,1228,c),
(774,1290,o),
(726,1339,o),
(662,1375,cs),
(597,1413,o),
(530,1430,o),
(449,1430,cs),
(369,1430,o),
(302,1413,o),
(238,1375,c),
(173,1340,o),
(126,1290,o),
(87,1228,c),
(50,1168,o),
(30,1098,o),
(30,1021,cs),
(30,944,o),
(50,877,o),
(87,813,cs),
(124,748,o),
(173,702,o),
(238,665,c),
(302,629,o),
(369,610,o),
(449,610,cs)
);
},
{
closed = 1;
nodes = (
(402,858,o),
(366,872,o),
(336,903,c),
(305,934,o),
(290,974,o),
(290,1021,cs),
(290,1085,o),
(319,1135,o),
(368,1163,cs),
(391,1176,o),
(418,1182,o),
(449,1182,cs),
(496,1182,o),
(533,1169,o),
(564,1138,c),
(593,1107,o),
(608,1068,o),
(608,1021,cs),
(608,960,o),
(580,908,o),
(532,881,cs),
(506,866,o),
(480,858,o),
(449,858,cs)
);
}
);
width = 890;
},
{
layerId = "7609694B-C902-4DC8-BC2F-8BF204A4C5AE";
shapes = (
{
closed = 1;
nodes = (
(603,684,o),
(723,755,o),
(790,871,c),
(828,925,o),
(842,989,o),
(842,1057,cs),
(842,1127,o),
(828,1190,o),
(790,1246,c),
(757,1301,o),
(713,1347,o),
(654,1379,c),
(596,1414,o),
(534,1430,o),
(462,1430,cs),
(390,1430,o),
(330,1414,o),
(271,1379,c),
(212,1347,o),
(168,1301,o),
(132,1246,c),
(99,1190,o),
(80,1127,o),
(80,1058,cs),
(80,990,o),
(99,928,o),
(132,870,cs),
(166,812,o),
(212,768,o),
(271,735,cs),
(330,701,o),
(390,684,o),
(462,684,cs)
);
},
{
closed = 1;
nodes = (
(392,826,o),
(337,847,o),
(295,890,cs),
(251,934,o),
(228,990,o),
(228,1057,cs),
(228,1149,o),
(271,1220,o),
(341,1260,cs),
(377,1279,o),
(416,1288,o),
(462,1288,cs),
(533,1288,o),
(588,1269,o),
(631,1226,c),
(672,1184,o),
(694,1129,o),
(694,1057,cs),
(694,967,o),
(655,894,o),
(585,857,c),
(549,836,o),
(508,826,o),
(462,826,cs)
);
}
);
width = 915;
},
{
layerId = "90133A7B-8BB4-4C15-92F3-A0E8B30B2A31";
shapes = (
{
closed = 1;
nodes = (
(600,730,o),
(714,798,o),
(778,905,c),
(813,958,o),
(827,1017,o),
(827,1080,cs),
(827,1145,o),
(813,1203,o),
(778,1256,c),
(747,1308,o),
(705,1351,o),
(650,1382,c),
(595,1415,o),
(537,1430,o),
(470,1430,cs),
(403,1430,o),
(346,1415,o),
(292,1382,c),
(237,1351,o),
(195,1308,o),
(160,1256,c),
(129,1203,o),
(111,1145,o),
(111,1081,cs),
(111,1018,o),
(129,961,o),
(160,905,cs),
(191,851,o),
(237,810,o),
(292,778,cs),
(346,747,o),
(403,730,o),
(470,730,cs)
);
},
{
closed = 1;
nodes = (
(385,805,o),
(319,831,o),
(268,882,cs),
(216,934,o),
(188,1000,o),
(188,1080,cs),
(188,1188,o),
(240,1274,o),
(325,1320,cs),
(367,1343,o),
(414,1354,o),
(470,1354,cs),
(555,1354,o),
(622,1331,o),
(675,1282,c),
(722,1231,o),
(748,1166,o),
(748,1080,cs),
(748,970,o),
(703,884,o),
(618,841,c),
(576,817,o),
(525,805,o),
(470,805,cs)
);
}
);
width = 931;
}
);
leftKerningGroup = _degree2;
rightKerningGroup = _degree;
unicode = 176;
},
{
glyphname = twosuperior;
layers = (
{
layerId = "88C73509-728C-4DC8-993B-4895D781EEEF";
shapes = (
{
closed = 1;
nodes = (
(474,1443,o),
(509,1415,o),
(509,1347,cs),
(509,1229,o),
(167,987,o),
(66,921,c),
(66,721,l),
(756,721,l),
(756,940,l),
(456,940,l),
(593,1018,o),
(764,1176,o),
(764,1344,cs),
(764,1551,o),
(603,1656,o),
(409,1656,cs),
(235,1656,o),
(74,1538,o),
(26,1369,c),
(234,1267,l),
(260,1335,o),
(327,1443,o),
(409,1443,cs)
);
}
);
width = 854;
},
{
layerId = "7609694B-C902-4DC8-BC2F-8BF204A4C5AE";
shapes = (
{
closed = 1;
nodes = (
(523,1516,o),
(572,1475,o),
(572,1378,cs),
(572,1191,o),
(245,938,o),
(99,833,c),
(99,711,l),
(721,711,l),
(721,849,l),
(343,849,l),
(495,954,o),
(727,1176,o),
(727,1371,cs),
(727,1550,o),
(605,1646,o),
(416,1646,cs),
(267,1646,o),
(127,1547,o),
(84,1403,c),
(217,1342,l),
(244,1427,o),
(321,1516,o),
(416,1516,cs)
);
}
);
width = 855;
},
{
layerId = "90133A7B-8BB4-4C15-92F3-A0E8B30B2A31";
shapes = (
{
closed = 1;
nodes = (
(554,1562,o),
(612,1512,o),
(612,1397,cs),
(612,1166,o),
(294,906,o),
(120,777,c),
(120,705,l),
(698,705,l),
(698,790,l),
(271,790,l),
(432,913,o),
(703,1176,o),
(703,1387,cs),
(703,1549,o),
(606,1640,o),
(419,1640,cs),
(286,1640,o),
(161,1553,o),
(121,1424,c),
(205,1389,l),
(234,1485,o),
(317,1562,o),
(419,1562,cs)
);
}
);
width = 856;
}
);
unicode = 178;
},
{
glyphname = threesuperior;
layers = (
{
layerId = "88C73509-728C-4DC8-993B-4895D781EEEF";
shapes = (
{
closed = 1;
nodes = (
(520,702,o),
(629,756,o),
(693,844,c),
(722,889,o),
(738,938,o),
(738,994,cs),
(738,1103,o),
(687,1176,o),
(614,1221,cs),
(578,1242,o),
(542,1255,o),
(502,1260,c),
(698,1440,l),
(698,1632,l),
(74,1632,l),
(74,1422,l),
(408,1422,l),
(190,1258,l),
(258,1096,l),
(302,1109,o),
(338,1112,o),
(366,1112,cs),
(405,1112,o),
(436,1104,o),
(463,1087,c),
(487,1070,o),
(498,1045,o),
(498,1014,cs),
(498,986,o),
(485,963,o),
(458,947,c),
(431,928,o),
(398,920,o),
(358,920,cs),
(315,920,o),
(275,929,o),
(234,946,cs),
(191,963,o),
(159,986,o),
(136,1014,c),
(61,810,l),
(88,779,o),
(130,757,o),
(190,734,c),
(250,714,o),
(311,702,o),
(376,702,cs)
);
}
);
width = 826;
},
{
layerId = "7609694B-C902-4DC8-BC2F-8BF204A4C5AE";
shapes = (
{
closed = 1;
nodes = (
(510,702,o),
(615,754,o),
(674,840,c),
(702,884,o),
(717,934,o),
(717,990,cs),
(717,1112,o),
(652,1188,o),
(554,1229,c),
(504,1249,o),
(455,1256,o),
(397,1256,c),
(676,1516,l),
(676,1632,l),
(84,1632,l),
(84,1505,l),
(495,1505,l),
(203,1245,l),
(247,1146,l),
(288,1157,o),
(326,1160,o),
(358,1160,cs),
(423,1160,o),
(473,1146,o),
(514,1118,c),
(553,1090,o),
(571,1050,o),
(571,999,cs),
(571,948,o),
(552,908,o),
(514,881,c),
(476,850,o),
(426,835,o),
(364,835,cs),
(321,835,o),
(279,842,o),
(236,858,c),
(191,873,o),
(155,894,o),
(126,919,c),
(77,796,l),
(106,769,o),
(147,750,o),
(201,730,c),
(256,713,o),
(312,702,o),
(373,702,cs)
);
}
);
width = 819;
},
{
layerId = "90133A7B-8BB4-4C15-92F3-A0E8B30B2A31";
shapes = (
{
closed = 1;
nodes = (
(503,702,o),
(606,752,o),
(662,837,cs),
(690,881,o),
(704,931,o),
(704,987,cs),
(704,1118,o),
(630,1195,o),
(516,1233,cs),
(457,1252,o),
(399,1257,o),
(331,1253,c),
(661,1563,l),
(661,1632,l),
(90,1632,l),
(90,1557,l),
(550,1557,l),
(211,1237,l),
(240,1178,l),
(279,1187,o),
(318,1190,o),
(352,1190,cs),
(433,1190,o),
(496,1173,o),
(546,1137,cs),
(594,1102,o),
(617,1053,o),
(617,989,cs),
(617,924,o),
(595,874,o),
(549,838,c),
(504,800,o),
(444,781,o),
(367,781,cs),
(324,781,o),
(282,787,o),
(237,802,cs),
(190,817,o),
(152,835,o),
(120,859,c),
(87,787,l),
(116,763,o),
(157,746,o),
(208,727,c),
(259,712,o),
(312,702,o),
(371,702,cs)
);
}
);
width = 815;
}
);
leftKerningGroup = _degree2;
rightKerningGroup = _degree;
unicode = 179;
},
{
glyphname = mu;
layers = (
{
layerId = "88C73509-728C-4DC8-993B-4895D781EEEF";
shapes = (
{
closed = 1;
nodes = (
(128,-400,l),
(496,-400,l),
(496,-4,l),
(543,-20,o),
(590,-30,o),
(634,-30,cs),
(726,-30,o),
(812,10,o),
(872,102,c),
(872,0,l),
(1212,0,l),
(1212,1040,l),
(812,1040,l),
(812,482,ls),
(812,422,o),
(791,376,o),
(747,351,c),
(726,338,o),
(702,330,o),
(670,330,cs),
(626,330,o),
(591,343,o),
(567,374,c),
(540,402,o),
(528,438,o),
(528,482,cs),
(528,1040,l),
(128,1040,l)
);
}
);
width = 1340;
},
{
layerId = "7609694B-C902-4DC8-BC2F-8BF204A4C5AE";
shapes = (
{
closed = 1;
nodes = (
(167,-400,l),
(363,-400,l),
(363,73,l),
(422,-3,o),
(513,-30,o),
(618,-30,cs),
(737,-30,o),
(844,20,o),
(929,126,c),
(929,0,l),
(1116,0,l),
(1116,1040,l),
(911,1040,l),
(911,440,ls),
(911,328,o),
(859,241,o),
(776,195,c),
(735,171,o),
(692,159,o),
(642,159,cs),
(565,159,o),
(501,180,o),
(451,228,c),
(397,274,o),
(372,340,o),
(372,426,cs),
(372,1040,l),
(167,1040,l)
);
}
);
width = 1225;
},
{
layerId = "90133A7B-8BB4-4C15-92F3-A0E8B30B2A31";
shapes = (
{
closed = 1;
nodes = (
(192,-400,l),
(278,-400,l),
(278,122,l),
(345,9,o),
(464,-30,o),
(608,-30,cs),
(744,-30,o),
(865,26,o),
(964,141,c),
(964,0,l),
(1055,0,l),
(1055,1040,l),
(973,1040,l),
(973,413,ls),
(973,268,o),
(902,155,o),
(794,96,c),
(741,65,o),
(685,51,o),
(624,51,cs),
(526,51,o),
(445,77,o),
(377,136,c),
(307,193,o),
(273,277,o),
(273,389,cs),
(273,1040,l),
(192,1040,l)
);
}
);
width = 1153;
}
);
unicode = (181,956);
},
{
glyphname = paragraph;
layers = (
{
layerId = "88C73509-728C-4DC8-993B-4895D781EEEF";
shapes = (
{
closed = 1;
nodes = (
(562,-403,l),
(824,-403,l),
(824,1194,l),
(957,1194,l),
(957,-403,l),
(1218,-403,l),
(1218,1194,l),
(1424,1194,l),
(1424,1410,l),
(614,1410,ls),
(386,1410,o),
(209,1333,o),
(113,1188,cs),
(65,1119,o),
(40,1036,o),
(40,938,cs),
(40,745,o),
(139,603,o),
(316,526,c),
(401,486,o),
(500,467,o),
(614,467,c),
(562,514,l)
);
}
);
width = 1444;
},
{
layerId = "7609694B-C902-4DC8-BC2F-8BF204A4C5AE";
shapes = (
{
closed = 1;
nodes = (
(514,-403,l),
(666,-403,l),
(666,1275,l),
(851,1275,l),
(851,-403,l),
(1003,-403,l),
(1003,1275,l),
(1220,1275,l),
(1220,1410,l),
(545,1410,ls),
(351,1410,o),
(210,1342,o),
(133,1222,cs),
(95,1165,o),
(76,1097,o),
(76,1019,cs),
(76,865,o),
(153,746,o),
(297,678,cs),
(368,644,o),
(449,628,o),
(545,628,c),
(514,669,l)
);
}
);
width = 1270;
},
{
layerId = "90133A7B-8BB4-4C15-92F3-A0E8B30B2A31";
shapes = (
{
closed = 1;
nodes = (
(483,-403,l),
(566,-403,l),
(566,1325,l),
(784,1325,l),
(784,-403,l),
(866,-403,l),
(866,1325,l),
(1092,1325,l),
(1092,1410,l),
(501,1410,ls),
(330,1410,o),
(210,1348,o),
(145,1244,cs),
(114,1193,o),
(98,1135,o),
(98,1069,cs),
(98,939,o),
(162,837,o),
(285,774,c),
(346,744,o),
(416,729,o),
(501,729,c),
(483,766,l)
);
}
);
width = 1161;
}
);
unicode = 182;
},
{
glyphname = onesuperior;
layers = (
{
layerId = "88C73509-728C-4DC8-993B-4895D781EEEF";
shapes = (
{
closed = 1;
nodes = (
(300,722,l),
(540,722,l),
(540,1632,l),
(456,1632,l),
(36,1486,l),
(104,1282,l),
(300,1344,l)
);
}
);
width = 666;
},
{
layerId = "7609694B-C902-4DC8-BC2F-8BF204A4C5AE";
shapes = (
{
closed = 1;
nodes = (
(327,722,l),
(467,722,l),
(467,1632,l),
(401,1632,l),
(44,1504,l),
(84,1387,l),
(327,1471,l)
);
}
);
width = 631;
},
{
layerId = "90133A7B-8BB4-4C15-92F3-A0E8B30B2A31";
shapes = (
{
closed = 1;
nodes = (
(343,722,l),
(421,722,l),
(421,1632,l),
(366,1632,l),
(50,1516,l),
(72,1453,l),
(343,1552,l)
);
}
);
width = 609;
}
);
leftKerningGroup = _degree2;
rightKerningGroup = _degree;
unicode = 185;
},
{
glyphname = ordmasculine;
layers = (
{
hints = (
{
horizontal = 1;
place = (922,257);
type = Stem;
},
{
horizontal = 1;
place = (1404,257);
type = Stem;
},
{
place = (33,293);
type = Stem;
},
{
place = (595,293);
type = Stem;
}
);
layerId = "88C73509-728C-4DC8-993B-4895D781EEEF";
shapes = (
{
closed = 1;
nodes = (
(679,702,o),
(888,841,o),
(888,1070,cs),
(888,1308,o),
(676,1440,o),
(461,1440,cs),
(252,1440,o),
(33,1303,o),
(33,1074,cs),
(33,852,o),
(262,702,o),
(466,702,cs)
);
},
{
closed = 1;
nodes = (
(394,959,o),
(326,998,o),
(326,1070,cs),
(326,1136,o),
(379,1183,o),
(461,1183,cs),
(548,1183,o),
(595,1135,o),
(595,1070,cs),
(595,1006,o),
(543,959,o),
(461,959,cs)
);
}
);
width = 915;
},
{
hints = (
{
place = (51,157);
type = Stem;
},
{
place = (681,157);
type = Stem;
}
);
layerId = "7609694B-C902-4DC8-BC2F-8BF204A4C5AE";
shapes = (
{
closed = 1;
nodes = (
(661,702,o),
(838,856,o),
(838,1070,cs),
(838,1294,o),
(655,1440,o),
(445,1440,cs),
(233,1440,o),
(51,1287,o),
(51,1074,cs),
(51,866,o),
(249,702,o),
(449,702,cs)
);
},
{
closed = 1;
nodes = (
(303,840,o),
(208,935,o),
(208,1070,cs),
(208,1209,o),
(299,1301,o),
(445,1301,cs),
(597,1301,o),
(681,1205,o),
(681,1070,cs),
(681,931,o),
(586,840,o),
(445,840,cs)
);
}
);
width = 883;
},
{
hints = (
{
place = (61,70);
type = Stem;
},
{
place = (735,70);
type = Stem;
}
);
layerId = "90133A7B-8BB4-4C15-92F3-A0E8B30B2A31";
shapes = (
{
closed = 1;
nodes = (
(649,702,o),
(806,865,o),
(806,1070,cs),
(806,1285,o),
(643,1440,o),
(434,1440,cs),
(218,1440,o),
(61,1277,o),
(61,1074,cs),
(61,874,o),
(238,702,o),
(437,702,cs)
);
},
{
closed = 1;
nodes = (
(243,765,o),
(132,896,o),
(132,1070,cs),
(132,1256,o),
(248,1375,o),
(434,1375,cs),
(628,1375,o),
(735,1249,o),
(735,1070,cs),
(735,884,o),
(612,765,o),
(434,765,cs)
);
}
);
width = 862;
}
);
leftKerningGroup = _degree2;
rightKerningGroup = _degree;
unicode = 186;
},
{
glyphname = guillemotright;
layers = (
{
layerId = "88C73509-728C-4DC8-993B-4895D781EEEF";
shapes = (
{
closed = 1;
nodes = (
(907,1000,l),
(640,837,l),
(822,530,l),
(638,221,l),
(907,60,l),
(1190,530,l)
);
},
{
closed = 1;
nodes = (
(387,1000,l),
(120,837,l),
(302,530,l),
(118,221,l),
(387,60,l),
(670,530,l)
);
}
);
width = 1230;
},
{
layerId = "7609694B-C902-4DC8-BC2F-8BF204A4C5AE";
shapes = (
{
closed = 1;
nodes = (
(661,921,l),
(535,830,l),
(787,508,l),
(533,185,l),
(661,95,l),
(984,508,l)
);
},
{
closed = 1;
nodes = (
(239,921,l),
(113,830,l),
(365,508,l),
(111,185,l),
(239,95,l),
(562,508,l)
);
}
);
width = 1038;
},
{
layerId = "90133A7B-8BB4-4C15-92F3-A0E8B30B2A31";
shapes = (
{
closed = 1;
nodes = (
(505,871,l),
(467,826,l),
(765,493,l),
(467,162,l),
(505,117,l),
(854,493,l)
);
},
{
closed = 1;
nodes = (
(145,871,l),
(107,826,l),
(405,493,l),
(107,162,l),
(145,117,l),
(494,493,l)
);
}
);
width = 917;
}
);
unicode = 187;
},
{
glyphname = onequarter;
layers = (
{
layerId = "88C73509-728C-4DC8-993B-4895D781EEEF";
shapes = (
{
closed = 1;
nodes = (
(300,490,l),
(540,490,l),
(540,1400,l),
(457,1399,l),
(36,1254,l),
(104,1050,l),
(300,1112,l)
);
},
{
closed = 1;
nodes = (
(1510,0,l),
(1724,0,l),
(1724,160,l),
(1842,160,l),
(1842,366,l),
(1724,366,l),
(1724,528,l),
(1510,528,l),
(1510,366,l),
(1342,366,l),
(1606,910,l),
(1352,910,l),
(1076,344,l),
(1076,160,l),
(1510,160,l)
);
},
{
closed = 1;
nodes = (
(582,-40,l),
(1346,1326,l),
(1146,1440,l),
(382,78,l)
);
}
);
width = 1890;
},
{
layerId = "7609694B-C902-4DC8-BC2F-8BF204A4C5AE";
shapes = (
{
closed = 1;
nodes = (
(327,490,l),
(467,490,l),
(467,1400,l),
(402,1401,l),
(44,1272,l),
(84,1155,l),
(327,1239,l)
);
},
{
closed = 1;
nodes = (
(1488,0,l),
(1619,0,l),
(1619,185,l),
(1762,185,l),
(1762,311,l),
(1619,311,l),
(1619,511,l),
(1488,511,l),
(1488,311,l),
(1181,311,l),
(1511,910,l),
(1356,910,l),
(1021,299,l),
(1021,185,l),
(1488,185,l)
);
},
{
closed = 1;
nodes = (
(494,-33,l),
(1276,1371,l),
(1163,1433,l),
(381,35,l)
);
}
);
width = 1823;
},
{
layerId = "90133A7B-8BB4-4C15-92F3-A0E8B30B2A31";
shapes = (
{
closed = 1;
nodes = (
(343,490,l),
(421,490,l),
(421,1400,l),
(367,1402,l),
(50,1284,l),
(72,1221,l),
(343,1320,l)
);
},
{
closed = 1;
nodes = (
(1473,0,l),
(1553,0,l),
(1553,201,l),
(1712,201,l),
(1712,277,l),
(1553,277,l),
(1553,501,l),
(1473,501,l),
(1473,277,l),
(1079,277,l),
(1451,910,l),
(1359,910,l),
(987,271,l),
(987,201,l),
(1473,201,l)
);
},
{
closed = 1;
nodes = (
(438,-29,l),
(1232,1399,l),
(1173,1429,l),
(380,7,l)
);
}
);
width = 1780;
}
);
leftKerningGroup = _onehalf;
unicode = 188;
},
{
glyphname = onehalf;
layers = (
{
layerId = "88C73509-728C-4DC8-993B-4895D781EEEF";
shapes = (
{
closed = 1;
nodes = (
(300,490,l),
(540,490,l),
(540,1400,l),
(457,1399,l),
(36,1254,l),
(104,1050,l),
(300,1112,l)
);
},
{
closed = 1;
nodes = (
(582,-40,l),
(1346,1326,l),
(1146,1440,l),
(382,78,l)
);
},
{
alignment = -1;
pos = (1060,-720);
ref = twosuperior;
}
);
width = 1906;
},
{
layerId = "7609694B-C902-4DC8-BC2F-8BF204A4C5AE";
shapes = (
{
closed = 1;
nodes = (
(327,490,l),
(467,490,l),
(467,1400,l),
(402,1401,l),
(44,1272,l),
(84,1155,l),
(327,1239,l)
);
},
{
closed = 1;
nodes = (
(494,-33,l),
(1276,1371,l),
(1163,1433,l),
(381,35,l)
);
},
{
alignment = -1;
pos = (1025,-710);
ref = twosuperior;
}
);
width = 1856;
},
{
layerId = "90133A7B-8BB4-4C15-92F3-A0E8B30B2A31";
shapes = (
{
closed = 1;
nodes = (
(343,490,l),
(421,490,l),
(421,1400,l),
(367,1402,l),
(50,1284,l),
(72,1221,l),
(343,1320,l)
);
},
{
closed = 1;
nodes = (
(438,-29,l),
(1232,1399,l),
(1173,1429,l),
(380,7,l)
);
},
{
alignment = -1;
pos = (1002,-704);
ref = twosuperior;
}
);
width = 1824;
}
);
leftKerningGroup = _onehalf;
unicode = 189;
},
{
glyphname = threequarters;
layers = (
{
layerId = "88C73509-728C-4DC8-993B-4895D781EEEF";
shapes = (
{
closed = 1;
nodes = (
(520,470,o),
(629,524,o),
(693,612,c),
(722,657,o),
(738,706,o),
(738,762,cs),
(738,871,o),
(687,944,o),
(614,989,cs),
(578,1010,o),
(542,1023,o),
(502,1028,c),
(698,1208,l),
(698,1400,l),
(74,1400,l),
(74,1190,l),
(408,1190,l),
(190,1026,l),
(258,864,l),
(302,877,o),
(338,880,o),
(366,880,cs),
(405,880,o),
(436,872,o),
(463,855,c),
(487,838,o),
(498,813,o),
(498,782,cs),
(498,754,o),
(485,731,o),
(458,715,c),
(431,696,o),
(398,688,o),
(358,688,cs),
(315,688,o),
(275,697,o),
(234,714,cs),
(191,731,o),
(159,754,o),
(136,782,c),
(61,578,l),
(88,547,o),
(130,525,o),
(190,502,c),
(250,482,o),
(311,470,o),
(376,470,cs)
);
},
{
closed = 1;
nodes = (
(1670,0,l),
(1884,0,l),
(1884,160,l),
(2002,160,l),
(2002,366,l),
(1884,366,l),
(1884,528,l),
(1670,528,l),
(1670,366,l),
(1502,366,l),
(1766,910,l),
(1512,910,l),
(1236,344,l),
(1236,160,l),
(1670,160,l)
);
},
{
closed = 1;
nodes = (
(742,-40,l),
(1506,1326,l),
(1306,1440,l),
(542,78,l)
);
}
);
width = 2050;
},
{
layerId = "7609694B-C902-4DC8-BC2F-8BF204A4C5AE";
shapes = (
{
closed = 1;
nodes = (
(510,470,o),
(615,522,o),
(674,608,c),
(702,652,o),
(717,702,o),
(717,758,cs),
(717,880,o),
(652,956,o),
(554,997,c),
(504,1017,o),
(455,1024,o),
(397,1024,c),
(676,1284,l),
(676,1400,l),
(84,1400,l),
(84,1273,l),
(495,1273,l),
(203,1013,l),
(247,914,l),
(288,925,o),
(326,928,o),
(358,928,cs),
(423,928,o),
(473,914,o),
(514,886,c),
(553,858,o),
(571,818,o),
(571,767,cs),
(571,716,o),
(552,676,o),
(514,649,c),
(476,618,o),
(426,603,o),
(364,603,cs),
(321,603,o),
(279,610,o),
(236,626,c),
(191,641,o),
(155,662,o),
(126,687,c),
(77,564,l),
(106,537,o),
(147,518,o),
(201,498,c),
(256,481,o),
(312,470,o),
(373,470,cs)
);
},
{
closed = 1;
nodes = (
(1676,0,l),
(1807,0,l),
(1807,185,l),
(1950,185,l),
(1950,311,l),
(1807,311,l),
(1807,511,l),
(1676,511,l),
(1676,311,l),
(1369,311,l),
(1699,910,l),
(1544,910,l),
(1209,299,l),
(1209,185,l),
(1676,185,l)
);
},
{
closed = 1;
nodes = (
(682,-33,l),
(1464,1371,l),
(1351,1433,l),
(569,35,l)
);
}
);
width = 2011;
},
{
layerId = "90133A7B-8BB4-4C15-92F3-A0E8B30B2A31";
shapes = (
{
closed = 1;
nodes = (
(503,470,o),
(606,520,o),
(662,605,cs),
(690,649,o),
(704,699,o),
(704,755,cs),
(704,886,o),
(630,963,o),
(516,1001,cs),
(457,1020,o),
(399,1025,o),
(331,1021,c),
(661,1331,l),
(661,1400,l),
(90,1400,l),
(90,1325,l),
(550,1325,l),
(211,1005,l),
(240,946,l),
(279,955,o),
(318,958,o),
(352,958,cs),
(433,958,o),
(496,941,o),
(546,905,cs),
(594,870,o),
(617,821,o),
(617,757,cs),
(617,692,o),
(595,642,o),
(549,606,c),
(504,568,o),
(444,549,o),
(367,549,cs),
(324,549,o),
(282,555,o),
(237,570,cs),
(190,585,o),
(152,603,o),
(120,627,c),
(87,555,l),
(116,531,o),
(157,514,o),
(208,495,c),
(259,480,o),
(312,470,o),
(371,470,cs)
);
},
{
closed = 1;
nodes = (
(1679,0,l),
(1758,0,l),
(1758,201,l),
(1917,201,l),
(1917,277,l),
(1758,277,l),
(1758,501,l),
(1679,501,l),
(1679,277,l),
(1285,277,l),
(1656,910,l),
(1565,910,l),
(1193,271,l),
(1193,201,l),
(1679,201,l)
);
},
{
closed = 1;
nodes = (
(644,-29,l),
(1437,1399,l),
(1379,1429,l),
(585,7,l)
);
}
);
width = 1986;
}
);
unicode = 190;
},
{
glyphname = questiondown;
layers = (
{
guides = (
{
position = "{0, 1400}";
}
);
layerId = "88C73509-728C-4DC8-993B-4895D781EEEF";
shapes = (
{
closed = 1;
nodes = (
(379,503,l),
(456,445,o),
(472,419,o),
(472,386,cs),
(472,363,o),
(469,343,o),
(454,333,cs),
(345,261,ls),
(239,191,o),
(86,77,o),
(86,-103,cs),
(86,-343,o),
(353,-450,o),
(551,-450,cs),
(669,-450,o),
(909,-412,o),
(980,-337,c),
(908,-22,l),
(826,-64,o),
(760,-94,o),
(663,-94,cs),
(579,-94,o),
(529,-56,o),
(529,5,cs),
(529,43,o),
(549,75,o),
(589,103,cs),
(665,156,ls),
(734,204,o),
(817,248,o),
(817,360,cs),
(817,429,o),
(788,480,o),
(637,559,c)
);
},
{
closed = 1;
nodes = (
(458,1070,o),
(357,981,o),
(357,851,cs),
(357,722,o),
(456,636,o),
(586,636,cs),
(712,636,o),
(812,719,o),
(812,851,cs),
(812,984,o),
(712,1070,o),
(587,1070,cs)
);
}
);
width = 1052;
},
{
guides = (
{
position = "{0, 1400}";
}
);
layerId = "7609694B-C902-4DC8-BC2F-8BF204A4C5AE";
shapes = (
{
closed = 1;
nodes = (
(429,595,l),
(488,551,o),
(549,503,o),
(549,439,cs),
(549,402,o),
(528,377,o),
(468,339,cs),
(366,275,ls),
(201,170,o),
(95,51,o),
(95,-90,cs),
(95,-317,o),
(325,-450,o),
(535,-450,cs),
(652,-450,o),
(804,-418,o),
(895,-340,c),
(840,-186,l),
(761,-251,o),
(663,-275,o),
(564,-275,cs),
(437,-275,o),
(322,-202,o),
(322,-63,cs),
(322,3,o),
(375,89,o),
(462,143,cs),
(548,197,ls),
(669,272,o),
(732,333,o),
(732,422,cs),
(732,524,o),
(651,587,o),
(568,635,c)
);
},
{
closed = 1;
nodes = (
(469,1070,o),
(408,1017,o),
(408,938,cs),
(408,858,o),
(469,807,o),
(547,807,cs),
(624,807,o),
(685,858,o),
(685,936,cs),
(685,1016,o),
(622,1070,o),
(546,1070,cs)
);
}
);
width = 977;
},
{
guides = (
{
position = "{0, 1400}";
}
);
layerId = "90133A7B-8BB4-4C15-92F3-A0E8B30B2A31";
shapes = (
{
closed = 1;
nodes = (
(467,664,l),
(512,629,o),
(608,566,o),
(608,478,cs),
(608,431,o),
(572,392,o),
(478,333,cs),
(382,274,ls),
(173,143,o),
(102,8,o),
(102,-102,cs),
(102,-323,o),
(310,-450,o),
(526,-450,cs),
(643,-450,o),
(749,-421,o),
(849,-342,c),
(803,-276,l),
(727,-353,o),
(613,-374,o),
(512,-374,cs),
(347,-374,o),
(173,-280,o),
(173,-100,cs),
(173,-6,o),
(228,101,o),
(368,183,cs),
(461,237,ls),
(622,331,o),
(667,398,o),
(667,468,cs),
(667,595,o),
(548,668,o),
(516,693,c)
);
},
{
closed = 1;
nodes = (
(475,1070,o),
(435,1036,o),
(435,984,cs),
(435,930,o),
(475,897,o),
(526,897,cs),
(577,897,o),
(619,930,o),
(619,982,cs),
(619,1032,o),
(575,1070,o),
(524,1070,cs)
);
}
);
width = 937;
}
);
unicode = 191;
},
